<ttFont>
    <TTGlyph name="A" xMin="-20" yMin="-15" xMax="775" yMax="758">
      <contour>
        <pt x="758" y="236" on="1"/>
        <pt x="775" y="236" on="0"/>
        <pt x="775" y="190" on="1"/>
        <pt x="775" y="165" on="0"/>
        <pt x="733" y="94" on="0"/>
        <pt x="666" y="35" on="0"/>
        <pt x="584" y="-3" on="0"/>
        <pt x="545" y="-3" on="1"/>
        <pt x="486" y="-3" on="0"/>
        <pt x="441" y="56" on="0"/>
        <pt x="441" y="171" on="0"/>
        <pt x="486" y="311" on="1"/>
        <pt x="348" y="317" on="0"/>
        <pt x="285" y="317" on="1"/>
        <pt x="271" y="317" on="1"/>
        <pt x="253" y="206" on="0"/>
        <pt x="253" y="84" on="1"/>
        <pt x="253" y="30" on="0"/>
        <pt x="212" y="10" on="1"/>
        <pt x="193" y="1" on="0"/>
        <pt x="158" y="-15" on="0"/>
        <pt x="138" y="-15" on="1"/>
        <pt x="88" y="-15" on="0"/>
        <pt x="88" y="165" on="0"/>
        <pt x="129" y="306" on="1"/>
        <pt x="85" y="301" on="0"/>
        <pt x="18" y="291" on="0"/>
        <pt x="-20" y="291" on="0"/>
        <pt x="-20" y="301" on="1"/>
        <pt x="-20" y="331" on="0"/>
        <pt x="29" y="362" on="1"/>
        <pt x="79" y="393" on="0"/>
        <pt x="164" y="409" on="1"/>
        <pt x="258" y="648" on="0"/>
        <pt x="394" y="728" on="1"/>
        <pt x="444" y="758" on="0"/>
        <pt x="500" y="758" on="1"/>
        <pt x="600" y="757" on="0"/>
        <pt x="689" y="651" on="0"/>
        <pt x="690" y="476" on="0"/>
        <pt x="636" y="336" on="1"/>
        <pt x="616" y="282" on="0"/>
        <pt x="582" y="194" on="0"/>
        <pt x="582" y="140" on="0"/>
        <pt x="590" y="112" on="0"/>
        <pt x="605" y="112" on="1"/>
        <pt x="632" y="112" on="0"/>
        <pt x="732" y="216" on="1"/>
        <pt x="750" y="236" on="0"/>
      </contour>
      <contour>
        <pt x="545" y="534" on="1"/>
        <pt x="545" y="621" on="0"/>
        <pt x="480" y="621" on="1"/>
        <pt x="414" y="621" on="0"/>
        <pt x="319" y="510" on="0"/>
        <pt x="293" y="417" on="1"/>
        <pt x="520" y="414" on="1"/>
        <pt x="545" y="494" on="0"/>
      </contour>
    </TTGlyph>
    <TTGlyph name="AE" xMin="-20" yMin="-15" xMax="1030" yMax="758">
      <contour>
        <pt x="1004" y="128" on="1"/>
        <pt x="1004" y="-11" on="0"/>
        <pt x="724" y="-11" on="1"/>
        <pt x="550" y="-2" on="1"/>
        <pt x="522" y="-15" on="0"/>
        <pt x="467" y="-15" on="1"/>
        <pt x="442" y="-15" on="0"/>
        <pt x="433" y="36" on="0"/>
        <pt x="433" y="81" on="1"/>
        <pt x="433" y="165" on="0"/>
        <pt x="485" y="305" on="1"/>
        <pt x="488" y="314" on="1"/>
        <pt x="374" y="317" on="0"/>
        <pt x="333" y="317" on="1"/>
        <pt x="271" y="317" on="1"/>
        <pt x="253" y="206" on="0"/>
        <pt x="253" y="84" on="1"/>
        <pt x="253" y="30" on="0"/>
        <pt x="212" y="10" on="1"/>
        <pt x="193" y="1" on="0"/>
        <pt x="158" y="-15" on="0"/>
        <pt x="138" y="-15" on="1"/>
        <pt x="88" y="-15" on="0"/>
        <pt x="88" y="165" on="0"/>
        <pt x="129" y="306" on="1"/>
        <pt x="85" y="301" on="0"/>
        <pt x="18" y="291" on="0"/>
        <pt x="-20" y="291" on="0"/>
        <pt x="-20" y="301" on="1"/>
        <pt x="-20" y="331" on="0"/>
        <pt x="29" y="362" on="1"/>
        <pt x="79" y="393" on="0"/>
        <pt x="164" y="409" on="1"/>
        <pt x="258" y="648" on="0"/>
        <pt x="394" y="728" on="1"/>
        <pt x="444" y="758" on="0"/>
        <pt x="539" y="757" on="0"/>
        <pt x="569" y="749" on="1"/>
        <pt x="1003" y="744" on="1"/>
        <pt x="1030" y="744" on="0"/>
        <pt x="1030" y="723" on="1"/>
        <pt x="1030" y="717" on="0"/>
        <pt x="1014" y="686" on="0"/>
        <pt x="1008" y="668" on="1"/>
        <pt x="995" y="632" on="0"/>
        <pt x="952" y="632" on="1"/>
        <pt x="900" y="632" on="0"/>
        <pt x="730" y="634" on="0"/>
        <pt x="681" y="634" on="1"/>
        <pt x="689" y="600" on="0"/>
        <pt x="689" y="502" on="0"/>
        <pt x="663" y="415" on="1"/>
        <pt x="699" y="415" on="0"/>
        <pt x="759" y="414" on="0"/>
        <pt x="806" y="416" on="0"/>
        <pt x="842" y="416" on="0"/>
        <pt x="881" y="414" on="0"/>
        <pt x="900" y="406" on="0"/>
        <pt x="900" y="389" on="0"/>
        <pt x="884" y="359" on="0"/>
        <pt x="878" y="343" on="1"/>
        <pt x="865" y="310" on="0"/>
        <pt x="825" y="310" on="1"/>
        <pt x="803" y="310" on="1"/>
        <pt x="626" y="312" on="1"/>
        <pt x="616" y="285" on="1"/>
        <pt x="589" y="183" on="0"/>
        <pt x="584" y="98" on="1"/>
        <pt x="722" y="104" on="0"/>
        <pt x="841" y="104" on="0"/>
        <pt x="905" y="124" on="0"/>
        <pt x="943" y="148" on="0"/>
        <pt x="968" y="168" on="0"/>
        <pt x="981" y="168" on="1"/>
        <pt x="1004" y="168" on="0"/>
      </contour>
      <contour>
        <pt x="520" y="416" on="1"/>
        <pt x="545" y="496" on="0"/>
        <pt x="545" y="573" on="0"/>
        <pt x="514" y="621" on="0"/>
        <pt x="480" y="621" on="1"/>
        <pt x="414" y="621" on="0"/>
        <pt x="319" y="510" on="0"/>
        <pt x="293" y="417" on="1"/>
      </contour>
    </TTGlyph>
    <TTGlyph name="Aacute" xMin="-20" yMin="-15" xMax="805" yMax="1012">
      <contour>
        <pt x="758" y="236" on="1"/>
        <pt x="775" y="236" on="0"/>
        <pt x="775" y="190" on="1"/>
        <pt x="775" y="165" on="0"/>
        <pt x="733" y="94" on="0"/>
        <pt x="666" y="35" on="0"/>
        <pt x="584" y="-3" on="0"/>
        <pt x="545" y="-3" on="1"/>
        <pt x="486" y="-3" on="0"/>
        <pt x="441" y="56" on="0"/>
        <pt x="441" y="171" on="0"/>
        <pt x="486" y="311" on="1"/>
        <pt x="348" y="317" on="0"/>
        <pt x="285" y="317" on="1"/>
        <pt x="271" y="317" on="1"/>
        <pt x="253" y="206" on="0"/>
        <pt x="253" y="84" on="1"/>
        <pt x="253" y="30" on="0"/>
        <pt x="212" y="10" on="1"/>
        <pt x="193" y="1" on="0"/>
        <pt x="158" y="-15" on="0"/>
        <pt x="138" y="-15" on="1"/>
        <pt x="88" y="-15" on="0"/>
        <pt x="88" y="165" on="0"/>
        <pt x="129" y="306" on="1"/>
        <pt x="85" y="301" on="0"/>
        <pt x="18" y="291" on="0"/>
        <pt x="-20" y="291" on="0"/>
        <pt x="-20" y="301" on="1"/>
        <pt x="-20" y="331" on="0"/>
        <pt x="29" y="362" on="1"/>
        <pt x="79" y="393" on="0"/>
        <pt x="164" y="409" on="1"/>
        <pt x="258" y="648" on="0"/>
        <pt x="394" y="728" on="1"/>
        <pt x="444" y="758" on="0"/>
        <pt x="500" y="758" on="1"/>
        <pt x="600" y="757" on="0"/>
        <pt x="689" y="651" on="0"/>
        <pt x="690" y="476" on="0"/>
        <pt x="636" y="336" on="1"/>
        <pt x="616" y="282" on="0"/>
        <pt x="582" y="194" on="0"/>
        <pt x="582" y="140" on="0"/>
        <pt x="590" y="112" on="0"/>
        <pt x="605" y="112" on="1"/>
        <pt x="632" y="112" on="0"/>
        <pt x="732" y="216" on="1"/>
        <pt x="750" y="236" on="0"/>
      </contour>
      <contour>
        <pt x="545" y="534" on="1"/>
        <pt x="545" y="621" on="0"/>
        <pt x="480" y="621" on="1"/>
        <pt x="414" y="621" on="0"/>
        <pt x="319" y="510" on="0"/>
        <pt x="293" y="417" on="1"/>
        <pt x="520" y="414" on="1"/>
        <pt x="545" y="494" on="0"/>
      </contour>
      <contour>
        <pt x="757" y="1012" on="1"/>
        <pt x="805" y="1012" on="0"/>
        <pt x="805" y="996" on="1"/>
        <pt x="805" y="983" on="0"/>
        <pt x="783" y="954" on="1"/>
        <pt x="730" y="886" on="0"/>
        <pt x="618" y="826" on="0"/>
        <pt x="522" y="825" on="1"/>
        <pt x="482" y="825" on="0"/>
        <pt x="482" y="844" on="1"/>
        <pt x="482" y="860" on="0"/>
        <pt x="512" y="869" on="1"/>
        <pt x="582" y="891" on="0"/>
        <pt x="641" y="930" on="0"/>
        <pt x="674" y="965" on="0"/>
        <pt x="690" y="989" on="1"/>
        <pt x="698" y="1000" on="0"/>
        <pt x="737" y="1012" on="0"/>
      </contour>
    </TTGlyph>
    <TTGlyph name="Acircumflex" xMin="-20" yMin="-15" xMax="775" yMax="1022">
      <contour>
        <pt x="758" y="236" on="1"/>
        <pt x="775" y="236" on="0"/>
        <pt x="775" y="190" on="1"/>
        <pt x="775" y="165" on="0"/>
        <pt x="733" y="94" on="0"/>
        <pt x="666" y="35" on="0"/>
        <pt x="584" y="-3" on="0"/>
        <pt x="545" y="-3" on="1"/>
        <pt x="486" y="-3" on="0"/>
        <pt x="441" y="56" on="0"/>
        <pt x="441" y="171" on="0"/>
        <pt x="486" y="311" on="1"/>
        <pt x="348" y="317" on="0"/>
        <pt x="285" y="317" on="1"/>
        <pt x="271" y="317" on="1"/>
        <pt x="253" y="206" on="0"/>
        <pt x="253" y="84" on="1"/>
        <pt x="253" y="30" on="0"/>
        <pt x="212" y="10" on="1"/>
        <pt x="193" y="1" on="0"/>
        <pt x="158" y="-15" on="0"/>
        <pt x="138" y="-15" on="1"/>
        <pt x="88" y="-15" on="0"/>
        <pt x="88" y="165" on="0"/>
        <pt x="129" y="306" on="1"/>
        <pt x="85" y="301" on="0"/>
        <pt x="18" y="291" on="0"/>
        <pt x="-20" y="291" on="0"/>
        <pt x="-20" y="301" on="1"/>
        <pt x="-20" y="331" on="0"/>
        <pt x="29" y="362" on="1"/>
        <pt x="79" y="393" on="0"/>
        <pt x="164" y="409" on="1"/>
        <pt x="258" y="648" on="0"/>
        <pt x="394" y="728" on="1"/>
        <pt x="444" y="758" on="0"/>
        <pt x="500" y="758" on="1"/>
        <pt x="600" y="757" on="0"/>
        <pt x="689" y="651" on="0"/>
        <pt x="690" y="476" on="0"/>
        <pt x="636" y="336" on="1"/>
        <pt x="616" y="282" on="0"/>
        <pt x="582" y="194" on="0"/>
        <pt x="582" y="140" on="0"/>
        <pt x="590" y="112" on="0"/>
        <pt x="605" y="112" on="1"/>
        <pt x="632" y="112" on="0"/>
        <pt x="732" y="216" on="1"/>
        <pt x="750" y="236" on="0"/>
      </contour>
      <contour>
        <pt x="309" y="860" on="1"/>
        <pt x="309" y="872" on="0"/>
        <pt x="340" y="899" on="0"/>
        <pt x="373" y="925" on="0"/>
        <pt x="390" y="937" on="1"/>
        <pt x="435" y="970" on="0"/>
        <pt x="458" y="988" on="1"/>
        <pt x="503" y="1022" on="0"/>
        <pt x="546" y="1022" on="1"/>
        <pt x="563" y="1022" on="0"/>
        <pt x="584" y="1010" on="1"/>
        <pt x="651" y="970" on="0"/>
        <pt x="716" y="919" on="0"/>
        <pt x="757" y="873" on="1"/>
        <pt x="763" y="867" on="0"/>
        <pt x="763" y="860" on="1"/>
        <pt x="763" y="844" on="0"/>
        <pt x="697" y="811" on="0"/>
        <pt x="645" y="811" on="0"/>
        <pt x="615" y="840" on="0"/>
        <pt x="600" y="855" on="1"/>
        <pt x="555" y="898" on="0"/>
        <pt x="506" y="929" on="1"/>
        <pt x="460" y="893" on="0"/>
        <pt x="436" y="872" on="1"/>
        <pt x="398" y="838" on="0"/>
        <pt x="309" y="838" on="0"/>
      </contour>
      <contour>
        <pt x="545" y="534" on="1"/>
        <pt x="545" y="621" on="0"/>
        <pt x="480" y="621" on="1"/>
        <pt x="414" y="621" on="0"/>
        <pt x="319" y="510" on="0"/>
        <pt x="293" y="417" on="1"/>
        <pt x="520" y="414" on="1"/>
        <pt x="545" y="494" on="0"/>
      </contour>
    </TTGlyph>
    <TTGlyph name="Adieresis" xMin="-20" yMin="-15" xMax="775" yMax="1001">
      <contour>
        <pt x="758" y="236" on="1"/>
        <pt x="775" y="236" on="0"/>
        <pt x="775" y="190" on="1"/>
        <pt x="775" y="165" on="0"/>
        <pt x="733" y="94" on="0"/>
        <pt x="666" y="35" on="0"/>
        <pt x="584" y="-3" on="0"/>
        <pt x="545" y="-3" on="1"/>
        <pt x="486" y="-3" on="0"/>
        <pt x="441" y="56" on="0"/>
        <pt x="441" y="171" on="0"/>
        <pt x="486" y="311" on="1"/>
        <pt x="348" y="317" on="0"/>
        <pt x="285" y="317" on="1"/>
        <pt x="271" y="317" on="1"/>
        <pt x="253" y="206" on="0"/>
        <pt x="253" y="84" on="1"/>
        <pt x="253" y="30" on="0"/>
        <pt x="212" y="10" on="1"/>
        <pt x="193" y="1" on="0"/>
        <pt x="158" y="-15" on="0"/>
        <pt x="138" y="-15" on="1"/>
        <pt x="88" y="-15" on="0"/>
        <pt x="88" y="165" on="0"/>
        <pt x="129" y="306" on="1"/>
        <pt x="85" y="301" on="0"/>
        <pt x="18" y="291" on="0"/>
        <pt x="-20" y="291" on="0"/>
        <pt x="-20" y="301" on="1"/>
        <pt x="-20" y="331" on="0"/>
        <pt x="29" y="362" on="1"/>
        <pt x="79" y="393" on="0"/>
        <pt x="164" y="409" on="1"/>
        <pt x="258" y="648" on="0"/>
        <pt x="394" y="728" on="1"/>
        <pt x="444" y="758" on="0"/>
        <pt x="500" y="758" on="1"/>
        <pt x="600" y="757" on="0"/>
        <pt x="689" y="651" on="0"/>
        <pt x="690" y="476" on="0"/>
        <pt x="636" y="336" on="1"/>
        <pt x="616" y="282" on="0"/>
        <pt x="582" y="194" on="0"/>
        <pt x="582" y="140" on="0"/>
        <pt x="590" y="112" on="0"/>
        <pt x="605" y="112" on="1"/>
        <pt x="632" y="112" on="0"/>
        <pt x="732" y="216" on="1"/>
        <pt x="750" y="236" on="0"/>
      </contour>
      <contour>
        <pt x="545" y="534" on="1"/>
        <pt x="545" y="621" on="0"/>
        <pt x="480" y="621" on="1"/>
        <pt x="414" y="621" on="0"/>
        <pt x="319" y="510" on="0"/>
        <pt x="293" y="417" on="1"/>
        <pt x="520" y="414" on="1"/>
        <pt x="545" y="494" on="0"/>
      </contour>
      <contour>
        <pt x="481" y="892" on="0"/>
        <pt x="415" y="847" on="0"/>
        <pt x="337" y="847" on="0"/>
        <pt x="336" y="932" on="0"/>
        <pt x="392" y="1000" on="0"/>
        <pt x="426" y="1001" on="1"/>
        <pt x="465" y="1001" on="0"/>
        <pt x="497" y="930" on="1"/>
      </contour>
      <contour>
        <pt x="691" y="959" on="1"/>
        <pt x="648" y="847" on="0"/>
        <pt x="587" y="847" on="1"/>
        <pt x="564" y="847" on="0"/>
        <pt x="537" y="876" on="0"/>
        <pt x="537" y="894" on="1"/>
        <pt x="537" y="939" on="0"/>
        <pt x="579" y="992" on="0"/>
        <pt x="608" y="992" on="1"/>
        <pt x="664" y="992" on="0"/>
      </contour>
    </TTGlyph>
    <TTGlyph name="Agrave" xMin="-20" yMin="-15" xMax="775" yMax="1012">
      <contour>
        <pt x="758" y="236" on="1"/>
        <pt x="775" y="236" on="0"/>
        <pt x="775" y="190" on="1"/>
        <pt x="775" y="165" on="0"/>
        <pt x="733" y="94" on="0"/>
        <pt x="666" y="35" on="0"/>
        <pt x="584" y="-3" on="0"/>
        <pt x="545" y="-3" on="1"/>
        <pt x="486" y="-3" on="0"/>
        <pt x="441" y="56" on="0"/>
        <pt x="441" y="171" on="0"/>
        <pt x="486" y="311" on="1"/>
        <pt x="348" y="317" on="0"/>
        <pt x="285" y="317" on="1"/>
        <pt x="271" y="317" on="1"/>
        <pt x="253" y="206" on="0"/>
        <pt x="253" y="84" on="1"/>
        <pt x="253" y="30" on="0"/>
        <pt x="212" y="10" on="1"/>
        <pt x="193" y="1" on="0"/>
        <pt x="158" y="-15" on="0"/>
        <pt x="138" y="-15" on="1"/>
        <pt x="88" y="-15" on="0"/>
        <pt x="88" y="165" on="0"/>
        <pt x="129" y="306" on="1"/>
        <pt x="85" y="301" on="0"/>
        <pt x="18" y="291" on="0"/>
        <pt x="-20" y="291" on="0"/>
        <pt x="-20" y="301" on="1"/>
        <pt x="-20" y="331" on="0"/>
        <pt x="29" y="362" on="1"/>
        <pt x="79" y="393" on="0"/>
        <pt x="164" y="409" on="1"/>
        <pt x="258" y="648" on="0"/>
        <pt x="394" y="728" on="1"/>
        <pt x="444" y="758" on="0"/>
        <pt x="500" y="758" on="1"/>
        <pt x="600" y="757" on="0"/>
        <pt x="689" y="651" on="0"/>
        <pt x="690" y="476" on="0"/>
        <pt x="636" y="336" on="1"/>
        <pt x="616" y="282" on="0"/>
        <pt x="582" y="194" on="0"/>
        <pt x="582" y="140" on="0"/>
        <pt x="590" y="112" on="0"/>
        <pt x="605" y="112" on="1"/>
        <pt x="632" y="112" on="0"/>
        <pt x="732" y="216" on="1"/>
        <pt x="750" y="236" on="0"/>
      </contour>
      <contour>
        <pt x="545" y="534" on="1"/>
        <pt x="545" y="621" on="0"/>
        <pt x="480" y="621" on="1"/>
        <pt x="414" y="621" on="0"/>
        <pt x="319" y="510" on="0"/>
        <pt x="293" y="417" on="1"/>
        <pt x="520" y="414" on="1"/>
        <pt x="545" y="494" on="0"/>
      </contour>
      <contour>
        <pt x="543" y="856" on="1"/>
        <pt x="543" y="840" on="0"/>
        <pt x="484" y="832" on="1"/>
        <pt x="470" y="830" on="0"/>
        <pt x="430" y="830" on="0"/>
        <pt x="341" y="848" on="0"/>
        <pt x="256" y="884" on="0"/>
        <pt x="195" y="938" on="0"/>
        <pt x="195" y="975" on="1"/>
        <pt x="194" y="990" on="0"/>
        <pt x="253" y="1012" on="0"/>
        <pt x="307" y="1012" on="0"/>
        <pt x="319" y="997" on="1"/>
        <pt x="357" y="945" on="0"/>
        <pt x="457" y="888" on="0"/>
        <pt x="523" y="869" on="1"/>
        <pt x="543" y="863" on="0"/>
      </contour>
    </TTGlyph>
    <TTGlyph name="Aring" xMin="-20" yMin="-15" xMax="775" yMax="948">
      <contour>
        <pt x="758" y="236" on="1"/>
        <pt x="775" y="236" on="0"/>
        <pt x="775" y="190" on="1"/>
        <pt x="775" y="165" on="0"/>
        <pt x="733" y="94" on="0"/>
        <pt x="666" y="35" on="0"/>
        <pt x="584" y="-3" on="0"/>
        <pt x="545" y="-3" on="1"/>
        <pt x="486" y="-3" on="0"/>
        <pt x="441" y="56" on="0"/>
        <pt x="441" y="171" on="0"/>
        <pt x="486" y="311" on="1"/>
        <pt x="348" y="317" on="0"/>
        <pt x="285" y="317" on="1"/>
        <pt x="271" y="317" on="1"/>
        <pt x="253" y="206" on="0"/>
        <pt x="253" y="84" on="1"/>
        <pt x="253" y="30" on="0"/>
        <pt x="212" y="10" on="1"/>
        <pt x="193" y="1" on="0"/>
        <pt x="158" y="-15" on="0"/>
        <pt x="138" y="-15" on="1"/>
        <pt x="88" y="-15" on="0"/>
        <pt x="88" y="165" on="0"/>
        <pt x="129" y="306" on="1"/>
        <pt x="85" y="301" on="0"/>
        <pt x="18" y="291" on="0"/>
        <pt x="-20" y="291" on="0"/>
        <pt x="-20" y="301" on="1"/>
        <pt x="-20" y="331" on="0"/>
        <pt x="29" y="362" on="1"/>
        <pt x="79" y="393" on="0"/>
        <pt x="164" y="409" on="1"/>
        <pt x="238" y="593" on="0"/>
        <pt x="336" y="685" on="1"/>
        <pt x="372" y="719" on="0"/>
        <pt x="414" y="737" on="1"/>
        <pt x="369" y="775" on="0"/>
        <pt x="369" y="834" on="1"/>
        <pt x="369" y="910" on="0"/>
        <pt x="447" y="937" on="1"/>
        <pt x="470" y="945" on="0"/>
        <pt x="496" y="945" on="1"/>
        <pt x="507" y="945" on="1"/>
        <pt x="516" y="948" on="0"/>
        <pt x="548" y="948" on="0"/>
        <pt x="602" y="924" on="0"/>
        <pt x="624" y="906" on="1"/>
        <pt x="676" y="863" on="0"/>
        <pt x="677" y="766" on="0"/>
        <pt x="612" y="731" on="1"/>
        <pt x="689" y="683" on="0"/>
        <pt x="689" y="566" on="1"/>
        <pt x="690" y="476" on="0"/>
        <pt x="636" y="336" on="1"/>
        <pt x="616" y="282" on="0"/>
        <pt x="582" y="194" on="0"/>
        <pt x="582" y="140" on="0"/>
        <pt x="590" y="112" on="0"/>
        <pt x="605" y="112" on="1"/>
        <pt x="632" y="112" on="0"/>
        <pt x="732" y="216" on="1"/>
        <pt x="750" y="236" on="0"/>
      </contour>
      <contour>
        <pt x="545" y="534" on="1"/>
        <pt x="545" y="621" on="0"/>
        <pt x="480" y="621" on="1"/>
        <pt x="414" y="621" on="0"/>
        <pt x="319" y="510" on="0"/>
        <pt x="293" y="417" on="1"/>
        <pt x="520" y="414" on="1"/>
        <pt x="545" y="494" on="0"/>
      </contour>
      <contour>
        <pt x="537" y="772" on="1"/>
        <pt x="579" y="772" on="0"/>
        <pt x="579" y="808" on="1"/>
        <pt x="579" y="828" on="0"/>
        <pt x="539" y="865" on="0"/>
        <pt x="518" y="874" on="1"/>
        <pt x="514" y="873" on="0"/>
        <pt x="487" y="873" on="0"/>
        <pt x="474" y="877" on="1"/>
        <pt x="467" y="866" on="0"/>
        <pt x="467" y="820" on="0"/>
        <pt x="504" y="772" on="0"/>
      </contour>
    </TTGlyph>
    <TTGlyph name="Atilde" xMin="-20" yMin="-15" xMax="782" yMax="1032">
      <contour>
        <pt x="758" y="236" on="1"/>
        <pt x="775" y="236" on="0"/>
        <pt x="775" y="190" on="1"/>
        <pt x="775" y="165" on="0"/>
        <pt x="733" y="94" on="0"/>
        <pt x="666" y="35" on="0"/>
        <pt x="584" y="-3" on="0"/>
        <pt x="545" y="-3" on="1"/>
        <pt x="486" y="-3" on="0"/>
        <pt x="441" y="56" on="0"/>
        <pt x="441" y="171" on="0"/>
        <pt x="486" y="311" on="1"/>
        <pt x="348" y="317" on="0"/>
        <pt x="285" y="317" on="1"/>
        <pt x="271" y="317" on="1"/>
        <pt x="253" y="206" on="0"/>
        <pt x="253" y="84" on="1"/>
        <pt x="253" y="30" on="0"/>
        <pt x="212" y="10" on="1"/>
        <pt x="193" y="1" on="0"/>
        <pt x="158" y="-15" on="0"/>
        <pt x="138" y="-15" on="1"/>
        <pt x="88" y="-15" on="0"/>
        <pt x="88" y="165" on="0"/>
        <pt x="129" y="306" on="1"/>
        <pt x="85" y="301" on="0"/>
        <pt x="18" y="291" on="0"/>
        <pt x="-20" y="291" on="0"/>
        <pt x="-20" y="301" on="1"/>
        <pt x="-20" y="331" on="0"/>
        <pt x="29" y="362" on="1"/>
        <pt x="79" y="393" on="0"/>
        <pt x="164" y="409" on="1"/>
        <pt x="258" y="648" on="0"/>
        <pt x="394" y="728" on="1"/>
        <pt x="444" y="758" on="0"/>
        <pt x="500" y="758" on="1"/>
        <pt x="600" y="757" on="0"/>
        <pt x="689" y="651" on="0"/>
        <pt x="690" y="476" on="0"/>
        <pt x="636" y="336" on="1"/>
        <pt x="616" y="282" on="0"/>
        <pt x="582" y="194" on="0"/>
        <pt x="582" y="140" on="0"/>
        <pt x="590" y="112" on="0"/>
        <pt x="605" y="112" on="1"/>
        <pt x="632" y="112" on="0"/>
        <pt x="732" y="216" on="1"/>
        <pt x="750" y="236" on="0"/>
      </contour>
      <contour>
        <pt x="701" y="950" on="0"/>
        <pt x="728" y="963" on="0"/>
        <pt x="782" y="963" on="0"/>
        <pt x="782" y="945" on="1"/>
        <pt x="782" y="939" on="0"/>
        <pt x="779" y="937" on="1"/>
        <pt x="732" y="839" on="0"/>
        <pt x="628" y="839" on="1"/>
        <pt x="597" y="839" on="0"/>
        <pt x="549" y="871" on="0"/>
        <pt x="505" y="908" on="0"/>
        <pt x="461" y="940" on="0"/>
        <pt x="434" y="940" on="1"/>
        <pt x="416" y="940" on="0"/>
        <pt x="397" y="907" on="1"/>
        <pt x="382" y="886" on="0"/>
        <pt x="326" y="880" on="1"/>
        <pt x="312" y="878" on="0"/>
        <pt x="301" y="878" on="1"/>
        <pt x="281" y="878" on="0"/>
        <pt x="281" y="903" on="1"/>
        <pt x="281" y="917" on="0"/>
        <pt x="300" y="938" on="1"/>
        <pt x="343" y="991" on="0"/>
        <pt x="435" y="1032" on="0"/>
        <pt x="499" y="1032" on="0"/>
        <pt x="549" y="998" on="0"/>
        <pt x="593" y="957" on="0"/>
        <pt x="635" y="923" on="0"/>
        <pt x="667" y="923" on="0"/>
        <pt x="681" y="935" on="0"/>
      </contour>
      <contour>
        <pt x="545" y="534" on="1"/>
        <pt x="545" y="621" on="0"/>
        <pt x="480" y="621" on="1"/>
        <pt x="414" y="621" on="0"/>
        <pt x="319" y="510" on="0"/>
        <pt x="293" y="417" on="1"/>
        <pt x="520" y="414" on="1"/>
        <pt x="545" y="494" on="0"/>
      </contour>
    </TTGlyph>
    <TTGlyph name="B" xMin="14" yMin="-22" xMax="658" yMax="753">
      <contour>
        <pt x="408" y="351" on="1"/>
        <pt x="311" y="351" on="0"/>
        <pt x="313" y="400" on="1"/>
        <pt x="313" y="446" on="0"/>
        <pt x="406" y="446" on="1"/>
        <pt x="428" y="446" on="0"/>
        <pt x="448" y="441" on="1"/>
        <pt x="481" y="474" on="0"/>
        <pt x="481" y="541" on="1"/>
        <pt x="481" y="657" on="0"/>
        <pt x="326" y="657" on="1"/>
        <pt x="245" y="657" on="0"/>
        <pt x="172" y="622" on="1"/>
        <pt x="145" y="609" on="0"/>
        <pt x="102" y="587" on="0"/>
        <pt x="66" y="587" on="0"/>
        <pt x="66" y="598" on="1"/>
        <pt x="66" y="611" on="0"/>
        <pt x="106" y="662" on="0"/>
        <pt x="142" y="688" on="1"/>
        <pt x="234" y="752" on="0"/>
        <pt x="351" y="753" on="1"/>
        <pt x="504" y="753" on="0"/>
        <pt x="576" y="692" on="1"/>
        <pt x="638" y="641" on="0"/>
        <pt x="638" y="553" on="1"/>
        <pt x="638" y="451" on="0"/>
        <pt x="538" y="397" on="1"/>
        <pt x="634" y="342" on="0"/>
        <pt x="652" y="262" on="1"/>
        <pt x="658" y="234" on="0"/>
        <pt x="658" y="142" on="0"/>
        <pt x="608" y="60" on="0"/>
        <pt x="566" y="32" on="1"/>
        <pt x="482" y="-22" on="0"/>
        <pt x="351" y="-22" on="1"/>
        <pt x="258" y="-22" on="0"/>
        <pt x="144" y="20" on="1"/>
        <pt x="68" y="48" on="0"/>
        <pt x="32" y="87" on="1"/>
        <pt x="14" y="106" on="0"/>
        <pt x="15" y="144" on="0"/>
        <pt x="52" y="144" on="0"/>
        <pt x="104" y="131" on="1"/>
        <pt x="104" y="132" on="1"/>
        <pt x="104" y="210" on="0"/>
        <pt x="122" y="292" on="1"/>
        <pt x="153" y="435" on="0"/>
        <pt x="194" y="516" on="1"/>
        <pt x="238" y="606" on="0"/>
        <pt x="285" y="606" on="1"/>
        <pt x="298" y="606" on="0"/>
        <pt x="298" y="516" on="0"/>
        <pt x="281" y="422" on="0"/>
        <pt x="262" y="331" on="0"/>
        <pt x="245" y="257" on="0"/>
        <pt x="245" y="241" on="1"/>
        <pt x="235" y="90" on="1"/>
        <pt x="294" y="74" on="0"/>
        <pt x="376" y="74" on="0"/>
        <pt x="409" y="88" on="1"/>
        <pt x="492" y="123" on="0"/>
        <pt x="492" y="210" on="1"/>
        <pt x="492" y="262" on="0"/>
        <pt x="472" y="330" on="0"/>
        <pt x="446" y="356" on="1"/>
        <pt x="423" y="351" on="0"/>
      </contour>
    </TTGlyph>
    <TTGlyph name="C" xMin="60" yMin="-8" xMax="629" yMax="756">
      <contour>
        <pt x="532" y="162" on="1"/>
        <pt x="558" y="181" on="0"/>
        <pt x="600" y="236" on="0"/>
        <pt x="629" y="236" on="0"/>
        <pt x="629" y="149" on="0"/>
        <pt x="580" y="72" on="0"/>
        <pt x="540" y="46" on="1"/>
        <pt x="458" y="-8" on="0"/>
        <pt x="346" y="-8" on="1"/>
        <pt x="210" y="-8" on="0"/>
        <pt x="60" y="128" on="0"/>
        <pt x="60" y="249" on="1"/>
        <pt x="60" y="398" on="0"/>
        <pt x="132" y="532" on="1"/>
        <pt x="156" y="576" on="0"/>
        <pt x="186" y="613" on="1"/>
        <pt x="163" y="640" on="0"/>
        <pt x="136" y="699" on="0"/>
        <pt x="136" y="714" on="1"/>
        <pt x="136" y="741" on="0"/>
        <pt x="156" y="741" on="1"/>
        <pt x="170" y="740" on="0"/>
        <pt x="188" y="722" on="1"/>
        <pt x="219" y="692" on="1"/>
        <pt x="231" y="680" on="0"/>
        <pt x="244" y="672" on="1"/>
        <pt x="343" y="756" on="0"/>
        <pt x="572" y="756" on="0"/>
        <pt x="606" y="692" on="1"/>
        <pt x="618" y="668" on="0"/>
        <pt x="618" y="633" on="1"/>
        <pt x="618" y="580" on="0"/>
        <pt x="526" y="508" on="0"/>
        <pt x="371" y="508" on="0"/>
        <pt x="288" y="540" on="1"/>
        <pt x="217" y="419" on="0"/>
        <pt x="217" y="287" on="1"/>
        <pt x="217" y="104" on="0"/>
        <pt x="363" y="104" on="1"/>
        <pt x="453" y="104" on="0"/>
      </contour>
      <contour>
        <pt x="336" y="602" on="1"/>
        <pt x="387" y="585" on="0"/>
        <pt x="507" y="585" on="0"/>
        <pt x="507" y="618" on="1"/>
        <pt x="507" y="657" on="0"/>
        <pt x="458" y="657" on="1"/>
        <pt x="391" y="657" on="0"/>
      </contour>
    </TTGlyph>
    <TTGlyph name="Ccedilla" xMin="60" yMin="-269" xMax="629" yMax="756">
      <contour>
        <pt x="351" y="-99" on="1"/>
        <pt x="327" y="-105" on="0"/>
        <pt x="282" y="-105" on="0"/>
        <pt x="282" y="-93" on="1"/>
        <pt x="282" y="-88" on="0"/>
        <pt x="296" y="-57" on="0"/>
        <pt x="298" y="-5" on="1"/>
        <pt x="184" y="6" on="0"/>
        <pt x="60" y="139" on="0"/>
        <pt x="60" y="249" on="1"/>
        <pt x="60" y="398" on="0"/>
        <pt x="132" y="532" on="1"/>
        <pt x="156" y="576" on="0"/>
        <pt x="186" y="613" on="1"/>
        <pt x="163" y="640" on="0"/>
        <pt x="136" y="699" on="0"/>
        <pt x="136" y="714" on="1"/>
        <pt x="136" y="741" on="0"/>
        <pt x="156" y="741" on="1"/>
        <pt x="170" y="740" on="0"/>
        <pt x="188" y="722" on="1"/>
        <pt x="219" y="692" on="1"/>
        <pt x="231" y="680" on="0"/>
        <pt x="244" y="672" on="1"/>
        <pt x="343" y="756" on="0"/>
        <pt x="572" y="756" on="0"/>
        <pt x="606" y="692" on="1"/>
        <pt x="618" y="668" on="0"/>
        <pt x="618" y="633" on="1"/>
        <pt x="618" y="580" on="0"/>
        <pt x="526" y="508" on="0"/>
        <pt x="371" y="508" on="0"/>
        <pt x="288" y="540" on="1"/>
        <pt x="217" y="419" on="0"/>
        <pt x="217" y="287" on="1"/>
        <pt x="217" y="104" on="0"/>
        <pt x="363" y="104" on="1"/>
        <pt x="453" y="104" on="0"/>
        <pt x="532" y="162" on="1"/>
        <pt x="558" y="181" on="0"/>
        <pt x="600" y="236" on="0"/>
        <pt x="629" y="236" on="0"/>
        <pt x="629" y="195" on="1"/>
        <pt x="629" y="116" on="0"/>
        <pt x="489" y="6" on="0"/>
        <pt x="390" y="-5" on="1"/>
        <pt x="388" y="-28" on="0"/>
        <pt x="384" y="-50" on="1"/>
        <pt x="416" y="-50" on="0"/>
        <pt x="451" y="-85" on="0"/>
        <pt x="451" y="-112" on="1"/>
        <pt x="451" y="-169" on="0"/>
        <pt x="357" y="-268" on="0"/>
        <pt x="298" y="-269" on="1"/>
        <pt x="262" y="-269" on="0"/>
        <pt x="202" y="-216" on="0"/>
        <pt x="203" y="-181" on="1"/>
        <pt x="204" y="-162" on="0"/>
        <pt x="244" y="-152" on="1"/>
        <pt x="254" y="-150" on="0"/>
        <pt x="279" y="-150" on="0"/>
        <pt x="295" y="-163" on="0"/>
        <pt x="304" y="-182" on="0"/>
        <pt x="311" y="-203" on="0"/>
        <pt x="319" y="-212" on="1"/>
        <pt x="336" y="-195" on="0"/>
        <pt x="359" y="-149" on="0"/>
        <pt x="359" y="-113" on="0"/>
      </contour>
      <contour>
        <pt x="336" y="602" on="1"/>
        <pt x="387" y="585" on="0"/>
        <pt x="507" y="585" on="0"/>
        <pt x="507" y="618" on="1"/>
        <pt x="507" y="657" on="0"/>
        <pt x="458" y="657" on="1"/>
        <pt x="391" y="657" on="0"/>
      </contour>
    </TTGlyph>
    <TTGlyph name="D" xMin="15" yMin="-9" xMax="755" yMax="753">
      <contour>
        <pt x="15" y="185" on="0"/>
        <pt x="47" y="185" on="0"/>
        <pt x="130" y="163" on="1"/>
        <pt x="149" y="327" on="0"/>
        <pt x="237" y="519" on="1"/>
        <pt x="268" y="589" on="0"/>
        <pt x="311" y="589" on="1"/>
        <pt x="319" y="589" on="0"/>
        <pt x="334" y="555" on="0"/>
        <pt x="334" y="530" on="1"/>
        <pt x="334" y="500" on="0"/>
        <pt x="271" y="230" on="0"/>
        <pt x="261" y="130" on="1"/>
        <pt x="327" y="115" on="0"/>
        <pt x="428" y="115" on="0"/>
        <pt x="512" y="168" on="0"/>
        <pt x="542" y="210" on="1"/>
        <pt x="604" y="299" on="0"/>
        <pt x="604" y="424" on="1"/>
        <pt x="603" y="655" on="0"/>
        <pt x="420" y="655" on="1"/>
        <pt x="355" y="654" on="0"/>
        <pt x="190" y="597" on="1"/>
        <pt x="158" y="586" on="0"/>
        <pt x="110" y="586" on="0"/>
        <pt x="110" y="600" on="1"/>
        <pt x="110" y="619" on="0"/>
        <pt x="166" y="671" on="0"/>
        <pt x="210" y="695" on="1"/>
        <pt x="318" y="753" on="0"/>
        <pt x="420" y="753" on="1"/>
        <pt x="560" y="753" on="0"/>
        <pt x="650" y="678" on="1"/>
        <pt x="756" y="589" on="0"/>
        <pt x="755" y="408" on="1"/>
        <pt x="755" y="331" on="0"/>
        <pt x="707" y="181" on="0"/>
        <pt x="609" y="64" on="0"/>
        <pt x="459" y="-8" on="0"/>
        <pt x="357" y="-8" on="1"/>
        <pt x="316" y="-8" on="0"/>
        <pt x="253" y="10" on="1"/>
        <pt x="246" y="-9" on="0"/>
        <pt x="218" y="-9" on="1"/>
        <pt x="166" y="-9" on="0"/>
        <pt x="129" y="26" on="0"/>
        <pt x="126" y="66" on="1"/>
        <pt x="78" y="93" on="0"/>
        <pt x="15" y="151" on="0"/>
        <pt x="15" y="173" on="1"/>
      </contour>
    </TTGlyph>
    <TTGlyph name="E" xMin="40" yMin="-3" xMax="609" yMax="781">
      <contour>
        <pt x="328" y="446" on="1"/>
        <pt x="415" y="446" on="0"/>
        <pt x="415" y="402" on="1"/>
        <pt x="415" y="351" on="0"/>
        <pt x="315" y="351" on="1"/>
        <pt x="293" y="351" on="0"/>
        <pt x="267" y="359" on="1"/>
        <pt x="238" y="339" on="0"/>
        <pt x="207" y="279" on="0"/>
        <pt x="207" y="166" on="0"/>
        <pt x="296" y="112" on="0"/>
        <pt x="417" y="112" on="0"/>
        <pt x="492" y="151" on="0"/>
        <pt x="548" y="197" on="0"/>
        <pt x="583" y="236" on="0"/>
        <pt x="591" y="236" on="1"/>
        <pt x="599" y="236" on="0"/>
        <pt x="609" y="215" on="0"/>
        <pt x="609" y="198" on="1"/>
        <pt x="609" y="118" on="0"/>
        <pt x="432" y="-3" on="0"/>
        <pt x="309" y="-3" on="1"/>
        <pt x="117" y="-3" on="0"/>
        <pt x="60" y="108" on="1"/>
        <pt x="40" y="147" on="0"/>
        <pt x="40" y="202" on="1"/>
        <pt x="40" y="345" on="0"/>
        <pt x="183" y="402" on="1"/>
        <pt x="110" y="453" on="0"/>
        <pt x="110" y="556" on="1"/>
        <pt x="110" y="605" on="0"/>
        <pt x="137" y="647" on="1"/>
        <pt x="112" y="675" on="0"/>
        <pt x="81" y="737" on="0"/>
        <pt x="81" y="753" on="1"/>
        <pt x="81" y="781" on="0"/>
        <pt x="101" y="781" on="1"/>
        <pt x="115" y="781" on="0"/>
        <pt x="156" y="738" on="0"/>
        <pt x="182" y="712" on="0"/>
        <pt x="196" y="704" on="1"/>
        <pt x="281" y="756" on="0"/>
        <pt x="511" y="756" on="0"/>
        <pt x="549" y="692" on="1"/>
        <pt x="563" y="668" on="0"/>
        <pt x="563" y="633" on="1"/>
        <pt x="563" y="580" on="0"/>
        <pt x="471" y="508" on="0"/>
        <pt x="321" y="508" on="0"/>
        <pt x="256" y="556" on="1"/>
        <pt x="255" y="552" on="0"/>
        <pt x="255" y="548" on="1"/>
        <pt x="255" y="526" on="1"/>
        <pt x="255" y="508" on="0"/>
        <pt x="278" y="459" on="0"/>
        <pt x="295" y="443" on="1"/>
        <pt x="310" y="446" on="0"/>
      </contour>
      <contour>
        <pt x="452" y="618" on="1"/>
        <pt x="452" y="657" on="0"/>
        <pt x="324" y="657" on="0"/>
        <pt x="285" y="618" on="1"/>
        <pt x="339" y="585" on="0"/>
        <pt x="452" y="585" on="0"/>
      </contour>
    </TTGlyph>
    <TTGlyph name="Eacute" xMin="40" yMin="-3" xMax="687" yMax="1012">
      <contour>
        <pt x="328" y="446" on="1"/>
        <pt x="415" y="446" on="0"/>
        <pt x="415" y="402" on="1"/>
        <pt x="415" y="351" on="0"/>
        <pt x="315" y="351" on="1"/>
        <pt x="293" y="351" on="0"/>
        <pt x="267" y="359" on="1"/>
        <pt x="238" y="339" on="0"/>
        <pt x="207" y="279" on="0"/>
        <pt x="207" y="166" on="0"/>
        <pt x="296" y="112" on="0"/>
        <pt x="417" y="112" on="0"/>
        <pt x="492" y="151" on="0"/>
        <pt x="548" y="197" on="0"/>
        <pt x="583" y="236" on="0"/>
        <pt x="591" y="236" on="1"/>
        <pt x="599" y="236" on="0"/>
        <pt x="609" y="215" on="0"/>
        <pt x="609" y="198" on="1"/>
        <pt x="609" y="118" on="0"/>
        <pt x="432" y="-3" on="0"/>
        <pt x="309" y="-3" on="1"/>
        <pt x="117" y="-3" on="0"/>
        <pt x="60" y="108" on="1"/>
        <pt x="40" y="147" on="0"/>
        <pt x="40" y="202" on="1"/>
        <pt x="40" y="345" on="0"/>
        <pt x="183" y="402" on="1"/>
        <pt x="110" y="453" on="0"/>
        <pt x="110" y="556" on="1"/>
        <pt x="110" y="605" on="0"/>
        <pt x="137" y="647" on="1"/>
        <pt x="112" y="675" on="0"/>
        <pt x="81" y="737" on="0"/>
        <pt x="81" y="753" on="1"/>
        <pt x="81" y="781" on="0"/>
        <pt x="101" y="781" on="1"/>
        <pt x="115" y="781" on="0"/>
        <pt x="156" y="738" on="0"/>
        <pt x="182" y="712" on="0"/>
        <pt x="196" y="704" on="1"/>
        <pt x="281" y="756" on="0"/>
        <pt x="511" y="756" on="0"/>
        <pt x="549" y="692" on="1"/>
        <pt x="563" y="668" on="0"/>
        <pt x="563" y="633" on="1"/>
        <pt x="563" y="580" on="0"/>
        <pt x="471" y="508" on="0"/>
        <pt x="321" y="508" on="0"/>
        <pt x="256" y="556" on="1"/>
        <pt x="255" y="552" on="0"/>
        <pt x="255" y="548" on="1"/>
        <pt x="255" y="526" on="1"/>
        <pt x="255" y="508" on="0"/>
        <pt x="278" y="459" on="0"/>
        <pt x="295" y="443" on="1"/>
        <pt x="310" y="446" on="0"/>
      </contour>
      <contour>
        <pt x="639" y="1012" on="1"/>
        <pt x="687" y="1012" on="0"/>
        <pt x="687" y="996" on="1"/>
        <pt x="687" y="983" on="0"/>
        <pt x="665" y="954" on="1"/>
        <pt x="612" y="886" on="0"/>
        <pt x="500" y="826" on="0"/>
        <pt x="404" y="825" on="1"/>
        <pt x="364" y="825" on="0"/>
        <pt x="364" y="844" on="1"/>
        <pt x="364" y="860" on="0"/>
        <pt x="394" y="869" on="1"/>
        <pt x="464" y="891" on="0"/>
        <pt x="523" y="930" on="0"/>
        <pt x="556" y="965" on="0"/>
        <pt x="572" y="989" on="1"/>
        <pt x="580" y="1000" on="0"/>
        <pt x="619" y="1012" on="0"/>
      </contour>
      <contour>
        <pt x="452" y="618" on="1"/>
        <pt x="452" y="657" on="0"/>
        <pt x="324" y="657" on="0"/>
        <pt x="285" y="618" on="1"/>
        <pt x="339" y="585" on="0"/>
        <pt x="452" y="585" on="0"/>
      </contour>
    </TTGlyph>
    <TTGlyph name="Ecircumflex" xMin="40" yMin="-3" xMax="645" yMax="1022">
      <contour>
        <pt x="328" y="446" on="1"/>
        <pt x="415" y="446" on="0"/>
        <pt x="415" y="402" on="1"/>
        <pt x="415" y="351" on="0"/>
        <pt x="315" y="351" on="1"/>
        <pt x="293" y="351" on="0"/>
        <pt x="267" y="359" on="1"/>
        <pt x="238" y="339" on="0"/>
        <pt x="207" y="279" on="0"/>
        <pt x="207" y="166" on="0"/>
        <pt x="296" y="112" on="0"/>
        <pt x="417" y="112" on="0"/>
        <pt x="492" y="151" on="0"/>
        <pt x="548" y="197" on="0"/>
        <pt x="583" y="236" on="0"/>
        <pt x="591" y="236" on="1"/>
        <pt x="599" y="236" on="0"/>
        <pt x="609" y="215" on="0"/>
        <pt x="609" y="198" on="1"/>
        <pt x="609" y="118" on="0"/>
        <pt x="432" y="-3" on="0"/>
        <pt x="309" y="-3" on="1"/>
        <pt x="117" y="-3" on="0"/>
        <pt x="60" y="108" on="1"/>
        <pt x="40" y="147" on="0"/>
        <pt x="40" y="202" on="1"/>
        <pt x="40" y="345" on="0"/>
        <pt x="183" y="402" on="1"/>
        <pt x="110" y="453" on="0"/>
        <pt x="110" y="556" on="1"/>
        <pt x="110" y="605" on="0"/>
        <pt x="137" y="647" on="1"/>
        <pt x="112" y="675" on="0"/>
        <pt x="81" y="737" on="0"/>
        <pt x="81" y="753" on="1"/>
        <pt x="81" y="781" on="0"/>
        <pt x="101" y="781" on="1"/>
        <pt x="115" y="781" on="0"/>
        <pt x="156" y="738" on="0"/>
        <pt x="182" y="712" on="0"/>
        <pt x="196" y="704" on="1"/>
        <pt x="281" y="756" on="0"/>
        <pt x="511" y="756" on="0"/>
        <pt x="549" y="692" on="1"/>
        <pt x="563" y="668" on="0"/>
        <pt x="563" y="633" on="1"/>
        <pt x="563" y="580" on="0"/>
        <pt x="471" y="508" on="0"/>
        <pt x="321" y="508" on="0"/>
        <pt x="256" y="556" on="1"/>
        <pt x="255" y="552" on="0"/>
        <pt x="255" y="548" on="1"/>
        <pt x="255" y="526" on="1"/>
        <pt x="255" y="508" on="0"/>
        <pt x="278" y="459" on="0"/>
        <pt x="295" y="443" on="1"/>
        <pt x="310" y="446" on="0"/>
      </contour>
      <contour>
        <pt x="191" y="860" on="1"/>
        <pt x="191" y="872" on="0"/>
        <pt x="222" y="899" on="0"/>
        <pt x="255" y="925" on="0"/>
        <pt x="272" y="937" on="1"/>
        <pt x="317" y="970" on="0"/>
        <pt x="340" y="988" on="1"/>
        <pt x="385" y="1022" on="0"/>
        <pt x="428" y="1022" on="1"/>
        <pt x="445" y="1022" on="0"/>
        <pt x="466" y="1010" on="1"/>
        <pt x="533" y="970" on="0"/>
        <pt x="598" y="919" on="0"/>
        <pt x="639" y="873" on="1"/>
        <pt x="645" y="867" on="0"/>
        <pt x="645" y="860" on="1"/>
        <pt x="645" y="844" on="0"/>
        <pt x="612" y="827" on="1"/>
        <pt x="565" y="811" on="0"/>
        <pt x="554" y="811" on="1"/>
        <pt x="553" y="811" on="1"/>
        <pt x="527" y="811" on="0"/>
        <pt x="497" y="840" on="0"/>
        <pt x="482" y="855" on="1"/>
        <pt x="437" y="898" on="0"/>
        <pt x="388" y="929" on="1"/>
        <pt x="342" y="893" on="0"/>
        <pt x="318" y="872" on="1"/>
        <pt x="280" y="838" on="0"/>
        <pt x="191" y="838" on="0"/>
      </contour>
      <contour>
        <pt x="452" y="618" on="1"/>
        <pt x="452" y="657" on="0"/>
        <pt x="324" y="657" on="0"/>
        <pt x="285" y="618" on="1"/>
        <pt x="339" y="585" on="0"/>
        <pt x="452" y="585" on="0"/>
      </contour>
    </TTGlyph>
    <TTGlyph name="Edieresis" xMin="40" yMin="-3" xMax="609" yMax="1001">
      <contour>
        <pt x="328" y="446" on="1"/>
        <pt x="415" y="446" on="0"/>
        <pt x="415" y="402" on="1"/>
        <pt x="415" y="351" on="0"/>
        <pt x="315" y="351" on="1"/>
        <pt x="293" y="351" on="0"/>
        <pt x="267" y="359" on="1"/>
        <pt x="238" y="339" on="0"/>
        <pt x="207" y="279" on="0"/>
        <pt x="207" y="166" on="0"/>
        <pt x="296" y="112" on="0"/>
        <pt x="417" y="112" on="0"/>
        <pt x="492" y="151" on="0"/>
        <pt x="548" y="197" on="0"/>
        <pt x="583" y="236" on="0"/>
        <pt x="591" y="236" on="1"/>
        <pt x="599" y="236" on="0"/>
        <pt x="609" y="215" on="0"/>
        <pt x="609" y="198" on="1"/>
        <pt x="609" y="118" on="0"/>
        <pt x="432" y="-3" on="0"/>
        <pt x="309" y="-3" on="1"/>
        <pt x="117" y="-3" on="0"/>
        <pt x="60" y="108" on="1"/>
        <pt x="40" y="147" on="0"/>
        <pt x="40" y="202" on="1"/>
        <pt x="40" y="345" on="0"/>
        <pt x="183" y="402" on="1"/>
        <pt x="110" y="453" on="0"/>
        <pt x="110" y="556" on="1"/>
        <pt x="110" y="605" on="0"/>
        <pt x="137" y="647" on="1"/>
        <pt x="112" y="675" on="0"/>
        <pt x="81" y="737" on="0"/>
        <pt x="81" y="753" on="1"/>
        <pt x="81" y="781" on="0"/>
        <pt x="101" y="781" on="1"/>
        <pt x="115" y="781" on="0"/>
        <pt x="156" y="738" on="0"/>
        <pt x="182" y="712" on="0"/>
        <pt x="196" y="704" on="1"/>
        <pt x="281" y="756" on="0"/>
        <pt x="511" y="756" on="0"/>
        <pt x="549" y="692" on="1"/>
        <pt x="563" y="668" on="0"/>
        <pt x="563" y="633" on="1"/>
        <pt x="563" y="580" on="0"/>
        <pt x="471" y="508" on="0"/>
        <pt x="321" y="508" on="0"/>
        <pt x="256" y="556" on="1"/>
        <pt x="255" y="552" on="0"/>
        <pt x="255" y="548" on="1"/>
        <pt x="255" y="526" on="1"/>
        <pt x="255" y="508" on="0"/>
        <pt x="278" y="459" on="0"/>
        <pt x="295" y="443" on="1"/>
        <pt x="310" y="446" on="0"/>
      </contour>
      <contour>
        <pt x="363" y="892" on="0"/>
        <pt x="297" y="847" on="0"/>
        <pt x="219" y="847" on="0"/>
        <pt x="218" y="932" on="0"/>
        <pt x="274" y="1000" on="0"/>
        <pt x="308" y="1001" on="1"/>
        <pt x="347" y="1001" on="0"/>
        <pt x="379" y="930" on="1"/>
      </contour>
      <contour>
        <pt x="573" y="959" on="1"/>
        <pt x="530" y="847" on="0"/>
        <pt x="469" y="847" on="1"/>
        <pt x="446" y="847" on="0"/>
        <pt x="419" y="876" on="0"/>
        <pt x="419" y="894" on="1"/>
        <pt x="419" y="939" on="0"/>
        <pt x="461" y="992" on="0"/>
        <pt x="490" y="992" on="1"/>
        <pt x="546" y="992" on="0"/>
      </contour>
      <contour>
        <pt x="452" y="618" on="1"/>
        <pt x="452" y="657" on="0"/>
        <pt x="324" y="657" on="0"/>
        <pt x="285" y="618" on="1"/>
        <pt x="339" y="585" on="0"/>
        <pt x="452" y="585" on="0"/>
      </contour>
    </TTGlyph>
    <TTGlyph name="Egrave" xMin="40" yMin="-3" xMax="609" yMax="1012">
      <contour>
        <pt x="563" y="580" on="0"/>
        <pt x="471" y="508" on="0"/>
        <pt x="321" y="508" on="0"/>
        <pt x="256" y="556" on="1"/>
        <pt x="255" y="552" on="0"/>
        <pt x="255" y="548" on="1"/>
        <pt x="255" y="526" on="1"/>
        <pt x="255" y="508" on="0"/>
        <pt x="278" y="459" on="0"/>
        <pt x="295" y="443" on="1"/>
        <pt x="310" y="446" on="0"/>
        <pt x="336" y="446" on="1"/>
        <pt x="412" y="446" on="0"/>
        <pt x="415" y="404" on="1"/>
        <pt x="415" y="402" on="1"/>
        <pt x="415" y="351" on="0"/>
        <pt x="315" y="351" on="1"/>
        <pt x="293" y="351" on="0"/>
        <pt x="267" y="359" on="1"/>
        <pt x="238" y="339" on="0"/>
        <pt x="207" y="279" on="0"/>
        <pt x="207" y="166" on="0"/>
        <pt x="296" y="112" on="0"/>
        <pt x="417" y="112" on="0"/>
        <pt x="492" y="151" on="0"/>
        <pt x="548" y="197" on="0"/>
        <pt x="583" y="236" on="0"/>
        <pt x="591" y="236" on="1"/>
        <pt x="599" y="236" on="0"/>
        <pt x="609" y="215" on="0"/>
        <pt x="609" y="198" on="1"/>
        <pt x="609" y="118" on="0"/>
        <pt x="432" y="-3" on="0"/>
        <pt x="309" y="-3" on="1"/>
        <pt x="117" y="-3" on="0"/>
        <pt x="60" y="108" on="1"/>
        <pt x="40" y="147" on="0"/>
        <pt x="40" y="202" on="1"/>
        <pt x="40" y="345" on="0"/>
        <pt x="183" y="402" on="1"/>
        <pt x="110" y="453" on="0"/>
        <pt x="110" y="556" on="1"/>
        <pt x="110" y="605" on="0"/>
        <pt x="137" y="647" on="1"/>
        <pt x="112" y="675" on="0"/>
        <pt x="81" y="737" on="0"/>
        <pt x="81" y="753" on="1"/>
        <pt x="81" y="781" on="0"/>
        <pt x="101" y="781" on="1"/>
        <pt x="115" y="781" on="0"/>
        <pt x="156" y="738" on="0"/>
        <pt x="182" y="712" on="0"/>
        <pt x="196" y="704" on="1"/>
        <pt x="281" y="756" on="0"/>
        <pt x="511" y="756" on="0"/>
        <pt x="549" y="692" on="1"/>
        <pt x="563" y="668" on="0"/>
        <pt x="563" y="633" on="1"/>
      </contour>
      <contour>
        <pt x="425" y="856" on="1"/>
        <pt x="425" y="840" on="0"/>
        <pt x="366" y="832" on="1"/>
        <pt x="352" y="830" on="0"/>
        <pt x="312" y="830" on="0"/>
        <pt x="223" y="848" on="0"/>
        <pt x="138" y="884" on="0"/>
        <pt x="77" y="938" on="0"/>
        <pt x="77" y="975" on="1"/>
        <pt x="76" y="990" on="0"/>
        <pt x="135" y="1012" on="0"/>
        <pt x="189" y="1012" on="0"/>
        <pt x="201" y="997" on="1"/>
        <pt x="239" y="945" on="0"/>
        <pt x="339" y="888" on="0"/>
        <pt x="405" y="869" on="1"/>
        <pt x="425" y="863" on="0"/>
      </contour>
      <contour>
        <pt x="452" y="618" on="1"/>
        <pt x="452" y="657" on="0"/>
        <pt x="324" y="657" on="0"/>
        <pt x="285" y="618" on="1"/>
        <pt x="339" y="585" on="0"/>
        <pt x="452" y="585" on="0"/>
      </contour>
    </TTGlyph>
    <TTGlyph name="Eth" xMin="-10" yMin="-9" xMax="730" yMax="753">
      <contour>
        <pt x="11" y="325" on="1"/>
        <pt x="11" y="406" on="0"/>
        <pt x="148" y="406" on="1"/>
        <pt x="166" y="406" on="1"/>
        <pt x="211" y="528" on="0"/>
        <pt x="241" y="566" on="1"/>
        <pt x="259" y="588" on="0"/>
        <pt x="286" y="589" on="1"/>
        <pt x="294" y="589" on="0"/>
        <pt x="309" y="555" on="0"/>
        <pt x="309" y="503" on="0"/>
        <pt x="287" y="405" on="1"/>
        <pt x="426" y="403" on="1"/>
        <pt x="426" y="403" on="0"/>
        <pt x="447" y="403" on="1"/>
        <pt x="459" y="403" on="0"/>
        <pt x="459" y="390" on="1"/>
        <pt x="459" y="370" on="0"/>
        <pt x="409" y="311" on="0"/>
        <pt x="392" y="311" on="1"/>
        <pt x="357" y="311" on="0"/>
        <pt x="267" y="317" on="1"/>
        <pt x="244" y="208" on="0"/>
        <pt x="236" y="130" on="1"/>
        <pt x="302" y="115" on="0"/>
        <pt x="403" y="115" on="0"/>
        <pt x="486" y="168" on="0"/>
        <pt x="516" y="210" on="1"/>
        <pt x="578" y="299" on="0"/>
        <pt x="578" y="424" on="1"/>
        <pt x="578" y="655" on="0"/>
        <pt x="395" y="655" on="1"/>
        <pt x="330" y="654" on="0"/>
        <pt x="165" y="597" on="1"/>
        <pt x="133" y="586" on="0"/>
        <pt x="85" y="586" on="0"/>
        <pt x="85" y="600" on="1"/>
        <pt x="85" y="619" on="0"/>
        <pt x="113" y="645" on="1"/>
        <pt x="142" y="671" on="0"/>
        <pt x="186" y="695" on="1"/>
        <pt x="294" y="753" on="0"/>
        <pt x="395" y="753" on="1"/>
        <pt x="534" y="753" on="0"/>
        <pt x="624" y="678" on="1"/>
        <pt x="730" y="589" on="0"/>
        <pt x="730" y="408" on="1"/>
        <pt x="730" y="331" on="0"/>
        <pt x="682" y="181" on="0"/>
        <pt x="584" y="64" on="0"/>
        <pt x="434" y="-8" on="0"/>
        <pt x="332" y="-8" on="1"/>
        <pt x="291" y="-8" on="0"/>
        <pt x="228" y="10" on="1"/>
        <pt x="221" y="-9" on="0"/>
        <pt x="192" y="-9" on="1"/>
        <pt x="140" y="-9" on="0"/>
        <pt x="103" y="26" on="0"/>
        <pt x="101" y="66" on="1"/>
        <pt x="53" y="93" on="0"/>
        <pt x="-10" y="151" on="0"/>
        <pt x="-10" y="173" on="1"/>
        <pt x="-10" y="185" on="0"/>
        <pt x="22" y="185" on="0"/>
        <pt x="105" y="163" on="1"/>
        <pt x="114" y="238" on="0"/>
        <pt x="137" y="317" on="1"/>
        <pt x="17" y="316" on="1"/>
        <pt x="11" y="316" on="0"/>
      </contour>
    </TTGlyph>
    <TTGlyph name="Euro" xMin="0" yMin="-8" xMax="693" yMax="756">
      <contour>
        <pt x="494" y="382" on="1"/>
        <pt x="283" y="387" on="1"/>
        <pt x="281" y="377" on="0"/>
        <pt x="278" y="358" on="0"/>
        <pt x="276" y="348" on="1"/>
        <pt x="499" y="348" on="1"/>
        <pt x="511" y="348" on="0"/>
        <pt x="511" y="336" on="1"/>
        <pt x="511" y="316" on="0"/>
        <pt x="461" y="262" on="0"/>
        <pt x="444" y="262" on="1"/>
        <pt x="396" y="262" on="0"/>
        <pt x="272" y="266" on="1"/>
        <pt x="282" y="104" on="0"/>
        <pt x="418" y="104" on="1"/>
        <pt x="508" y="104" on="0"/>
        <pt x="587" y="162" on="1"/>
        <pt x="613" y="181" on="0"/>
        <pt x="655" y="236" on="0"/>
        <pt x="684" y="236" on="0"/>
        <pt x="684" y="149" on="0"/>
        <pt x="635" y="72" on="0"/>
        <pt x="595" y="46" on="1"/>
        <pt x="513" y="-8" on="0"/>
        <pt x="401" y="-8" on="1"/>
        <pt x="265" y="-8" on="0"/>
        <pt x="115" y="128" on="0"/>
        <pt x="115" y="249" on="1"/>
        <pt x="115" y="267" on="1"/>
        <pt x="6" y="262" on="1"/>
        <pt x="0" y="262" on="0"/>
        <pt x="0" y="273" on="1"/>
        <pt x="0" y="300" on="0"/>
        <pt x="42" y="348" on="0"/>
        <pt x="68" y="348" on="1"/>
        <pt x="124" y="348" on="1"/>
        <pt x="128" y="366" on="0"/>
        <pt x="132" y="386" on="1"/>
        <pt x="56" y="382" on="1"/>
        <pt x="50" y="382" on="0"/>
        <pt x="50" y="393" on="1"/>
        <pt x="50" y="420" on="0"/>
        <pt x="92" y="468" on="0"/>
        <pt x="118" y="468" on="1"/>
        <pt x="157" y="468" on="1"/>
        <pt x="238" y="667" on="0"/>
        <pt x="399" y="733" on="1"/>
        <pt x="455" y="756" on="0"/>
        <pt x="601" y="756" on="0"/>
        <pt x="693" y="677" on="0"/>
        <pt x="693" y="601" on="1"/>
        <pt x="693" y="584" on="0"/>
        <pt x="683" y="563" on="0"/>
        <pt x="676" y="563" on="1"/>
        <pt x="659" y="564" on="0"/>
        <pt x="639" y="592" on="1"/>
        <pt x="593" y="658" on="0"/>
        <pt x="513" y="657" on="1"/>
        <pt x="388" y="657" on="0"/>
        <pt x="308" y="468" on="1"/>
        <pt x="549" y="468" on="1"/>
        <pt x="561" y="468" on="0"/>
        <pt x="561" y="456" on="1"/>
        <pt x="561" y="436" on="0"/>
        <pt x="511" y="382" on="0"/>
      </contour>
    </TTGlyph>
    <TTGlyph name="F" xMin="15" yMin="-15" xMax="700" yMax="749">
      <contour>
        <pt x="146" y="329" on="1"/>
        <pt x="88" y="321" on="0"/>
        <pt x="50" y="321" on="1"/>
        <pt x="37" y="321" on="0"/>
        <pt x="37" y="331" on="1"/>
        <pt x="37" y="354" on="0"/>
        <pt x="100" y="405" on="0"/>
        <pt x="171" y="424" on="1"/>
        <pt x="203" y="538" on="0"/>
        <pt x="244" y="633" on="1"/>
        <pt x="144" y="628" on="0"/>
        <pt x="80" y="567" on="1"/>
        <pt x="64" y="551" on="0"/>
        <pt x="44" y="533" on="0"/>
        <pt x="29" y="533" on="0"/>
        <pt x="15" y="557" on="0"/>
        <pt x="15" y="577" on="1"/>
        <pt x="16" y="654" on="0"/>
        <pt x="222" y="750" on="0"/>
        <pt x="373" y="749" on="1"/>
        <pt x="673" y="744" on="1"/>
        <pt x="700" y="744" on="0"/>
        <pt x="700" y="723" on="1"/>
        <pt x="700" y="717" on="0"/>
        <pt x="684" y="686" on="0"/>
        <pt x="678" y="668" on="1"/>
        <pt x="665" y="632" on="0"/>
        <pt x="622" y="632" on="1"/>
        <pt x="590" y="632" on="1"/>
        <pt x="457" y="633" on="1"/>
        <pt x="380" y="633" on="1"/>
        <pt x="372" y="576" on="0"/>
        <pt x="332" y="447" on="1"/>
        <pt x="515" y="444" on="1"/>
        <pt x="531" y="444" on="0"/>
        <pt x="531" y="425" on="1"/>
        <pt x="531" y="419" on="0"/>
        <pt x="521" y="389" on="0"/>
        <pt x="517" y="373" on="1"/>
        <pt x="509" y="340" on="0"/>
        <pt x="483" y="340" on="1"/>
        <pt x="331" y="347" on="1"/>
        <pt x="318" y="347" on="1"/>
        <pt x="312" y="347" on="0"/>
        <pt x="304" y="346" on="1"/>
        <pt x="252" y="155" on="0"/>
        <pt x="252" y="44" on="1"/>
        <pt x="252" y="-15" on="0"/>
        <pt x="137" y="-15" on="1"/>
        <pt x="112" y="-15" on="0"/>
        <pt x="103" y="36" on="0"/>
        <pt x="103" y="78" on="1"/>
        <pt x="103" y="168" on="0"/>
      </contour>
    </TTGlyph>
    <TTGlyph name="G" xMin="60" yMin="-274" xMax="752" yMax="756">
      <contour>
        <pt x="257" y="471" on="1"/>
        <pt x="217" y="373" on="0"/>
        <pt x="217" y="204" on="0"/>
        <pt x="286" y="124" on="0"/>
        <pt x="363" y="124" on="1"/>
        <pt x="409" y="124" on="0"/>
        <pt x="444" y="157" on="1"/>
        <pt x="455" y="239" on="0"/>
        <pt x="462" y="266" on="1"/>
        <pt x="479" y="332" on="0"/>
        <pt x="514" y="332" on="1"/>
        <pt x="542" y="332" on="0"/>
        <pt x="592" y="255" on="0"/>
        <pt x="591" y="228" on="1"/>
        <pt x="591" y="183" on="0"/>
        <pt x="555" y="61" on="1"/>
        <pt x="625" y="114" on="0"/>
        <pt x="716" y="218" on="1"/>
        <pt x="729" y="233" on="0"/>
        <pt x="738" y="233" on="1"/>
        <pt x="752" y="233" on="0"/>
        <pt x="752" y="200" on="1"/>
        <pt x="752" y="136" on="0"/>
        <pt x="624" y="-9" on="0"/>
        <pt x="518" y="-52" on="1"/>
        <pt x="510" y="-71" on="0"/>
        <pt x="500" y="-105" on="0"/>
        <pt x="484" y="-153" on="0"/>
        <pt x="444" y="-210" on="0"/>
        <pt x="414" y="-230" on="1"/>
        <pt x="350" y="-274" on="0"/>
        <pt x="185" y="-274" on="0"/>
        <pt x="74" y="-201" on="0"/>
        <pt x="74" y="-137" on="1"/>
        <pt x="74" y="-106" on="0"/>
        <pt x="134" y="-66" on="0"/>
        <pt x="230" y="-37" on="0"/>
        <pt x="350" y="-15" on="0"/>
        <pt x="410" y="-1" on="1"/>
        <pt x="418" y="22" on="0"/>
        <pt x="422" y="42" on="1"/>
        <pt x="383" y="12" on="0"/>
        <pt x="326" y="12" on="1"/>
        <pt x="207" y="12" on="0"/>
        <pt x="139" y="61" on="1"/>
        <pt x="60" y="118" on="0"/>
        <pt x="60" y="239" on="1"/>
        <pt x="60" y="397" on="0"/>
        <pt x="140" y="539" on="1"/>
        <pt x="116" y="567" on="0"/>
        <pt x="86" y="628" on="0"/>
        <pt x="86" y="644" on="1"/>
        <pt x="86" y="672" on="0"/>
        <pt x="106" y="671" on="1"/>
        <pt x="119" y="671" on="0"/>
        <pt x="153" y="639" on="0"/>
        <pt x="174" y="617" on="0"/>
        <pt x="186" y="608" on="1"/>
        <pt x="238" y="674" on="0"/>
        <pt x="378" y="756" on="0"/>
        <pt x="546" y="756" on="0"/>
        <pt x="640" y="694" on="0"/>
        <pt x="640" y="540" on="0"/>
        <pt x="521" y="438" on="0"/>
        <pt x="415" y="438" on="1"/>
        <pt x="342" y="438" on="0"/>
      </contour>
      <contour>
        <pt x="290" y="539" on="1"/>
        <pt x="345" y="515" on="0"/>
        <pt x="423" y="515" on="1"/>
        <pt x="471" y="515" on="0"/>
        <pt x="529" y="567" on="0"/>
        <pt x="529" y="628" on="0"/>
        <pt x="490" y="657" on="0"/>
        <pt x="458" y="657" on="1"/>
        <pt x="362" y="657" on="0"/>
      </contour>
      <contour>
        <pt x="256" y="-197" on="1"/>
        <pt x="324" y="-197" on="0"/>
        <pt x="375" y="-95" on="1"/>
        <pt x="320" y="-109" on="0"/>
        <pt x="244" y="-125" on="0"/>
        <pt x="197" y="-137" on="0"/>
        <pt x="176" y="-149" on="0"/>
        <pt x="176" y="-160" on="1"/>
        <pt x="176" y="-179" on="0"/>
        <pt x="227" y="-196" on="0"/>
      </contour>
    </TTGlyph>
    <TTGlyph name="H" xMin="15" yMin="-15" xMax="711" yMax="749">
      <contour>
        <pt x="326" y="417" on="1"/>
        <pt x="432" y="417" on="0"/>
        <pt x="522" y="415" on="1"/>
        <pt x="569" y="605" on="0"/>
        <pt x="614" y="679" on="1"/>
        <pt x="644" y="722" on="0"/>
        <pt x="674" y="741" on="1"/>
        <pt x="686" y="749" on="0"/>
        <pt x="711" y="749" on="0"/>
        <pt x="711" y="671" on="0"/>
        <pt x="698" y="585" on="0"/>
        <pt x="688" y="529" on="1"/>
        <pt x="655" y="345" on="0"/>
        <pt x="622" y="125" on="0"/>
        <pt x="622" y="23" on="1"/>
        <pt x="622" y="-5" on="0"/>
        <pt x="582" y="-5" on="1"/>
        <pt x="519" y="-5" on="0"/>
        <pt x="473" y="44" on="0"/>
        <pt x="473" y="173" on="0"/>
        <pt x="499" y="312" on="1"/>
        <pt x="389" y="317" on="0"/>
        <pt x="360" y="317" on="1"/>
        <pt x="319" y="317" on="1"/>
        <pt x="308" y="317" on="0"/>
        <pt x="297" y="316" on="1"/>
        <pt x="252" y="144" on="0"/>
        <pt x="252" y="44" on="1"/>
        <pt x="252" y="-15" on="0"/>
        <pt x="137" y="-15" on="1"/>
        <pt x="112" y="-15" on="0"/>
        <pt x="103" y="36" on="0"/>
        <pt x="103" y="151" on="0"/>
        <pt x="139" y="300" on="1"/>
        <pt x="78" y="291" on="0"/>
        <pt x="50" y="291" on="1"/>
        <pt x="37" y="291" on="0"/>
        <pt x="37" y="301" on="1"/>
        <pt x="37" y="323" on="0"/>
        <pt x="102" y="379" on="0"/>
        <pt x="165" y="396" on="1"/>
        <pt x="202" y="524" on="0"/>
        <pt x="239" y="606" on="1"/>
        <pt x="131" y="604" on="0"/>
        <pt x="80" y="564" on="1"/>
        <pt x="64" y="552" on="0"/>
        <pt x="44" y="533" on="0"/>
        <pt x="29" y="533" on="0"/>
        <pt x="15" y="557" on="0"/>
        <pt x="15" y="577" on="1"/>
        <pt x="15" y="650" on="0"/>
        <pt x="138" y="688" on="1"/>
        <pt x="236" y="718" on="0"/>
        <pt x="366" y="719" on="1"/>
        <pt x="368" y="719" on="1"/>
        <pt x="375" y="719" on="0"/>
        <pt x="400" y="703" on="0"/>
        <pt x="400" y="667" on="0"/>
        <pt x="387" y="622" on="0"/>
        <pt x="376" y="611" on="1"/>
        <pt x="370" y="564" on="0"/>
      </contour>
    </TTGlyph>
    <TTGlyph name="I" xMin="65" yMin="-5" xMax="323" yMax="754">
      <contour>
        <pt x="214" y="23" on="1"/>
        <pt x="214" y="-5" on="0"/>
        <pt x="174" y="-5" on="1"/>
        <pt x="111" y="-5" on="0"/>
        <pt x="65" y="44" on="0"/>
        <pt x="65" y="102" on="1"/>
        <pt x="66" y="192" on="0"/>
        <pt x="163" y="588" on="0"/>
        <pt x="206" y="684" on="1"/>
        <pt x="217" y="709" on="0"/>
        <pt x="257" y="754" on="0"/>
        <pt x="290" y="754" on="1"/>
        <pt x="304" y="754" on="0"/>
        <pt x="323" y="720" on="0"/>
        <pt x="323" y="676" on="0"/>
        <pt x="307" y="589" on="0"/>
        <pt x="283" y="477" on="0"/>
        <pt x="268" y="412" on="1"/>
        <pt x="214" y="165" on="0"/>
      </contour>
    </TTGlyph>
    <TTGlyph name="Iacute" xMin="65" yMin="-5" xMax="593" yMax="1012">
      <contour>
        <pt x="214" y="23" on="1"/>
        <pt x="214" y="-5" on="0"/>
        <pt x="174" y="-5" on="1"/>
        <pt x="111" y="-5" on="0"/>
        <pt x="65" y="44" on="0"/>
        <pt x="65" y="102" on="1"/>
        <pt x="66" y="192" on="0"/>
        <pt x="163" y="588" on="0"/>
        <pt x="206" y="684" on="1"/>
        <pt x="217" y="709" on="0"/>
        <pt x="257" y="754" on="0"/>
        <pt x="290" y="754" on="1"/>
        <pt x="304" y="754" on="0"/>
        <pt x="323" y="720" on="0"/>
        <pt x="323" y="676" on="0"/>
        <pt x="307" y="589" on="0"/>
        <pt x="283" y="477" on="0"/>
        <pt x="268" y="412" on="1"/>
        <pt x="214" y="165" on="0"/>
      </contour>
      <contour>
        <pt x="545" y="1012" on="1"/>
        <pt x="593" y="1012" on="0"/>
        <pt x="593" y="996" on="1"/>
        <pt x="593" y="983" on="0"/>
        <pt x="571" y="954" on="1"/>
        <pt x="518" y="886" on="0"/>
        <pt x="406" y="826" on="0"/>
        <pt x="310" y="825" on="1"/>
        <pt x="270" y="825" on="0"/>
        <pt x="270" y="844" on="1"/>
        <pt x="270" y="860" on="0"/>
        <pt x="300" y="869" on="1"/>
        <pt x="370" y="891" on="0"/>
        <pt x="429" y="930" on="0"/>
        <pt x="462" y="965" on="0"/>
        <pt x="478" y="989" on="1"/>
        <pt x="486" y="1000" on="0"/>
        <pt x="525" y="1012" on="0"/>
      </contour>
    </TTGlyph>
    <TTGlyph name="Icircumflex" xMin="65" yMin="-5" xMax="551" yMax="1022">
      <contour>
        <pt x="214" y="23" on="1"/>
        <pt x="214" y="-5" on="0"/>
        <pt x="174" y="-5" on="1"/>
        <pt x="111" y="-5" on="0"/>
        <pt x="65" y="44" on="0"/>
        <pt x="65" y="102" on="1"/>
        <pt x="66" y="192" on="0"/>
        <pt x="163" y="588" on="0"/>
        <pt x="206" y="684" on="1"/>
        <pt x="217" y="709" on="0"/>
        <pt x="257" y="754" on="0"/>
        <pt x="290" y="754" on="1"/>
        <pt x="304" y="754" on="0"/>
        <pt x="323" y="720" on="0"/>
        <pt x="323" y="676" on="0"/>
        <pt x="307" y="589" on="0"/>
        <pt x="283" y="477" on="0"/>
        <pt x="268" y="412" on="1"/>
        <pt x="214" y="165" on="0"/>
      </contour>
      <contour>
        <pt x="97" y="860" on="1"/>
        <pt x="97" y="872" on="0"/>
        <pt x="128" y="899" on="0"/>
        <pt x="161" y="925" on="0"/>
        <pt x="178" y="937" on="1"/>
        <pt x="223" y="970" on="0"/>
        <pt x="246" y="988" on="1"/>
        <pt x="291" y="1022" on="0"/>
        <pt x="334" y="1022" on="1"/>
        <pt x="351" y="1022" on="0"/>
        <pt x="372" y="1010" on="1"/>
        <pt x="439" y="970" on="0"/>
        <pt x="504" y="919" on="0"/>
        <pt x="545" y="873" on="1"/>
        <pt x="551" y="867" on="0"/>
        <pt x="551" y="860" on="1"/>
        <pt x="551" y="844" on="0"/>
        <pt x="485" y="811" on="0"/>
        <pt x="433" y="811" on="0"/>
        <pt x="403" y="840" on="0"/>
        <pt x="388" y="855" on="1"/>
        <pt x="343" y="898" on="0"/>
        <pt x="294" y="929" on="1"/>
        <pt x="248" y="893" on="0"/>
        <pt x="224" y="872" on="1"/>
        <pt x="186" y="838" on="0"/>
        <pt x="97" y="838" on="0"/>
      </contour>
    </TTGlyph>
    <TTGlyph name="Idieresis" xMin="65" yMin="-5" xMax="479" yMax="1001">
      <contour>
        <pt x="214" y="23" on="1"/>
        <pt x="214" y="-5" on="0"/>
        <pt x="174" y="-5" on="1"/>
        <pt x="111" y="-5" on="0"/>
        <pt x="65" y="44" on="0"/>
        <pt x="65" y="102" on="1"/>
        <pt x="66" y="192" on="0"/>
        <pt x="163" y="588" on="0"/>
        <pt x="206" y="684" on="1"/>
        <pt x="217" y="709" on="0"/>
        <pt x="257" y="754" on="0"/>
        <pt x="290" y="754" on="1"/>
        <pt x="304" y="754" on="0"/>
        <pt x="323" y="720" on="0"/>
        <pt x="323" y="676" on="0"/>
        <pt x="307" y="589" on="0"/>
        <pt x="283" y="477" on="0"/>
        <pt x="268" y="412" on="1"/>
        <pt x="214" y="165" on="0"/>
      </contour>
      <contour>
        <pt x="269" y="892" on="0"/>
        <pt x="203" y="847" on="0"/>
        <pt x="125" y="847" on="0"/>
        <pt x="124" y="932" on="0"/>
        <pt x="180" y="1000" on="0"/>
        <pt x="214" y="1001" on="1"/>
        <pt x="253" y="1001" on="0"/>
        <pt x="285" y="930" on="1"/>
      </contour>
      <contour>
        <pt x="479" y="959" on="1"/>
        <pt x="436" y="847" on="0"/>
        <pt x="375" y="847" on="1"/>
        <pt x="352" y="847" on="0"/>
        <pt x="325" y="876" on="0"/>
        <pt x="325" y="894" on="1"/>
        <pt x="325" y="939" on="0"/>
        <pt x="367" y="992" on="0"/>
        <pt x="396" y="992" on="1"/>
        <pt x="452" y="992" on="0"/>
      </contour>
    </TTGlyph>
    <TTGlyph name="Igrave" xMin="-17" yMin="-5" xMax="331" yMax="1012">
      <contour>
        <pt x="214" y="23" on="1"/>
        <pt x="214" y="-5" on="0"/>
        <pt x="174" y="-5" on="1"/>
        <pt x="111" y="-5" on="0"/>
        <pt x="65" y="44" on="0"/>
        <pt x="65" y="102" on="1"/>
        <pt x="66" y="192" on="0"/>
        <pt x="163" y="588" on="0"/>
        <pt x="206" y="684" on="1"/>
        <pt x="217" y="709" on="0"/>
        <pt x="257" y="754" on="0"/>
        <pt x="290" y="754" on="1"/>
        <pt x="304" y="754" on="0"/>
        <pt x="323" y="720" on="0"/>
        <pt x="323" y="676" on="0"/>
        <pt x="307" y="589" on="0"/>
        <pt x="283" y="477" on="0"/>
        <pt x="268" y="412" on="1"/>
        <pt x="214" y="165" on="0"/>
      </contour>
      <contour>
        <pt x="331" y="856" on="1"/>
        <pt x="331" y="840" on="0"/>
        <pt x="272" y="832" on="1"/>
        <pt x="258" y="830" on="0"/>
        <pt x="218" y="830" on="0"/>
        <pt x="129" y="848" on="0"/>
        <pt x="44" y="884" on="0"/>
        <pt x="-17" y="938" on="0"/>
        <pt x="-17" y="975" on="1"/>
        <pt x="-18" y="990" on="0"/>
        <pt x="41" y="1012" on="0"/>
        <pt x="95" y="1012" on="0"/>
        <pt x="107" y="997" on="1"/>
        <pt x="145" y="945" on="0"/>
        <pt x="245" y="888" on="0"/>
        <pt x="311" y="869" on="1"/>
        <pt x="331" y="863" on="0"/>
      </contour>
    </TTGlyph>
    <TTGlyph name="J" xMin="-140" yMin="-274" xMax="555" yMax="729">
      <contour>
        <pt x="308" y="607" on="1"/>
        <pt x="267" y="632" on="0"/>
        <pt x="228" y="632" on="1"/>
        <pt x="165" y="632" on="0"/>
        <pt x="90" y="612" on="1"/>
        <pt x="36" y="599" on="1"/>
        <pt x="12" y="593" on="0"/>
        <pt x="-1" y="593" on="1"/>
        <pt x="-31" y="593" on="0"/>
        <pt x="-31" y="615" on="1"/>
        <pt x="-31" y="628" on="0"/>
        <pt x="12" y="667" on="0"/>
        <pt x="48" y="685" on="1"/>
        <pt x="137" y="729" on="0"/>
        <pt x="241" y="729" on="1"/>
        <pt x="390" y="729" on="0"/>
        <pt x="432" y="678" on="1"/>
        <pt x="444" y="664" on="0"/>
        <pt x="444" y="639" on="1"/>
        <pt x="442" y="542" on="0"/>
        <pt x="354" y="123" on="1"/>
        <pt x="472" y="171" on="0"/>
        <pt x="525" y="233" on="0"/>
        <pt x="555" y="233" on="0"/>
        <pt x="555" y="171" on="0"/>
        <pt x="518" y="125" on="0"/>
        <pt x="439" y="67" on="0"/>
        <pt x="334" y="22" on="1"/>
        <pt x="326" y="-18" on="0"/>
        <pt x="304" y="-67" on="1"/>
        <pt x="229" y="-274" on="0"/>
        <pt x="59" y="-274" on="1"/>
        <pt x="-24" y="-274" on="0"/>
        <pt x="-140" y="-202" on="0"/>
        <pt x="-140" y="-127" on="1"/>
        <pt x="-140" y="-100" on="0"/>
        <pt x="-85" y="-52" on="0"/>
        <pt x="20" y="1" on="0"/>
        <pt x="172" y="55" on="1"/>
        <pt x="178" y="90" on="0"/>
        <pt x="186" y="151" on="0"/>
        <pt x="191" y="173" on="1"/>
        <pt x="212" y="316" on="0"/>
        <pt x="274" y="510" on="1"/>
        <pt x="292" y="565" on="0"/>
      </contour>
      <contour>
        <pt x="22" y="-196" on="0"/>
        <pt x="76" y="-197" on="0"/>
        <pt x="104" y="-172" on="0"/>
        <pt x="137" y="-116" on="0"/>
        <pt x="153" y="-46" on="1"/>
        <pt x="101" y="-64" on="0"/>
        <pt x="28" y="-88" on="0"/>
        <pt x="-17" y="-108" on="0"/>
        <pt x="-38" y="-126" on="0"/>
        <pt x="-38" y="-139" on="1"/>
        <pt x="-38" y="-164" on="0"/>
      </contour>
    </TTGlyph>
    <TTGlyph name="K" xMin="10" yMin="-15" xMax="759" yMax="752">
      <contour>
        <pt x="248" y="44" on="1"/>
        <pt x="248" y="-15" on="0"/>
        <pt x="133" y="-15" on="1"/>
        <pt x="108" y="-15" on="0"/>
        <pt x="99" y="36" on="0"/>
        <pt x="99" y="80" on="1"/>
        <pt x="99" y="166" on="0"/>
        <pt x="189" y="504" on="0"/>
        <pt x="235" y="606" on="1"/>
        <pt x="128" y="604" on="0"/>
        <pt x="75" y="564" on="1"/>
        <pt x="59" y="552" on="0"/>
        <pt x="39" y="533" on="0"/>
        <pt x="24" y="533" on="0"/>
        <pt x="10" y="556" on="0"/>
        <pt x="10" y="572" on="1"/>
        <pt x="10" y="627" on="0"/>
        <pt x="59" y="657" on="1"/>
        <pt x="129" y="699" on="0"/>
        <pt x="258" y="713" on="1"/>
        <pt x="315" y="719" on="0"/>
        <pt x="362" y="719" on="1"/>
        <pt x="364" y="719" on="1"/>
        <pt x="371" y="719" on="0"/>
        <pt x="396" y="703" on="0"/>
        <pt x="396" y="667" on="0"/>
        <pt x="383" y="622" on="0"/>
        <pt x="372" y="611" on="1"/>
        <pt x="366" y="563" on="0"/>
        <pt x="326" y="429" on="0"/>
        <pt x="304" y="353" on="1"/>
        <pt x="248" y="157" on="0"/>
      </contour>
      <contour>
        <pt x="742" y="236" on="1"/>
        <pt x="759" y="236" on="0"/>
        <pt x="759" y="190" on="1"/>
        <pt x="759" y="165" on="0"/>
        <pt x="717" y="94" on="0"/>
        <pt x="650" y="35" on="0"/>
        <pt x="568" y="-3" on="0"/>
        <pt x="494" y="-3" on="0"/>
        <pt x="452" y="25" on="0"/>
        <pt x="440" y="49" on="1"/>
        <pt x="423" y="83" on="0"/>
        <pt x="401" y="274" on="0"/>
        <pt x="390" y="312" on="1"/>
        <pt x="364" y="317" on="0"/>
        <pt x="325" y="348" on="0"/>
        <pt x="325" y="393" on="0"/>
        <pt x="366" y="413" on="0"/>
        <pt x="418" y="413" on="0"/>
        <pt x="438" y="401" on="1"/>
        <pt x="492" y="459" on="0"/>
        <pt x="536" y="553" on="1"/>
        <pt x="556" y="596" on="0"/>
        <pt x="593" y="687" on="0"/>
        <pt x="613" y="735" on="1"/>
        <pt x="618" y="747" on="0"/>
        <pt x="651" y="752" on="0"/>
        <pt x="705" y="752" on="0"/>
        <pt x="727" y="717" on="0"/>
        <pt x="727" y="638" on="0"/>
        <pt x="685" y="536" on="0"/>
        <pt x="652" y="488" on="1"/>
        <pt x="583" y="387" on="0"/>
        <pt x="493" y="336" on="1"/>
        <pt x="509" y="303" on="0"/>
        <pt x="529" y="224" on="0"/>
        <pt x="547" y="157" on="0"/>
        <pt x="570" y="112" on="0"/>
        <pt x="604" y="112" on="0"/>
        <pt x="651" y="151" on="0"/>
        <pt x="697" y="197" on="0"/>
        <pt x="734" y="236" on="0"/>
      </contour>
    </TTGlyph>
    <TTGlyph name="L" xMin="10" yMin="-17" xMax="669" yMax="756">
      <contour>
        <pt x="654" y="236" on="1"/>
        <pt x="669" y="236" on="0"/>
        <pt x="669" y="202" on="1"/>
        <pt x="669" y="131" on="0"/>
        <pt x="537" y="-2" on="0"/>
        <pt x="442" y="-3" on="1"/>
        <pt x="375" y="-3" on="0"/>
        <pt x="287" y="50" on="1"/>
        <pt x="224" y="-17" on="0"/>
        <pt x="130" y="-17" on="1"/>
        <pt x="68" y="-17" on="0"/>
        <pt x="10" y="45" on="0"/>
        <pt x="10" y="147" on="0"/>
        <pt x="85" y="198" on="0"/>
        <pt x="143" y="198" on="1"/>
        <pt x="174" y="198" on="0"/>
        <pt x="201" y="195" on="1"/>
        <pt x="201" y="317" on="0"/>
        <pt x="228" y="433" on="1"/>
        <pt x="195" y="450" on="0"/>
        <pt x="148" y="492" on="0"/>
        <pt x="148" y="504" on="1"/>
        <pt x="148" y="536" on="0"/>
        <pt x="162" y="536" on="1"/>
        <pt x="182" y="536" on="0"/>
        <pt x="225" y="513" on="0"/>
        <pt x="250" y="507" on="1"/>
        <pt x="312" y="686" on="0"/>
        <pt x="420" y="738" on="1"/>
        <pt x="458" y="756" on="0"/>
        <pt x="500" y="756" on="1"/>
        <pt x="658" y="756" on="0"/>
        <pt x="658" y="623" on="1"/>
        <pt x="658" y="547" on="0"/>
        <pt x="601" y="492" on="1"/>
        <pt x="522" y="416" on="0"/>
        <pt x="361" y="412" on="1"/>
        <pt x="350" y="328" on="0"/>
        <pt x="350" y="213" on="1"/>
        <pt x="350" y="185" on="0"/>
        <pt x="343" y="150" on="1"/>
        <pt x="378" y="132" on="0"/>
        <pt x="444" y="102" on="0"/>
        <pt x="492" y="102" on="1"/>
        <pt x="517" y="102" on="0"/>
        <pt x="566" y="144" on="0"/>
        <pt x="609" y="194" on="0"/>
        <pt x="643" y="236" on="0"/>
      </contour>
      <contour>
        <pt x="498" y="658" on="1"/>
        <pt x="414" y="658" on="0"/>
        <pt x="376" y="498" on="1"/>
        <pt x="448" y="504" on="0"/>
        <pt x="547" y="573" on="0"/>
        <pt x="547" y="608" on="1"/>
        <pt x="547" y="658" on="0"/>
      </contour>
      <contour>
        <pt x="107" y="89" on="1"/>
        <pt x="108" y="61" on="0"/>
        <pt x="184" y="61" on="0"/>
        <pt x="194" y="105" on="1"/>
        <pt x="166" y="119" on="0"/>
        <pt x="148" y="119" on="1"/>
        <pt x="108" y="119" on="0"/>
      </contour>
    </TTGlyph>
    <TTGlyph name="M" xMin="0" yMin="-15" xMax="1031" yMax="752">
      <contour>
        <pt x="1014" y="236" on="1"/>
        <pt x="1031" y="236" on="0"/>
        <pt x="1031" y="190" on="1"/>
        <pt x="1031" y="165" on="0"/>
        <pt x="989" y="94" on="0"/>
        <pt x="922" y="35" on="0"/>
        <pt x="840" y="-3" on="0"/>
        <pt x="749" y="-3" on="0"/>
        <pt x="698" y="56" on="0"/>
        <pt x="698" y="129" on="0"/>
        <pt x="722" y="221" on="0"/>
        <pt x="736" y="271" on="1"/>
        <pt x="774" y="404" on="0"/>
        <pt x="775" y="458" on="1"/>
        <pt x="775" y="481" on="0"/>
        <pt x="763" y="506" on="0"/>
        <pt x="746" y="506" on="1"/>
        <pt x="716" y="506" on="0"/>
        <pt x="648" y="434" on="0"/>
        <pt x="618" y="378" on="1"/>
        <pt x="549" y="250" on="0"/>
        <pt x="545" y="128" on="1"/>
        <pt x="547" y="114" on="0"/>
        <pt x="551" y="86" on="0"/>
        <pt x="551" y="70" on="1"/>
        <pt x="551" y="38" on="0"/>
        <pt x="488" y="-15" on="0"/>
        <pt x="449" y="-15" on="1"/>
        <pt x="426" y="-15" on="0"/>
        <pt x="404" y="30" on="0"/>
        <pt x="404" y="63" on="1"/>
        <pt x="404" y="96" on="0"/>
        <pt x="434" y="210" on="0"/>
        <pt x="452" y="274" on="1"/>
        <pt x="500" y="443" on="0"/>
        <pt x="501" y="526" on="1"/>
        <pt x="501" y="568" on="0"/>
        <pt x="480" y="616" on="0"/>
        <pt x="450" y="616" on="1"/>
        <pt x="396" y="616" on="0"/>
        <pt x="290" y="462" on="0"/>
        <pt x="248" y="300" on="1"/>
        <pt x="237" y="258" on="0"/>
        <pt x="231" y="227" on="1"/>
        <pt x="230" y="208" on="1"/>
        <pt x="249" y="116" on="0"/>
        <pt x="249" y="88" on="1"/>
        <pt x="249" y="30" on="0"/>
        <pt x="208" y="10" on="1"/>
        <pt x="189" y="1" on="0"/>
        <pt x="154" y="-15" on="0"/>
        <pt x="134" y="-15" on="1"/>
        <pt x="84" y="-15" on="0"/>
        <pt x="84" y="176" on="0"/>
        <pt x="137" y="454" on="1"/>
        <pt x="156" y="554" on="0"/>
        <pt x="156" y="566" on="1"/>
        <pt x="156" y="647" on="0"/>
        <pt x="115" y="647" on="1"/>
        <pt x="101" y="647" on="0"/>
        <pt x="78" y="631" on="0"/>
        <pt x="55" y="613" on="0"/>
        <pt x="31" y="597" on="0"/>
        <pt x="0" y="597" on="0"/>
        <pt x="0" y="624" on="1"/>
        <pt x="0" y="679" on="0"/>
        <pt x="51" y="714" on="1"/>
        <pt x="100" y="750" on="0"/>
        <pt x="170" y="750" on="1"/>
        <pt x="260" y="750" on="0"/>
        <pt x="276" y="666" on="1"/>
        <pt x="280" y="641" on="0"/>
        <pt x="282" y="613" on="1"/>
        <pt x="356" y="752" on="0"/>
        <pt x="469" y="752" on="1"/>
        <pt x="592" y="752" on="0"/>
        <pt x="610" y="634" on="1"/>
        <pt x="616" y="600" on="0"/>
        <pt x="615" y="561" on="1"/>
        <pt x="615" y="553" on="1"/>
        <pt x="680" y="643" on="0"/>
        <pt x="769" y="643" on="1"/>
        <pt x="895" y="643" on="0"/>
        <pt x="895" y="491" on="1"/>
        <pt x="895" y="425" on="0"/>
        <pt x="854" y="248" on="0"/>
        <pt x="835" y="171" on="0"/>
        <pt x="835" y="150" on="1"/>
        <pt x="835" y="112" on="0"/>
        <pt x="888" y="112" on="0"/>
        <pt x="988" y="216" on="1"/>
        <pt x="1006" y="236" on="0"/>
      </contour>
    </TTGlyph>
    <TTGlyph name="N" xMin="0" yMin="-15" xMax="771" yMax="752">
      <contour>
        <pt x="578" y="164" on="1"/>
        <pt x="578" y="112" on="0"/>
        <pt x="601" y="112" on="1"/>
        <pt x="626" y="112" on="0"/>
        <pt x="688" y="174" on="1"/>
        <pt x="704" y="190" on="0"/>
        <pt x="740" y="236" on="0"/>
        <pt x="750" y="236" on="1"/>
        <pt x="770" y="236" on="0"/>
        <pt x="771" y="165" on="0"/>
        <pt x="729" y="94" on="0"/>
        <pt x="662" y="35" on="0"/>
        <pt x="580" y="-3" on="0"/>
        <pt x="541" y="-3" on="1"/>
        <pt x="482" y="-3" on="0"/>
        <pt x="437" y="56" on="0"/>
        <pt x="437" y="134" on="0"/>
        <pt x="444" y="172" on="1"/>
        <pt x="456" y="232" on="0"/>
        <pt x="514" y="404" on="1"/>
        <pt x="541" y="486" on="0"/>
        <pt x="541" y="568" on="0"/>
        <pt x="510" y="616" on="0"/>
        <pt x="447" y="616" on="0"/>
        <pt x="387" y="573" on="0"/>
        <pt x="361" y="538" on="1"/>
        <pt x="314" y="477" on="0"/>
        <pt x="241" y="280" on="0"/>
        <pt x="230" y="208" on="1"/>
        <pt x="249" y="116" on="0"/>
        <pt x="249" y="88" on="1"/>
        <pt x="249" y="30" on="0"/>
        <pt x="208" y="10" on="1"/>
        <pt x="189" y="1" on="0"/>
        <pt x="154" y="-15" on="0"/>
        <pt x="134" y="-15" on="1"/>
        <pt x="84" y="-15" on="0"/>
        <pt x="84" y="176" on="0"/>
        <pt x="137" y="454" on="1"/>
        <pt x="156" y="554" on="0"/>
        <pt x="156" y="566" on="1"/>
        <pt x="156" y="647" on="0"/>
        <pt x="115" y="647" on="1"/>
        <pt x="101" y="647" on="0"/>
        <pt x="78" y="631" on="0"/>
        <pt x="55" y="613" on="0"/>
        <pt x="31" y="597" on="0"/>
        <pt x="0" y="597" on="0"/>
        <pt x="0" y="624" on="1"/>
        <pt x="0" y="679" on="0"/>
        <pt x="51" y="714" on="1"/>
        <pt x="100" y="750" on="0"/>
        <pt x="170" y="750" on="1"/>
        <pt x="268" y="750" on="0"/>
        <pt x="280" y="654" on="1"/>
        <pt x="284" y="626" on="0"/>
        <pt x="283" y="593" on="1"/>
        <pt x="283" y="586" on="1"/>
        <pt x="321" y="659" on="0"/>
        <pt x="428" y="752" on="0"/>
        <pt x="499" y="752" on="1"/>
        <pt x="597" y="752" on="0"/>
        <pt x="641" y="700" on="1"/>
        <pt x="733" y="589" on="0"/>
        <pt x="632" y="334" on="1"/>
        <pt x="612" y="282" on="0"/>
        <pt x="578" y="194" on="0"/>
      </contour>
    </TTGlyph>
    <TTGlyph name="Ntilde" xMin="0" yMin="-15" xMax="775" yMax="1032">
      <contour>
        <pt x="295" y="878" on="1"/>
        <pt x="277" y="878" on="0"/>
        <pt x="274" y="903" on="1"/>
        <pt x="274" y="917" on="0"/>
        <pt x="293" y="938" on="1"/>
        <pt x="336" y="991" on="0"/>
        <pt x="428" y="1032" on="0"/>
        <pt x="492" y="1032" on="0"/>
        <pt x="542" y="998" on="0"/>
        <pt x="586" y="957" on="0"/>
        <pt x="628" y="923" on="0"/>
        <pt x="660" y="923" on="0"/>
        <pt x="674" y="935" on="0"/>
        <pt x="694" y="950" on="0"/>
        <pt x="721" y="963" on="0"/>
        <pt x="775" y="963" on="0"/>
        <pt x="775" y="945" on="1"/>
        <pt x="775" y="939" on="0"/>
        <pt x="772" y="937" on="1"/>
        <pt x="725" y="839" on="0"/>
        <pt x="621" y="839" on="1"/>
        <pt x="590" y="839" on="0"/>
        <pt x="542" y="871" on="0"/>
        <pt x="498" y="908" on="0"/>
        <pt x="454" y="940" on="0"/>
        <pt x="427" y="940" on="1"/>
        <pt x="409" y="940" on="0"/>
        <pt x="390" y="907" on="1"/>
        <pt x="376" y="886" on="0"/>
        <pt x="320" y="880" on="1"/>
        <pt x="306" y="878" on="0"/>
      </contour>
      <contour>
        <pt x="578" y="164" on="1"/>
        <pt x="578" y="112" on="0"/>
        <pt x="601" y="112" on="1"/>
        <pt x="626" y="112" on="0"/>
        <pt x="688" y="174" on="1"/>
        <pt x="704" y="190" on="0"/>
        <pt x="740" y="236" on="0"/>
        <pt x="750" y="236" on="1"/>
        <pt x="770" y="236" on="0"/>
        <pt x="771" y="165" on="0"/>
        <pt x="729" y="94" on="0"/>
        <pt x="662" y="35" on="0"/>
        <pt x="580" y="-3" on="0"/>
        <pt x="541" y="-3" on="1"/>
        <pt x="482" y="-3" on="0"/>
        <pt x="437" y="56" on="0"/>
        <pt x="437" y="134" on="0"/>
        <pt x="444" y="172" on="1"/>
        <pt x="456" y="232" on="0"/>
        <pt x="514" y="404" on="1"/>
        <pt x="541" y="486" on="0"/>
        <pt x="541" y="568" on="0"/>
        <pt x="510" y="616" on="0"/>
        <pt x="447" y="616" on="0"/>
        <pt x="387" y="573" on="0"/>
        <pt x="361" y="538" on="1"/>
        <pt x="314" y="477" on="0"/>
        <pt x="241" y="280" on="0"/>
        <pt x="230" y="208" on="1"/>
        <pt x="249" y="116" on="0"/>
        <pt x="249" y="88" on="1"/>
        <pt x="249" y="30" on="0"/>
        <pt x="208" y="10" on="1"/>
        <pt x="189" y="1" on="0"/>
        <pt x="154" y="-15" on="0"/>
        <pt x="134" y="-15" on="1"/>
        <pt x="84" y="-15" on="0"/>
        <pt x="84" y="176" on="0"/>
        <pt x="137" y="454" on="1"/>
        <pt x="156" y="554" on="0"/>
        <pt x="156" y="566" on="1"/>
        <pt x="156" y="647" on="0"/>
        <pt x="115" y="647" on="1"/>
        <pt x="101" y="647" on="0"/>
        <pt x="78" y="631" on="0"/>
        <pt x="55" y="613" on="0"/>
        <pt x="31" y="597" on="0"/>
        <pt x="0" y="597" on="0"/>
        <pt x="0" y="624" on="1"/>
        <pt x="0" y="679" on="0"/>
        <pt x="51" y="714" on="1"/>
        <pt x="100" y="750" on="0"/>
        <pt x="170" y="750" on="1"/>
        <pt x="268" y="750" on="0"/>
        <pt x="280" y="654" on="1"/>
        <pt x="284" y="626" on="0"/>
        <pt x="283" y="593" on="1"/>
        <pt x="283" y="586" on="1"/>
        <pt x="321" y="659" on="0"/>
        <pt x="428" y="752" on="0"/>
        <pt x="499" y="752" on="1"/>
        <pt x="597" y="752" on="0"/>
        <pt x="641" y="700" on="1"/>
        <pt x="733" y="589" on="0"/>
        <pt x="632" y="334" on="1"/>
        <pt x="612" y="282" on="0"/>
        <pt x="578" y="194" on="0"/>
      </contour>
    </TTGlyph>
    <TTGlyph name="O" xMin="70" yMin="-8" xMax="854" yMax="753">
      <contour>
        <pt x="697" y="650" on="1"/>
        <pt x="697" y="639" on="0"/>
        <pt x="667" y="639" on="1"/>
        <pt x="656" y="639" on="0"/>
        <pt x="620" y="645" on="0"/>
        <pt x="522" y="657" on="0"/>
        <pt x="411" y="657" on="0"/>
        <pt x="321" y="598" on="0"/>
        <pt x="260" y="506" on="0"/>
        <pt x="227" y="392" on="0"/>
        <pt x="227" y="337" on="1"/>
        <pt x="227" y="237" on="0"/>
        <pt x="319" y="125" on="0"/>
        <pt x="401" y="125" on="1"/>
        <pt x="549" y="125" on="0"/>
        <pt x="628" y="230" on="1"/>
        <pt x="652" y="262" on="0"/>
        <pt x="667" y="301" on="1"/>
        <pt x="594" y="310" on="0"/>
        <pt x="516" y="401" on="0"/>
        <pt x="516" y="534" on="0"/>
        <pt x="590" y="612" on="0"/>
        <pt x="715" y="612" on="0"/>
        <pt x="782" y="517" on="0"/>
        <pt x="782" y="445" on="1"/>
        <pt x="782" y="420" on="0"/>
        <pt x="780" y="398" on="1"/>
        <pt x="798" y="406" on="0"/>
        <pt x="822" y="424" on="0"/>
        <pt x="834" y="424" on="1"/>
        <pt x="854" y="424" on="0"/>
        <pt x="854" y="407" on="1"/>
        <pt x="854" y="372" on="0"/>
        <pt x="807" y="321" on="0"/>
        <pt x="768" y="308" on="1"/>
        <pt x="738" y="162" on="0"/>
        <pt x="543" y="-8" on="0"/>
        <pt x="233" y="-8" on="0"/>
        <pt x="146" y="86" on="1"/>
        <pt x="70" y="169" on="0"/>
        <pt x="70" y="299" on="1"/>
        <pt x="70" y="387" on="0"/>
        <pt x="127" y="551" on="0"/>
        <pt x="232" y="677" on="0"/>
        <pt x="382" y="753" on="0"/>
        <pt x="569" y="753" on="0"/>
        <pt x="697" y="687" on="0"/>
      </contour>
      <contour>
        <pt x="665" y="524" on="1"/>
        <pt x="644" y="524" on="0"/>
        <pt x="644" y="490" on="1"/>
        <pt x="644" y="430" on="0"/>
        <pt x="692" y="403" on="1"/>
        <pt x="695" y="430" on="0"/>
        <pt x="695" y="459" on="1"/>
        <pt x="695" y="524" on="0"/>
      </contour>
    </TTGlyph>
    <TTGlyph name="OE" xMin="70" yMin="-15" xMax="1170" yMax="753">
      <contour>
        <pt x="1144" y="128" on="1"/>
        <pt x="1144" y="-11" on="0"/>
        <pt x="864" y="-11" on="1"/>
        <pt x="690" y="-2" on="1"/>
        <pt x="662" y="-15" on="0"/>
        <pt x="607" y="-15" on="1"/>
        <pt x="584" y="-15" on="0"/>
        <pt x="573" y="28" on="0"/>
        <pt x="573" y="67" on="1"/>
        <pt x="490" y="-8" on="0"/>
        <pt x="398" y="-8" on="1"/>
        <pt x="233" y="-8" on="0"/>
        <pt x="146" y="86" on="1"/>
        <pt x="70" y="169" on="0"/>
        <pt x="70" y="299" on="1"/>
        <pt x="70" y="387" on="0"/>
        <pt x="127" y="551" on="0"/>
        <pt x="232" y="677" on="0"/>
        <pt x="382" y="753" on="0"/>
        <pt x="586" y="753" on="0"/>
        <pt x="651" y="683" on="1"/>
        <pt x="651" y="685" on="0"/>
        <pt x="652" y="686" on="1"/>
        <pt x="671" y="731" on="0"/>
        <pt x="775" y="731" on="0"/>
        <pt x="905" y="735" on="0"/>
        <pt x="1029" y="740" on="0"/>
        <pt x="1126" y="744" on="0"/>
        <pt x="1143" y="744" on="1"/>
        <pt x="1170" y="744" on="0"/>
        <pt x="1170" y="723" on="1"/>
        <pt x="1170" y="717" on="0"/>
        <pt x="1154" y="686" on="0"/>
        <pt x="1148" y="668" on="1"/>
        <pt x="1135" y="632" on="0"/>
        <pt x="1092" y="632" on="1"/>
        <pt x="1052" y="632" on="1"/>
        <pt x="801" y="634" on="1"/>
        <pt x="763" y="417" on="1"/>
        <pt x="1014" y="414" on="1"/>
        <pt x="1040" y="414" on="0"/>
        <pt x="1040" y="395" on="1"/>
        <pt x="1040" y="389" on="0"/>
        <pt x="1024" y="359" on="0"/>
        <pt x="1018" y="343" on="1"/>
        <pt x="1005" y="310" on="0"/>
        <pt x="965" y="310" on="1"/>
        <pt x="747" y="316" on="1"/>
        <pt x="728" y="179" on="0"/>
        <pt x="723" y="98" on="1"/>
        <pt x="861" y="104" on="0"/>
        <pt x="981" y="104" on="0"/>
        <pt x="1045" y="124" on="0"/>
        <pt x="1083" y="148" on="0"/>
        <pt x="1108" y="168" on="0"/>
        <pt x="1121" y="168" on="1"/>
        <pt x="1144" y="168" on="0"/>
      </contour>
      <contour>
        <pt x="576" y="184" on="1"/>
        <pt x="594" y="465" on="0"/>
        <pt x="627" y="607" on="1"/>
        <pt x="615" y="613" on="0"/>
        <pt x="600" y="622" on="1"/>
        <pt x="540" y="657" on="0"/>
        <pt x="411" y="657" on="0"/>
        <pt x="321" y="598" on="0"/>
        <pt x="260" y="506" on="0"/>
        <pt x="227" y="392" on="0"/>
        <pt x="227" y="337" on="1"/>
        <pt x="227" y="237" on="0"/>
        <pt x="319" y="125" on="0"/>
        <pt x="497" y="125" on="0"/>
      </contour>
    </TTGlyph>
    <TTGlyph name="Oacute" xMin="70" yMin="-8" xMax="854" yMax="1012">
      <contour>
        <pt x="697" y="650" on="1"/>
        <pt x="697" y="639" on="0"/>
        <pt x="667" y="639" on="1"/>
        <pt x="656" y="639" on="0"/>
        <pt x="620" y="645" on="0"/>
        <pt x="522" y="657" on="0"/>
        <pt x="411" y="657" on="0"/>
        <pt x="321" y="598" on="0"/>
        <pt x="260" y="506" on="0"/>
        <pt x="227" y="392" on="0"/>
        <pt x="227" y="337" on="1"/>
        <pt x="227" y="237" on="0"/>
        <pt x="319" y="125" on="0"/>
        <pt x="401" y="125" on="1"/>
        <pt x="549" y="125" on="0"/>
        <pt x="628" y="230" on="1"/>
        <pt x="652" y="262" on="0"/>
        <pt x="667" y="301" on="1"/>
        <pt x="594" y="310" on="0"/>
        <pt x="516" y="401" on="0"/>
        <pt x="516" y="534" on="0"/>
        <pt x="590" y="612" on="0"/>
        <pt x="715" y="612" on="0"/>
        <pt x="782" y="517" on="0"/>
        <pt x="782" y="445" on="1"/>
        <pt x="782" y="420" on="0"/>
        <pt x="780" y="398" on="1"/>
        <pt x="798" y="406" on="0"/>
        <pt x="822" y="424" on="0"/>
        <pt x="834" y="424" on="1"/>
        <pt x="854" y="424" on="0"/>
        <pt x="854" y="407" on="1"/>
        <pt x="854" y="372" on="0"/>
        <pt x="807" y="321" on="0"/>
        <pt x="768" y="308" on="1"/>
        <pt x="738" y="162" on="0"/>
        <pt x="543" y="-8" on="0"/>
        <pt x="233" y="-8" on="0"/>
        <pt x="146" y="86" on="1"/>
        <pt x="70" y="169" on="0"/>
        <pt x="70" y="299" on="1"/>
        <pt x="70" y="387" on="0"/>
        <pt x="127" y="551" on="0"/>
        <pt x="232" y="677" on="0"/>
        <pt x="382" y="753" on="0"/>
        <pt x="569" y="753" on="0"/>
        <pt x="697" y="687" on="0"/>
      </contour>
      <contour>
        <pt x="755" y="1012" on="1"/>
        <pt x="803" y="1012" on="0"/>
        <pt x="803" y="996" on="1"/>
        <pt x="803" y="983" on="0"/>
        <pt x="781" y="954" on="1"/>
        <pt x="728" y="886" on="0"/>
        <pt x="616" y="826" on="0"/>
        <pt x="520" y="825" on="1"/>
        <pt x="480" y="825" on="0"/>
        <pt x="480" y="844" on="1"/>
        <pt x="480" y="860" on="0"/>
        <pt x="510" y="869" on="1"/>
        <pt x="580" y="891" on="0"/>
        <pt x="639" y="930" on="0"/>
        <pt x="672" y="965" on="0"/>
        <pt x="688" y="989" on="1"/>
        <pt x="696" y="1000" on="0"/>
        <pt x="735" y="1012" on="0"/>
      </contour>
      <contour>
        <pt x="665" y="524" on="1"/>
        <pt x="644" y="524" on="0"/>
        <pt x="644" y="490" on="1"/>
        <pt x="644" y="430" on="0"/>
        <pt x="692" y="403" on="1"/>
        <pt x="695" y="430" on="0"/>
        <pt x="695" y="459" on="1"/>
        <pt x="695" y="524" on="0"/>
      </contour>
    </TTGlyph>
    <TTGlyph name="Ocircumflex" xMin="70" yMin="-8" xMax="854" yMax="1022">
      <contour>
        <pt x="697" y="650" on="1"/>
        <pt x="697" y="639" on="0"/>
        <pt x="667" y="639" on="1"/>
        <pt x="656" y="639" on="0"/>
        <pt x="620" y="645" on="0"/>
        <pt x="522" y="657" on="0"/>
        <pt x="411" y="657" on="0"/>
        <pt x="321" y="598" on="0"/>
        <pt x="260" y="506" on="0"/>
        <pt x="227" y="392" on="0"/>
        <pt x="227" y="337" on="1"/>
        <pt x="227" y="237" on="0"/>
        <pt x="319" y="125" on="0"/>
        <pt x="401" y="125" on="1"/>
        <pt x="549" y="125" on="0"/>
        <pt x="628" y="230" on="1"/>
        <pt x="652" y="262" on="0"/>
        <pt x="667" y="301" on="1"/>
        <pt x="594" y="310" on="0"/>
        <pt x="516" y="401" on="0"/>
        <pt x="516" y="534" on="0"/>
        <pt x="590" y="612" on="0"/>
        <pt x="715" y="612" on="0"/>
        <pt x="782" y="517" on="0"/>
        <pt x="782" y="445" on="1"/>
        <pt x="782" y="420" on="0"/>
        <pt x="780" y="398" on="1"/>
        <pt x="798" y="406" on="0"/>
        <pt x="822" y="424" on="0"/>
        <pt x="834" y="424" on="1"/>
        <pt x="854" y="424" on="0"/>
        <pt x="854" y="407" on="1"/>
        <pt x="854" y="372" on="0"/>
        <pt x="807" y="321" on="0"/>
        <pt x="768" y="308" on="1"/>
        <pt x="738" y="162" on="0"/>
        <pt x="543" y="-8" on="0"/>
        <pt x="233" y="-8" on="0"/>
        <pt x="146" y="86" on="1"/>
        <pt x="70" y="169" on="0"/>
        <pt x="70" y="299" on="1"/>
        <pt x="70" y="387" on="0"/>
        <pt x="127" y="551" on="0"/>
        <pt x="232" y="677" on="0"/>
        <pt x="382" y="753" on="0"/>
        <pt x="569" y="753" on="0"/>
        <pt x="697" y="687" on="0"/>
      </contour>
      <contour>
        <pt x="307" y="860" on="1"/>
        <pt x="307" y="872" on="0"/>
        <pt x="338" y="899" on="0"/>
        <pt x="371" y="925" on="0"/>
        <pt x="388" y="937" on="1"/>
        <pt x="433" y="970" on="0"/>
        <pt x="456" y="988" on="1"/>
        <pt x="501" y="1022" on="0"/>
        <pt x="544" y="1022" on="1"/>
        <pt x="561" y="1022" on="0"/>
        <pt x="582" y="1010" on="1"/>
        <pt x="649" y="970" on="0"/>
        <pt x="714" y="919" on="0"/>
        <pt x="755" y="873" on="1"/>
        <pt x="761" y="867" on="0"/>
        <pt x="761" y="860" on="1"/>
        <pt x="761" y="844" on="0"/>
        <pt x="695" y="811" on="0"/>
        <pt x="643" y="811" on="0"/>
        <pt x="613" y="840" on="0"/>
        <pt x="598" y="855" on="1"/>
        <pt x="553" y="898" on="0"/>
        <pt x="504" y="929" on="1"/>
        <pt x="458" y="893" on="0"/>
        <pt x="434" y="872" on="1"/>
        <pt x="396" y="838" on="0"/>
        <pt x="307" y="838" on="0"/>
      </contour>
      <contour>
        <pt x="665" y="524" on="1"/>
        <pt x="644" y="524" on="0"/>
        <pt x="644" y="490" on="1"/>
        <pt x="644" y="430" on="0"/>
        <pt x="692" y="403" on="1"/>
        <pt x="695" y="430" on="0"/>
        <pt x="695" y="459" on="1"/>
        <pt x="695" y="524" on="0"/>
      </contour>
    </TTGlyph>
    <TTGlyph name="Odieresis" xMin="70" yMin="-8" xMax="854" yMax="1001">
      <contour>
        <pt x="697" y="650" on="1"/>
        <pt x="697" y="639" on="0"/>
        <pt x="667" y="639" on="1"/>
        <pt x="656" y="639" on="0"/>
        <pt x="620" y="645" on="0"/>
        <pt x="522" y="657" on="0"/>
        <pt x="411" y="657" on="0"/>
        <pt x="321" y="598" on="0"/>
        <pt x="260" y="506" on="0"/>
        <pt x="227" y="392" on="0"/>
        <pt x="227" y="337" on="1"/>
        <pt x="227" y="237" on="0"/>
        <pt x="319" y="125" on="0"/>
        <pt x="401" y="125" on="1"/>
        <pt x="549" y="125" on="0"/>
        <pt x="628" y="230" on="1"/>
        <pt x="652" y="262" on="0"/>
        <pt x="667" y="301" on="1"/>
        <pt x="594" y="310" on="0"/>
        <pt x="516" y="401" on="0"/>
        <pt x="516" y="534" on="0"/>
        <pt x="590" y="612" on="0"/>
        <pt x="715" y="612" on="0"/>
        <pt x="782" y="517" on="0"/>
        <pt x="782" y="445" on="1"/>
        <pt x="782" y="420" on="0"/>
        <pt x="780" y="398" on="1"/>
        <pt x="798" y="406" on="0"/>
        <pt x="822" y="424" on="0"/>
        <pt x="834" y="424" on="1"/>
        <pt x="854" y="424" on="0"/>
        <pt x="854" y="407" on="1"/>
        <pt x="854" y="372" on="0"/>
        <pt x="807" y="321" on="0"/>
        <pt x="768" y="308" on="1"/>
        <pt x="738" y="162" on="0"/>
        <pt x="543" y="-8" on="0"/>
        <pt x="233" y="-8" on="0"/>
        <pt x="146" y="86" on="1"/>
        <pt x="70" y="169" on="0"/>
        <pt x="70" y="299" on="1"/>
        <pt x="70" y="387" on="0"/>
        <pt x="127" y="551" on="0"/>
        <pt x="232" y="677" on="0"/>
        <pt x="382" y="753" on="0"/>
        <pt x="569" y="753" on="0"/>
        <pt x="697" y="687" on="0"/>
      </contour>
      <contour>
        <pt x="479" y="892" on="0"/>
        <pt x="413" y="847" on="0"/>
        <pt x="335" y="847" on="0"/>
        <pt x="334" y="932" on="0"/>
        <pt x="390" y="1000" on="0"/>
        <pt x="424" y="1001" on="1"/>
        <pt x="463" y="1001" on="0"/>
        <pt x="495" y="930" on="1"/>
      </contour>
      <contour>
        <pt x="689" y="959" on="1"/>
        <pt x="646" y="847" on="0"/>
        <pt x="585" y="847" on="1"/>
        <pt x="562" y="847" on="0"/>
        <pt x="535" y="876" on="0"/>
        <pt x="535" y="894" on="1"/>
        <pt x="535" y="939" on="0"/>
        <pt x="577" y="992" on="0"/>
        <pt x="606" y="992" on="1"/>
        <pt x="662" y="992" on="0"/>
      </contour>
      <contour>
        <pt x="665" y="524" on="1"/>
        <pt x="644" y="524" on="0"/>
        <pt x="644" y="490" on="1"/>
        <pt x="644" y="430" on="0"/>
        <pt x="692" y="403" on="1"/>
        <pt x="695" y="430" on="0"/>
        <pt x="695" y="459" on="1"/>
        <pt x="695" y="524" on="0"/>
      </contour>
    </TTGlyph>
    <TTGlyph name="Ograve" xMin="70" yMin="-8" xMax="854" yMax="1012">
      <contour>
        <pt x="697" y="650" on="1"/>
        <pt x="697" y="639" on="0"/>
        <pt x="667" y="639" on="1"/>
        <pt x="656" y="639" on="0"/>
        <pt x="620" y="645" on="0"/>
        <pt x="522" y="657" on="0"/>
        <pt x="411" y="657" on="0"/>
        <pt x="321" y="598" on="0"/>
        <pt x="260" y="506" on="0"/>
        <pt x="227" y="392" on="0"/>
        <pt x="227" y="337" on="1"/>
        <pt x="227" y="237" on="0"/>
        <pt x="319" y="125" on="0"/>
        <pt x="401" y="125" on="1"/>
        <pt x="549" y="125" on="0"/>
        <pt x="628" y="230" on="1"/>
        <pt x="652" y="262" on="0"/>
        <pt x="667" y="301" on="1"/>
        <pt x="594" y="310" on="0"/>
        <pt x="516" y="401" on="0"/>
        <pt x="516" y="534" on="0"/>
        <pt x="590" y="612" on="0"/>
        <pt x="715" y="612" on="0"/>
        <pt x="782" y="517" on="0"/>
        <pt x="782" y="445" on="1"/>
        <pt x="782" y="420" on="0"/>
        <pt x="780" y="398" on="1"/>
        <pt x="798" y="406" on="0"/>
        <pt x="822" y="424" on="0"/>
        <pt x="834" y="424" on="1"/>
        <pt x="854" y="424" on="0"/>
        <pt x="854" y="407" on="1"/>
        <pt x="854" y="372" on="0"/>
        <pt x="807" y="321" on="0"/>
        <pt x="768" y="308" on="1"/>
        <pt x="738" y="162" on="0"/>
        <pt x="543" y="-8" on="0"/>
        <pt x="233" y="-8" on="0"/>
        <pt x="146" y="86" on="1"/>
        <pt x="70" y="169" on="0"/>
        <pt x="70" y="299" on="1"/>
        <pt x="70" y="387" on="0"/>
        <pt x="127" y="551" on="0"/>
        <pt x="232" y="677" on="0"/>
        <pt x="382" y="753" on="0"/>
        <pt x="569" y="753" on="0"/>
        <pt x="697" y="687" on="0"/>
      </contour>
      <contour>
        <pt x="541" y="856" on="1"/>
        <pt x="541" y="840" on="0"/>
        <pt x="482" y="832" on="1"/>
        <pt x="468" y="830" on="0"/>
        <pt x="428" y="830" on="0"/>
        <pt x="339" y="848" on="0"/>
        <pt x="254" y="884" on="0"/>
        <pt x="193" y="938" on="0"/>
        <pt x="193" y="975" on="1"/>
        <pt x="192" y="990" on="0"/>
        <pt x="251" y="1012" on="0"/>
        <pt x="305" y="1012" on="0"/>
        <pt x="317" y="997" on="1"/>
        <pt x="355" y="945" on="0"/>
        <pt x="455" y="888" on="0"/>
        <pt x="521" y="869" on="1"/>
        <pt x="541" y="863" on="0"/>
      </contour>
      <contour>
        <pt x="665" y="524" on="1"/>
        <pt x="644" y="524" on="0"/>
        <pt x="644" y="490" on="1"/>
        <pt x="644" y="430" on="0"/>
        <pt x="692" y="403" on="1"/>
        <pt x="695" y="430" on="0"/>
        <pt x="695" y="459" on="1"/>
        <pt x="695" y="524" on="0"/>
      </contour>
    </TTGlyph>
    <TTGlyph name="Oslash" xMin="20" yMin="-48" xMax="852" yMax="784">
      <contour>
        <pt x="746" y="594" on="1"/>
        <pt x="746" y="576" on="0"/>
        <pt x="724" y="576" on="1"/>
        <pt x="714" y="576" on="0"/>
        <pt x="681" y="596" on="0"/>
        <pt x="659" y="609" on="1"/>
        <pt x="630" y="577" on="1"/>
        <pt x="616" y="561" on="0"/>
        <pt x="564" y="507" on="0"/>
        <pt x="499" y="439" on="0"/>
        <pt x="425" y="362" on="0"/>
        <pt x="353" y="287" on="0"/>
        <pt x="287" y="219" on="0"/>
        <pt x="262" y="193" on="1"/>
        <pt x="308" y="125" on="0"/>
        <pt x="399" y="125" on="1"/>
        <pt x="560" y="126" on="0"/>
        <pt x="636" y="244" on="1"/>
        <pt x="660" y="280" on="0"/>
        <pt x="673" y="322" on="1"/>
        <pt x="621" y="360" on="0"/>
        <pt x="621" y="435" on="1"/>
        <pt x="621" y="469" on="0"/>
        <pt x="668" y="523" on="0"/>
        <pt x="699" y="523" on="1"/>
        <pt x="780" y="523" on="0"/>
        <pt x="780" y="425" on="1"/>
        <pt x="780" y="412" on="1"/>
        <pt x="780" y="406" on="0"/>
        <pt x="779" y="398" on="1"/>
        <pt x="796" y="406" on="0"/>
        <pt x="820" y="424" on="0"/>
        <pt x="832" y="424" on="1"/>
        <pt x="852" y="424" on="0"/>
        <pt x="852" y="407" on="1"/>
        <pt x="852" y="365" on="0"/>
        <pt x="807" y="308" on="0"/>
        <pt x="768" y="301" on="1"/>
        <pt x="737" y="156" on="0"/>
        <pt x="542" y="-8" on="0"/>
        <pt x="247" y="-8" on="0"/>
        <pt x="161" y="69" on="1"/>
        <pt x="73" y="-48" on="0"/>
        <pt x="49" y="-48" on="1"/>
        <pt x="20" y="-48" on="0"/>
        <pt x="20" y="9" on="1"/>
        <pt x="20" y="33" on="0"/>
        <pt x="42" y="57" on="0"/>
        <pt x="78" y="90" on="0"/>
        <pt x="113" y="127" on="1"/>
        <pt x="68" y="201" on="0"/>
        <pt x="68" y="387" on="0"/>
        <pt x="125" y="551" on="0"/>
        <pt x="230" y="677" on="0"/>
        <pt x="380" y="753" on="0"/>
        <pt x="556" y="753" on="0"/>
        <pt x="639" y="714" on="1"/>
        <pt x="652" y="728" on="0"/>
        <pt x="674" y="753" on="0"/>
        <pt x="691" y="771" on="0"/>
        <pt x="701" y="784" on="0"/>
        <pt x="707" y="784" on="1"/>
        <pt x="718" y="784" on="0"/>
        <pt x="731" y="750" on="0"/>
        <pt x="731" y="735" on="1"/>
        <pt x="731" y="714" on="1"/>
        <pt x="731" y="698" on="0"/>
        <pt x="708" y="667" on="1"/>
        <pt x="746" y="631" on="0"/>
      </contour>
      <contour>
        <pt x="258" y="506" on="0"/>
        <pt x="225" y="392" on="0"/>
        <pt x="225" y="293" on="0"/>
        <pt x="234" y="257" on="1"/>
        <pt x="251" y="277" on="1"/>
        <pt x="276" y="306" on="0"/>
        <pt x="427" y="475" on="0"/>
        <pt x="532" y="594" on="0"/>
        <pt x="578" y="645" on="1"/>
        <pt x="574" y="645" on="0"/>
        <pt x="532" y="657" on="0"/>
        <pt x="409" y="657" on="0"/>
        <pt x="319" y="598" on="0"/>
      </contour>
    </TTGlyph>
    <TTGlyph name="Otilde" xMin="70" yMin="-8" xMax="854" yMax="1032">
      <contour>
        <pt x="697" y="650" on="1"/>
        <pt x="697" y="639" on="0"/>
        <pt x="667" y="639" on="1"/>
        <pt x="656" y="639" on="0"/>
        <pt x="620" y="645" on="0"/>
        <pt x="522" y="657" on="0"/>
        <pt x="411" y="657" on="0"/>
        <pt x="321" y="598" on="0"/>
        <pt x="260" y="506" on="0"/>
        <pt x="227" y="392" on="0"/>
        <pt x="227" y="337" on="1"/>
        <pt x="227" y="237" on="0"/>
        <pt x="319" y="125" on="0"/>
        <pt x="401" y="125" on="1"/>
        <pt x="549" y="125" on="0"/>
        <pt x="628" y="230" on="1"/>
        <pt x="652" y="262" on="0"/>
        <pt x="667" y="301" on="1"/>
        <pt x="594" y="310" on="0"/>
        <pt x="516" y="401" on="0"/>
        <pt x="516" y="534" on="0"/>
        <pt x="590" y="612" on="0"/>
        <pt x="715" y="612" on="0"/>
        <pt x="782" y="517" on="0"/>
        <pt x="782" y="445" on="1"/>
        <pt x="782" y="420" on="0"/>
        <pt x="780" y="398" on="1"/>
        <pt x="798" y="406" on="0"/>
        <pt x="822" y="424" on="0"/>
        <pt x="834" y="424" on="1"/>
        <pt x="854" y="424" on="0"/>
        <pt x="854" y="407" on="1"/>
        <pt x="854" y="372" on="0"/>
        <pt x="807" y="321" on="0"/>
        <pt x="768" y="308" on="1"/>
        <pt x="738" y="162" on="0"/>
        <pt x="543" y="-8" on="0"/>
        <pt x="233" y="-8" on="0"/>
        <pt x="146" y="86" on="1"/>
        <pt x="70" y="169" on="0"/>
        <pt x="70" y="299" on="1"/>
        <pt x="70" y="387" on="0"/>
        <pt x="127" y="551" on="0"/>
        <pt x="232" y="677" on="0"/>
        <pt x="382" y="753" on="0"/>
        <pt x="569" y="753" on="0"/>
        <pt x="697" y="687" on="0"/>
      </contour>
      <contour>
        <pt x="699" y="950" on="0"/>
        <pt x="726" y="963" on="0"/>
        <pt x="780" y="963" on="0"/>
        <pt x="780" y="945" on="1"/>
        <pt x="780" y="939" on="0"/>
        <pt x="777" y="937" on="1"/>
        <pt x="730" y="839" on="0"/>
        <pt x="626" y="839" on="1"/>
        <pt x="595" y="839" on="0"/>
        <pt x="547" y="871" on="0"/>
        <pt x="503" y="908" on="0"/>
        <pt x="459" y="940" on="0"/>
        <pt x="432" y="940" on="1"/>
        <pt x="414" y="940" on="0"/>
        <pt x="395" y="907" on="1"/>
        <pt x="380" y="886" on="0"/>
        <pt x="324" y="880" on="1"/>
        <pt x="310" y="878" on="0"/>
        <pt x="299" y="878" on="1"/>
        <pt x="279" y="878" on="0"/>
        <pt x="279" y="903" on="1"/>
        <pt x="279" y="917" on="0"/>
        <pt x="298" y="938" on="1"/>
        <pt x="341" y="991" on="0"/>
        <pt x="433" y="1032" on="0"/>
        <pt x="497" y="1032" on="0"/>
        <pt x="547" y="998" on="0"/>
        <pt x="591" y="957" on="0"/>
        <pt x="633" y="923" on="0"/>
        <pt x="665" y="923" on="0"/>
        <pt x="679" y="935" on="0"/>
      </contour>
      <contour>
        <pt x="665" y="524" on="1"/>
        <pt x="644" y="524" on="0"/>
        <pt x="644" y="490" on="1"/>
        <pt x="644" y="430" on="0"/>
        <pt x="692" y="403" on="1"/>
        <pt x="695" y="430" on="0"/>
        <pt x="695" y="459" on="1"/>
        <pt x="695" y="524" on="0"/>
      </contour>
    </TTGlyph>
    <TTGlyph name="P" xMin="60" yMin="-15" xMax="652" yMax="753">
      <contour>
        <pt x="229" y="44" on="1"/>
        <pt x="229" y="-15" on="0"/>
        <pt x="114" y="-15" on="1"/>
        <pt x="89" y="-15" on="0"/>
        <pt x="80" y="36" on="0"/>
        <pt x="80" y="82" on="1"/>
        <pt x="80" y="179" on="0"/>
        <pt x="119" y="322" on="1"/>
        <pt x="184" y="558" on="0"/>
        <pt x="258" y="600" on="1"/>
        <pt x="268" y="606" on="0"/>
        <pt x="292" y="606" on="0"/>
        <pt x="292" y="528" on="0"/>
        <pt x="288" y="498" on="1"/>
        <pt x="280" y="438" on="0"/>
        <pt x="239" y="248" on="0"/>
        <pt x="239" y="231" on="1"/>
      </contour>
      <contour>
        <pt x="297" y="313" on="1"/>
        <pt x="297" y="326" on="0"/>
        <pt x="326" y="334" on="0"/>
        <pt x="370" y="341" on="0"/>
        <pt x="422" y="355" on="0"/>
        <pt x="444" y="374" on="1"/>
        <pt x="495" y="418" on="0"/>
        <pt x="495" y="521" on="1"/>
        <pt x="495" y="587" on="0"/>
        <pt x="406" y="657" on="0"/>
        <pt x="239" y="657" on="0"/>
        <pt x="166" y="622" on="1"/>
        <pt x="139" y="609" on="0"/>
        <pt x="96" y="587" on="0"/>
        <pt x="60" y="587" on="0"/>
        <pt x="60" y="598" on="1"/>
        <pt x="60" y="615" on="0"/>
        <pt x="93" y="654" on="1"/>
        <pt x="126" y="690" on="0"/>
        <pt x="269" y="752" on="0"/>
        <pt x="348" y="752" on="1"/>
        <pt x="497" y="753" on="0"/>
        <pt x="580" y="682" on="1"/>
        <pt x="652" y="620" on="0"/>
        <pt x="652" y="423" on="0"/>
        <pt x="510" y="268" on="0"/>
        <pt x="297" y="268" on="0"/>
      </contour>
    </TTGlyph>
    <TTGlyph name="Q" xMin="10" yMin="-125" xMax="757" yMax="751">
      <contour>
        <pt x="385" y="-36" on="1"/>
        <pt x="312" y="-56" on="0"/>
        <pt x="126" y="-56" on="0"/>
        <pt x="10" y="23" on="0"/>
        <pt x="10" y="96" on="1"/>
        <pt x="10" y="143" on="0"/>
        <pt x="98" y="210" on="0"/>
        <pt x="182" y="210" on="1"/>
        <pt x="290" y="210" on="0"/>
        <pt x="360" y="145" on="1"/>
        <pt x="380" y="126" on="0"/>
        <pt x="398" y="105" on="1"/>
        <pt x="492" y="152" on="0"/>
        <pt x="594" y="325" on="0"/>
        <pt x="594" y="536" on="0"/>
        <pt x="496" y="636" on="0"/>
        <pt x="424" y="636" on="1"/>
        <pt x="322" y="636" on="0"/>
        <pt x="194" y="504" on="0"/>
        <pt x="194" y="393" on="1"/>
        <pt x="194" y="351" on="0"/>
        <pt x="213" y="294" on="0"/>
        <pt x="213" y="266" on="0"/>
        <pt x="202" y="266" on="1"/>
        <pt x="159" y="266" on="0"/>
        <pt x="91" y="355" on="0"/>
        <pt x="91" y="512" on="0"/>
        <pt x="150" y="631" on="0"/>
        <pt x="198" y="671" on="1"/>
        <pt x="295" y="751" on="0"/>
        <pt x="566" y="751" on="0"/>
        <pt x="656" y="675" on="1"/>
        <pt x="756" y="591" on="0"/>
        <pt x="757" y="445" on="1"/>
        <pt x="757" y="278" on="0"/>
        <pt x="676" y="158" on="1"/>
        <pt x="607" y="56" on="0"/>
        <pt x="485" y="0" on="1"/>
        <pt x="528" y="-43" on="0"/>
        <pt x="631" y="-43" on="0"/>
        <pt x="696" y="-36" on="0"/>
        <pt x="737" y="-36" on="0"/>
        <pt x="737" y="-45" on="1"/>
        <pt x="737" y="-68" on="0"/>
        <pt x="648" y="-125" on="0"/>
        <pt x="563" y="-125" on="1"/>
        <pt x="459" y="-125" on="0"/>
      </contour>
      <contour>
        <pt x="304" y="73" on="1"/>
        <pt x="257" y="120" on="0"/>
        <pt x="206" y="120" on="1"/>
        <pt x="175" y="120" on="0"/>
        <pt x="130" y="106" on="0"/>
        <pt x="130" y="92" on="1"/>
        <pt x="130" y="62" on="0"/>
        <pt x="220" y="62" on="1"/>
        <pt x="252" y="62" on="0"/>
      </contour>
    </TTGlyph>
    <TTGlyph name="R" xMin="60" yMin="-15" xMax="731" yMax="753">
      <contour>
        <pt x="714" y="236" on="1"/>
        <pt x="731" y="236" on="0"/>
        <pt x="731" y="190" on="1"/>
        <pt x="731" y="165" on="0"/>
        <pt x="689" y="94" on="0"/>
        <pt x="622" y="35" on="0"/>
        <pt x="540" y="-3" on="0"/>
        <pt x="466" y="-3" on="0"/>
        <pt x="424" y="25" on="0"/>
        <pt x="412" y="49" on="1"/>
        <pt x="395" y="83" on="0"/>
        <pt x="373" y="274" on="0"/>
        <pt x="362" y="312" on="1"/>
        <pt x="336" y="317" on="0"/>
        <pt x="297" y="348" on="0"/>
        <pt x="297" y="393" on="0"/>
        <pt x="338" y="413" on="0"/>
        <pt x="391" y="413" on="0"/>
        <pt x="412" y="400" on="1"/>
        <pt x="440" y="423" on="0"/>
        <pt x="475" y="486" on="0"/>
        <pt x="475" y="593" on="0"/>
        <pt x="403" y="657" on="0"/>
        <pt x="264" y="657" on="0"/>
        <pt x="190" y="635" on="0"/>
        <pt x="137" y="609" on="0"/>
        <pt x="96" y="587" on="0"/>
        <pt x="60" y="587" on="0"/>
        <pt x="60" y="610" on="0"/>
        <pt x="98" y="662" on="0"/>
        <pt x="135" y="688" on="1"/>
        <pt x="228" y="753" on="0"/>
        <pt x="462" y="752" on="0"/>
        <pt x="538" y="708" on="1"/>
        <pt x="627" y="656" on="0"/>
        <pt x="627" y="552" on="1"/>
        <pt x="628" y="466" on="0"/>
        <pt x="536" y="352" on="0"/>
        <pt x="468" y="327" on="1"/>
        <pt x="483" y="294" on="0"/>
        <pt x="502" y="218" on="0"/>
        <pt x="520" y="154" on="0"/>
        <pt x="543" y="112" on="0"/>
        <pt x="576" y="112" on="0"/>
        <pt x="623" y="151" on="0"/>
        <pt x="669" y="197" on="0"/>
        <pt x="706" y="236" on="0"/>
      </contour>
      <contour>
        <pt x="279" y="596" on="1"/>
        <pt x="292" y="596" on="0"/>
        <pt x="292" y="528" on="0"/>
        <pt x="288" y="498" on="1"/>
        <pt x="279" y="440" on="0"/>
        <pt x="265" y="390" on="1"/>
        <pt x="229" y="254" on="0"/>
        <pt x="229" y="231" on="1"/>
        <pt x="229" y="84" on="1"/>
        <pt x="229" y="30" on="0"/>
        <pt x="188" y="10" on="1"/>
        <pt x="169" y="1" on="0"/>
        <pt x="134" y="-15" on="0"/>
        <pt x="112" y="-15" on="1"/>
        <pt x="70" y="-15" on="0"/>
        <pt x="70" y="178" on="0"/>
        <pt x="160" y="472" on="0"/>
        <pt x="209" y="549" on="1"/>
        <pt x="219" y="564" on="0"/>
        <pt x="257" y="596" on="0"/>
      </contour>
    </TTGlyph>
    <TTGlyph name="S" xMin="25" yMin="-7" xMax="530" yMax="756">
      <contour>
        <pt x="169" y="211" on="1"/>
        <pt x="169" y="124" on="0"/>
        <pt x="243" y="124" on="1"/>
        <pt x="324" y="124" on="0"/>
        <pt x="352" y="180" on="1"/>
        <pt x="362" y="200" on="0"/>
        <pt x="362" y="263" on="0"/>
        <pt x="347" y="290" on="1"/>
        <pt x="322" y="333" on="0"/>
        <pt x="261" y="385" on="1"/>
        <pt x="160" y="471" on="0"/>
        <pt x="160" y="656" on="0"/>
        <pt x="276" y="756" on="0"/>
        <pt x="426" y="756" on="0"/>
        <pt x="514" y="680" on="0"/>
        <pt x="514" y="604" on="1"/>
        <pt x="514" y="554" on="0"/>
        <pt x="447" y="480" on="0"/>
        <pt x="392" y="471" on="1"/>
        <pt x="417" y="450" on="0"/>
        <pt x="442" y="428" on="1"/>
        <pt x="466" y="406" on="0"/>
        <pt x="486" y="380" on="1"/>
        <pt x="530" y="321" on="0"/>
        <pt x="530" y="239" on="1"/>
        <pt x="530" y="182" on="0"/>
        <pt x="477" y="90" on="0"/>
        <pt x="392" y="27" on="0"/>
        <pt x="286" y="-7" on="0"/>
        <pt x="240" y="-7" on="1"/>
        <pt x="142" y="-7" on="0"/>
        <pt x="88" y="38" on="1"/>
        <pt x="25" y="89" on="0"/>
        <pt x="25" y="185" on="1"/>
        <pt x="25" y="248" on="0"/>
        <pt x="107" y="366" on="0"/>
        <pt x="153" y="366" on="1"/>
        <pt x="189" y="366" on="0"/>
        <pt x="189" y="344" on="1"/>
        <pt x="189" y="312" on="0"/>
        <pt x="169" y="249" on="0"/>
      </contour>
      <contour>
        <pt x="363" y="495" on="1"/>
        <pt x="420" y="552" on="0"/>
        <pt x="420" y="614" on="1"/>
        <pt x="420" y="633" on="0"/>
        <pt x="400" y="646" on="1"/>
        <pt x="378" y="658" on="0"/>
        <pt x="354" y="658" on="1"/>
        <pt x="300" y="658" on="0"/>
        <pt x="276" y="623" on="1"/>
        <pt x="288" y="580" on="0"/>
        <pt x="335" y="520" on="0"/>
      </contour>
    </TTGlyph>
    <TTGlyph name="T" xMin="30" yMin="-15" xMax="672" yMax="747">
      <contour>
        <pt x="321" y="44" on="1"/>
        <pt x="321" y="-15" on="0"/>
        <pt x="206" y="-15" on="1"/>
        <pt x="181" y="-15" on="0"/>
        <pt x="172" y="36" on="0"/>
        <pt x="172" y="112" on="0"/>
        <pt x="183" y="199" on="0"/>
        <pt x="192" y="250" on="1"/>
        <pt x="209" y="348" on="0"/>
        <pt x="272" y="575" on="0"/>
        <pt x="303" y="637" on="1"/>
        <pt x="240" y="633" on="0"/>
        <pt x="116" y="596" on="0"/>
        <pt x="64" y="581" on="0"/>
        <pt x="30" y="581" on="0"/>
        <pt x="30" y="592" on="1"/>
        <pt x="30" y="605" on="0"/>
        <pt x="70" y="656" on="0"/>
        <pt x="107" y="682" on="1"/>
        <pt x="201" y="746" on="0"/>
        <pt x="316" y="747" on="1"/>
        <pt x="645" y="744" on="1"/>
        <pt x="672" y="744" on="0"/>
        <pt x="672" y="723" on="1"/>
        <pt x="672" y="717" on="0"/>
        <pt x="656" y="686" on="0"/>
        <pt x="650" y="668" on="1"/>
        <pt x="637" y="632" on="0"/>
        <pt x="554" y="632" on="0"/>
        <pt x="398" y="638" on="1"/>
        <pt x="394" y="594" on="0"/>
        <pt x="370" y="457" on="0"/>
        <pt x="356" y="376" on="1"/>
        <pt x="322" y="169" on="0"/>
      </contour>
    </TTGlyph>
    <TTGlyph name="Thorn" xMin="25" yMin="-5" xMax="544" yMax="749">
      <contour>
        <pt x="140" y="477" on="1"/>
        <pt x="95" y="468" on="0"/>
        <pt x="53" y="468" on="0"/>
        <pt x="53" y="485" on="1"/>
        <pt x="51" y="518" on="0"/>
        <pt x="168" y="571" on="1"/>
        <pt x="190" y="638" on="0"/>
        <pt x="219" y="704" on="0"/>
        <pt x="259" y="749" on="0"/>
        <pt x="292" y="749" on="1"/>
        <pt x="307" y="749" on="0"/>
        <pt x="321" y="715" on="1"/>
        <pt x="325" y="705" on="0"/>
        <pt x="325" y="674" on="0"/>
        <pt x="313" y="607" on="1"/>
        <pt x="315" y="607" on="1"/>
        <pt x="469" y="608" on="0"/>
        <pt x="524" y="482" on="1"/>
        <pt x="544" y="436" on="0"/>
        <pt x="544" y="377" on="1"/>
        <pt x="544" y="255" on="0"/>
        <pt x="480" y="179" on="1"/>
        <pt x="406" y="92" on="0"/>
        <pt x="277" y="92" on="1"/>
        <pt x="252" y="92" on="0"/>
        <pt x="220" y="105" on="1"/>
        <pt x="218" y="91" on="0"/>
        <pt x="218" y="82" on="1"/>
        <pt x="218" y="68" on="1"/>
        <pt x="218" y="65" on="0"/>
        <pt x="219" y="61" on="1"/>
        <pt x="218" y="45" on="0"/>
        <pt x="216" y="32" on="1"/>
        <pt x="210" y="-5" on="0"/>
        <pt x="176" y="-5" on="1"/>
        <pt x="113" y="-5" on="0"/>
        <pt x="67" y="44" on="0"/>
        <pt x="67" y="140" on="0"/>
        <pt x="76" y="199" on="1"/>
        <pt x="25" y="246" on="0"/>
        <pt x="25" y="270" on="1"/>
        <pt x="25" y="281" on="0"/>
        <pt x="60" y="281" on="0"/>
        <pt x="89" y="269" on="1"/>
        <pt x="111" y="373" on="0"/>
      </contour>
      <contour>
        <pt x="315" y="511" on="1"/>
        <pt x="304" y="511" on="0"/>
        <pt x="292" y="509" on="1"/>
        <pt x="278" y="442" on="0"/>
        <pt x="244" y="287" on="0"/>
        <pt x="232" y="209" on="1"/>
        <pt x="257" y="203" on="0"/>
        <pt x="286" y="203" on="1"/>
        <pt x="337" y="203" on="0"/>
        <pt x="397" y="313" on="0"/>
        <pt x="397" y="444" on="0"/>
        <pt x="349" y="511" on="0"/>
      </contour>
    </TTGlyph>
    <TTGlyph name="U" xMin="0" yMin="-3" xMax="771" yMax="751">
      <contour>
        <pt x="585" y="203" on="1"/>
        <pt x="585" y="112" on="0"/>
        <pt x="610" y="112" on="1"/>
        <pt x="625" y="112" on="0"/>
        <pt x="669" y="150" on="0"/>
        <pt x="713" y="195" on="0"/>
        <pt x="750" y="233" on="0"/>
        <pt x="757" y="233" on="1"/>
        <pt x="771" y="233" on="0"/>
        <pt x="771" y="199" on="1"/>
        <pt x="771" y="129" on="0"/>
        <pt x="630" y="-3" on="0"/>
        <pt x="550" y="-3" on="1"/>
        <pt x="500" y="-4" on="0"/>
        <pt x="482" y="40" on="1"/>
        <pt x="468" y="75" on="0"/>
        <pt x="468" y="152" on="1"/>
        <pt x="401" y="-3" on="0"/>
        <pt x="269" y="-3" on="1"/>
        <pt x="180" y="-3" on="0"/>
        <pt x="75" y="86" on="0"/>
        <pt x="75" y="182" on="1"/>
        <pt x="75" y="205" on="0"/>
        <pt x="126" y="402" on="0"/>
        <pt x="156" y="529" on="0"/>
        <pt x="156" y="566" on="1"/>
        <pt x="156" y="647" on="0"/>
        <pt x="115" y="647" on="1"/>
        <pt x="101" y="647" on="0"/>
        <pt x="78" y="631" on="0"/>
        <pt x="55" y="613" on="0"/>
        <pt x="31" y="597" on="0"/>
        <pt x="0" y="597" on="0"/>
        <pt x="0" y="624" on="1"/>
        <pt x="0" y="679" on="0"/>
        <pt x="51" y="714" on="1"/>
        <pt x="100" y="750" on="0"/>
        <pt x="236" y="750" on="0"/>
        <pt x="270" y="694" on="1"/>
        <pt x="296" y="653" on="0"/>
        <pt x="296" y="550" on="0"/>
        <pt x="274" y="453" on="0"/>
        <pt x="249" y="351" on="0"/>
        <pt x="227" y="246" on="0"/>
        <pt x="227" y="179" on="0"/>
        <pt x="230" y="168" on="1"/>
        <pt x="244" y="124" on="0"/>
        <pt x="298" y="124" on="1"/>
        <pt x="368" y="124" on="0"/>
        <pt x="420" y="212" on="1"/>
        <pt x="464" y="286" on="0"/>
        <pt x="482" y="392" on="1"/>
        <pt x="488" y="437" on="1"/>
        <pt x="484" y="646" on="1"/>
        <pt x="484" y="692" on="0"/>
        <pt x="564" y="752" on="0"/>
        <pt x="608" y="751" on="1"/>
        <pt x="626" y="751" on="0"/>
        <pt x="636" y="698" on="0"/>
        <pt x="636" y="634" on="0"/>
        <pt x="628" y="575" on="0"/>
        <pt x="617" y="498" on="0"/>
        <pt x="610" y="454" on="1"/>
        <pt x="584" y="273" on="0"/>
      </contour>
    </TTGlyph>
    <TTGlyph name="Uacute" xMin="0" yMin="-3" xMax="771" yMax="1012">
      <contour>
        <pt x="585" y="203" on="1"/>
        <pt x="585" y="112" on="0"/>
        <pt x="610" y="112" on="1"/>
        <pt x="625" y="112" on="0"/>
        <pt x="669" y="150" on="0"/>
        <pt x="713" y="195" on="0"/>
        <pt x="750" y="233" on="0"/>
        <pt x="757" y="233" on="1"/>
        <pt x="771" y="233" on="0"/>
        <pt x="771" y="199" on="1"/>
        <pt x="771" y="129" on="0"/>
        <pt x="630" y="-3" on="0"/>
        <pt x="550" y="-3" on="1"/>
        <pt x="500" y="-4" on="0"/>
        <pt x="482" y="40" on="1"/>
        <pt x="468" y="75" on="0"/>
        <pt x="468" y="152" on="1"/>
        <pt x="401" y="-3" on="0"/>
        <pt x="269" y="-3" on="1"/>
        <pt x="180" y="-3" on="0"/>
        <pt x="75" y="86" on="0"/>
        <pt x="75" y="182" on="1"/>
        <pt x="75" y="205" on="0"/>
        <pt x="126" y="402" on="0"/>
        <pt x="156" y="529" on="0"/>
        <pt x="156" y="566" on="1"/>
        <pt x="156" y="647" on="0"/>
        <pt x="115" y="647" on="1"/>
        <pt x="101" y="647" on="0"/>
        <pt x="78" y="631" on="0"/>
        <pt x="55" y="613" on="0"/>
        <pt x="31" y="597" on="0"/>
        <pt x="0" y="597" on="0"/>
        <pt x="0" y="624" on="1"/>
        <pt x="0" y="679" on="0"/>
        <pt x="51" y="714" on="1"/>
        <pt x="100" y="750" on="0"/>
        <pt x="236" y="750" on="0"/>
        <pt x="270" y="694" on="1"/>
        <pt x="296" y="653" on="0"/>
        <pt x="296" y="550" on="0"/>
        <pt x="274" y="453" on="0"/>
        <pt x="249" y="351" on="0"/>
        <pt x="227" y="246" on="0"/>
        <pt x="227" y="179" on="0"/>
        <pt x="230" y="168" on="1"/>
        <pt x="244" y="124" on="0"/>
        <pt x="298" y="124" on="1"/>
        <pt x="368" y="124" on="0"/>
        <pt x="420" y="212" on="1"/>
        <pt x="464" y="286" on="0"/>
        <pt x="482" y="392" on="1"/>
        <pt x="488" y="437" on="1"/>
        <pt x="484" y="646" on="1"/>
        <pt x="484" y="692" on="0"/>
        <pt x="564" y="752" on="0"/>
        <pt x="608" y="751" on="1"/>
        <pt x="626" y="751" on="0"/>
        <pt x="636" y="698" on="0"/>
        <pt x="636" y="634" on="0"/>
        <pt x="628" y="575" on="0"/>
        <pt x="617" y="498" on="0"/>
        <pt x="610" y="454" on="1"/>
        <pt x="584" y="273" on="0"/>
      </contour>
      <contour>
        <pt x="649" y="1012" on="1"/>
        <pt x="697" y="1012" on="0"/>
        <pt x="697" y="996" on="1"/>
        <pt x="697" y="983" on="0"/>
        <pt x="675" y="954" on="1"/>
        <pt x="622" y="886" on="0"/>
        <pt x="510" y="826" on="0"/>
        <pt x="414" y="825" on="1"/>
        <pt x="374" y="825" on="0"/>
        <pt x="374" y="844" on="1"/>
        <pt x="374" y="860" on="0"/>
        <pt x="404" y="869" on="1"/>
        <pt x="474" y="891" on="0"/>
        <pt x="533" y="930" on="0"/>
        <pt x="566" y="965" on="0"/>
        <pt x="582" y="989" on="1"/>
        <pt x="590" y="1000" on="0"/>
        <pt x="629" y="1012" on="0"/>
      </contour>
    </TTGlyph>
    <TTGlyph name="Ucircumflex" xMin="0" yMin="-3" xMax="771" yMax="1022">
      <contour>
        <pt x="585" y="203" on="1"/>
        <pt x="585" y="112" on="0"/>
        <pt x="610" y="112" on="1"/>
        <pt x="625" y="112" on="0"/>
        <pt x="669" y="150" on="0"/>
        <pt x="713" y="195" on="0"/>
        <pt x="750" y="233" on="0"/>
        <pt x="757" y="233" on="1"/>
        <pt x="771" y="233" on="0"/>
        <pt x="771" y="199" on="1"/>
        <pt x="771" y="129" on="0"/>
        <pt x="630" y="-3" on="0"/>
        <pt x="550" y="-3" on="1"/>
        <pt x="500" y="-4" on="0"/>
        <pt x="482" y="40" on="1"/>
        <pt x="468" y="75" on="0"/>
        <pt x="468" y="152" on="1"/>
        <pt x="401" y="-3" on="0"/>
        <pt x="269" y="-3" on="1"/>
        <pt x="180" y="-3" on="0"/>
        <pt x="75" y="86" on="0"/>
        <pt x="75" y="182" on="1"/>
        <pt x="75" y="205" on="0"/>
        <pt x="126" y="402" on="0"/>
        <pt x="156" y="529" on="0"/>
        <pt x="156" y="566" on="1"/>
        <pt x="156" y="647" on="0"/>
        <pt x="115" y="647" on="1"/>
        <pt x="101" y="647" on="0"/>
        <pt x="78" y="631" on="0"/>
        <pt x="55" y="613" on="0"/>
        <pt x="31" y="597" on="0"/>
        <pt x="0" y="597" on="0"/>
        <pt x="0" y="624" on="1"/>
        <pt x="0" y="679" on="0"/>
        <pt x="51" y="714" on="1"/>
        <pt x="100" y="750" on="0"/>
        <pt x="236" y="750" on="0"/>
        <pt x="270" y="694" on="1"/>
        <pt x="296" y="653" on="0"/>
        <pt x="296" y="550" on="0"/>
        <pt x="274" y="453" on="0"/>
        <pt x="249" y="351" on="0"/>
        <pt x="227" y="246" on="0"/>
        <pt x="227" y="179" on="0"/>
        <pt x="230" y="168" on="1"/>
        <pt x="244" y="124" on="0"/>
        <pt x="298" y="124" on="1"/>
        <pt x="368" y="124" on="0"/>
        <pt x="420" y="212" on="1"/>
        <pt x="464" y="286" on="0"/>
        <pt x="482" y="392" on="1"/>
        <pt x="488" y="437" on="1"/>
        <pt x="484" y="646" on="1"/>
        <pt x="484" y="692" on="0"/>
        <pt x="564" y="752" on="0"/>
        <pt x="608" y="751" on="1"/>
        <pt x="626" y="751" on="0"/>
        <pt x="636" y="698" on="0"/>
        <pt x="636" y="634" on="0"/>
        <pt x="628" y="575" on="0"/>
        <pt x="617" y="498" on="0"/>
        <pt x="610" y="454" on="1"/>
        <pt x="584" y="273" on="0"/>
      </contour>
      <contour>
        <pt x="201" y="860" on="1"/>
        <pt x="201" y="872" on="0"/>
        <pt x="232" y="899" on="0"/>
        <pt x="265" y="925" on="0"/>
        <pt x="282" y="937" on="1"/>
        <pt x="327" y="970" on="0"/>
        <pt x="350" y="988" on="1"/>
        <pt x="395" y="1022" on="0"/>
        <pt x="438" y="1022" on="1"/>
        <pt x="455" y="1022" on="0"/>
        <pt x="476" y="1010" on="1"/>
        <pt x="543" y="970" on="0"/>
        <pt x="608" y="919" on="0"/>
        <pt x="649" y="873" on="1"/>
        <pt x="655" y="867" on="0"/>
        <pt x="655" y="860" on="1"/>
        <pt x="655" y="844" on="0"/>
        <pt x="589" y="811" on="0"/>
        <pt x="537" y="811" on="0"/>
        <pt x="507" y="840" on="0"/>
        <pt x="492" y="855" on="1"/>
        <pt x="447" y="898" on="0"/>
        <pt x="398" y="929" on="1"/>
        <pt x="352" y="893" on="0"/>
        <pt x="328" y="872" on="1"/>
        <pt x="290" y="838" on="0"/>
        <pt x="201" y="838" on="0"/>
      </contour>
    </TTGlyph>
    <TTGlyph name="Udieresis" xMin="0" yMin="-3" xMax="771" yMax="1001">
      <contour>
        <pt x="585" y="203" on="1"/>
        <pt x="585" y="112" on="0"/>
        <pt x="610" y="112" on="1"/>
        <pt x="625" y="112" on="0"/>
        <pt x="669" y="150" on="0"/>
        <pt x="713" y="195" on="0"/>
        <pt x="750" y="233" on="0"/>
        <pt x="757" y="233" on="1"/>
        <pt x="771" y="233" on="0"/>
        <pt x="771" y="199" on="1"/>
        <pt x="771" y="129" on="0"/>
        <pt x="630" y="-3" on="0"/>
        <pt x="550" y="-3" on="1"/>
        <pt x="500" y="-4" on="0"/>
        <pt x="482" y="40" on="1"/>
        <pt x="468" y="75" on="0"/>
        <pt x="468" y="152" on="1"/>
        <pt x="401" y="-3" on="0"/>
        <pt x="269" y="-3" on="1"/>
        <pt x="180" y="-3" on="0"/>
        <pt x="75" y="86" on="0"/>
        <pt x="75" y="182" on="1"/>
        <pt x="75" y="205" on="0"/>
        <pt x="126" y="402" on="0"/>
        <pt x="156" y="529" on="0"/>
        <pt x="156" y="566" on="1"/>
        <pt x="156" y="647" on="0"/>
        <pt x="115" y="647" on="1"/>
        <pt x="101" y="647" on="0"/>
        <pt x="78" y="631" on="0"/>
        <pt x="55" y="613" on="0"/>
        <pt x="31" y="597" on="0"/>
        <pt x="0" y="597" on="0"/>
        <pt x="0" y="624" on="1"/>
        <pt x="0" y="679" on="0"/>
        <pt x="51" y="714" on="1"/>
        <pt x="100" y="750" on="0"/>
        <pt x="236" y="750" on="0"/>
        <pt x="270" y="694" on="1"/>
        <pt x="296" y="653" on="0"/>
        <pt x="296" y="550" on="0"/>
        <pt x="274" y="453" on="0"/>
        <pt x="249" y="351" on="0"/>
        <pt x="227" y="246" on="0"/>
        <pt x="227" y="179" on="0"/>
        <pt x="230" y="168" on="1"/>
        <pt x="244" y="124" on="0"/>
        <pt x="298" y="124" on="1"/>
        <pt x="368" y="124" on="0"/>
        <pt x="420" y="212" on="1"/>
        <pt x="464" y="286" on="0"/>
        <pt x="482" y="392" on="1"/>
        <pt x="488" y="437" on="1"/>
        <pt x="484" y="646" on="1"/>
        <pt x="484" y="692" on="0"/>
        <pt x="564" y="752" on="0"/>
        <pt x="608" y="751" on="1"/>
        <pt x="626" y="751" on="0"/>
        <pt x="636" y="698" on="0"/>
        <pt x="636" y="634" on="0"/>
        <pt x="628" y="575" on="0"/>
        <pt x="617" y="498" on="0"/>
        <pt x="610" y="454" on="1"/>
        <pt x="584" y="273" on="0"/>
      </contour>
      <contour>
        <pt x="373" y="892" on="0"/>
        <pt x="307" y="847" on="0"/>
        <pt x="229" y="847" on="0"/>
        <pt x="228" y="932" on="0"/>
        <pt x="284" y="1000" on="0"/>
        <pt x="318" y="1001" on="1"/>
        <pt x="357" y="1001" on="0"/>
        <pt x="389" y="930" on="1"/>
      </contour>
      <contour>
        <pt x="583" y="959" on="1"/>
        <pt x="540" y="847" on="0"/>
        <pt x="479" y="847" on="1"/>
        <pt x="456" y="847" on="0"/>
        <pt x="429" y="876" on="0"/>
        <pt x="429" y="894" on="1"/>
        <pt x="429" y="939" on="0"/>
        <pt x="471" y="992" on="0"/>
        <pt x="500" y="992" on="1"/>
        <pt x="556" y="992" on="0"/>
      </contour>
    </TTGlyph>
    <TTGlyph name="Ugrave" xMin="0" yMin="-3" xMax="771" yMax="1012">
      <contour>
        <pt x="585" y="203" on="1"/>
        <pt x="585" y="112" on="0"/>
        <pt x="610" y="112" on="1"/>
        <pt x="625" y="112" on="0"/>
        <pt x="669" y="150" on="0"/>
        <pt x="713" y="195" on="0"/>
        <pt x="750" y="233" on="0"/>
        <pt x="757" y="233" on="1"/>
        <pt x="771" y="233" on="0"/>
        <pt x="771" y="199" on="1"/>
        <pt x="771" y="129" on="0"/>
        <pt x="630" y="-3" on="0"/>
        <pt x="550" y="-3" on="1"/>
        <pt x="500" y="-4" on="0"/>
        <pt x="482" y="40" on="1"/>
        <pt x="468" y="75" on="0"/>
        <pt x="468" y="152" on="1"/>
        <pt x="401" y="-3" on="0"/>
        <pt x="269" y="-3" on="1"/>
        <pt x="180" y="-3" on="0"/>
        <pt x="75" y="86" on="0"/>
        <pt x="75" y="182" on="1"/>
        <pt x="75" y="205" on="0"/>
        <pt x="126" y="402" on="0"/>
        <pt x="156" y="529" on="0"/>
        <pt x="156" y="566" on="1"/>
        <pt x="156" y="647" on="0"/>
        <pt x="115" y="647" on="1"/>
        <pt x="101" y="647" on="0"/>
        <pt x="78" y="631" on="0"/>
        <pt x="55" y="613" on="0"/>
        <pt x="31" y="597" on="0"/>
        <pt x="0" y="597" on="0"/>
        <pt x="0" y="624" on="1"/>
        <pt x="0" y="679" on="0"/>
        <pt x="51" y="714" on="1"/>
        <pt x="100" y="750" on="0"/>
        <pt x="236" y="750" on="0"/>
        <pt x="270" y="694" on="1"/>
        <pt x="296" y="653" on="0"/>
        <pt x="296" y="550" on="0"/>
        <pt x="274" y="453" on="0"/>
        <pt x="249" y="351" on="0"/>
        <pt x="227" y="246" on="0"/>
        <pt x="227" y="179" on="0"/>
        <pt x="230" y="168" on="1"/>
        <pt x="244" y="124" on="0"/>
        <pt x="298" y="124" on="1"/>
        <pt x="368" y="124" on="0"/>
        <pt x="420" y="212" on="1"/>
        <pt x="464" y="286" on="0"/>
        <pt x="482" y="392" on="1"/>
        <pt x="488" y="437" on="1"/>
        <pt x="484" y="646" on="1"/>
        <pt x="484" y="692" on="0"/>
        <pt x="564" y="752" on="0"/>
        <pt x="608" y="751" on="1"/>
        <pt x="626" y="751" on="0"/>
        <pt x="636" y="698" on="0"/>
        <pt x="636" y="634" on="0"/>
        <pt x="628" y="575" on="0"/>
        <pt x="617" y="498" on="0"/>
        <pt x="610" y="454" on="1"/>
        <pt x="584" y="273" on="0"/>
      </contour>
      <contour>
        <pt x="435" y="856" on="1"/>
        <pt x="435" y="840" on="0"/>
        <pt x="376" y="832" on="1"/>
        <pt x="362" y="830" on="0"/>
        <pt x="322" y="830" on="0"/>
        <pt x="233" y="848" on="0"/>
        <pt x="148" y="884" on="0"/>
        <pt x="87" y="938" on="0"/>
        <pt x="87" y="975" on="1"/>
        <pt x="86" y="990" on="0"/>
        <pt x="145" y="1012" on="0"/>
        <pt x="199" y="1012" on="0"/>
        <pt x="211" y="997" on="1"/>
        <pt x="249" y="945" on="0"/>
        <pt x="349" y="888" on="0"/>
        <pt x="415" y="869" on="1"/>
        <pt x="435" y="863" on="0"/>
      </contour>
    </TTGlyph>
    <TTGlyph name="V" xMin="0" yMin="-3" xMax="708" yMax="757">
      <contour>
        <pt x="55" y="613" on="0"/>
        <pt x="31" y="597" on="0"/>
        <pt x="0" y="597" on="0"/>
        <pt x="0" y="624" on="1"/>
        <pt x="0" y="679" on="0"/>
        <pt x="51" y="714" on="1"/>
        <pt x="100" y="750" on="0"/>
        <pt x="236" y="750" on="0"/>
        <pt x="270" y="694" on="1"/>
        <pt x="296" y="653" on="0"/>
        <pt x="296" y="550" on="0"/>
        <pt x="274" y="453" on="0"/>
        <pt x="249" y="351" on="0"/>
        <pt x="227" y="246" on="0"/>
        <pt x="227" y="179" on="0"/>
        <pt x="230" y="168" on="1"/>
        <pt x="244" y="124" on="0"/>
        <pt x="306" y="124" on="1"/>
        <pt x="353" y="124" on="0"/>
        <pt x="394" y="151" on="1"/>
        <pt x="507" y="225" on="0"/>
        <pt x="538" y="444" on="1"/>
        <pt x="457" y="449" on="0"/>
        <pt x="370" y="542" on="0"/>
        <pt x="370" y="621" on="1"/>
        <pt x="370" y="678" on="0"/>
        <pt x="444" y="756" on="0"/>
        <pt x="572" y="757" on="0"/>
        <pt x="636" y="667" on="0"/>
        <pt x="636" y="590" on="1"/>
        <pt x="636" y="567" on="1"/>
        <pt x="636" y="555" on="0"/>
        <pt x="635" y="544" on="1"/>
        <pt x="652" y="552" on="0"/>
        <pt x="676" y="569" on="0"/>
        <pt x="688" y="569" on="1"/>
        <pt x="708" y="569" on="0"/>
        <pt x="708" y="552" on="1"/>
        <pt x="708" y="519" on="0"/>
        <pt x="667" y="470" on="0"/>
        <pt x="632" y="457" on="1"/>
        <pt x="622" y="328" on="0"/>
        <pt x="577" y="192" on="0"/>
        <pt x="526" y="102" on="0"/>
        <pt x="486" y="68" on="1"/>
        <pt x="402" y="-3" on="0"/>
        <pt x="269" y="-3" on="1"/>
        <pt x="180" y="-3" on="0"/>
        <pt x="75" y="86" on="0"/>
        <pt x="75" y="182" on="1"/>
        <pt x="75" y="205" on="0"/>
        <pt x="126" y="402" on="0"/>
        <pt x="156" y="529" on="0"/>
        <pt x="156" y="566" on="1"/>
        <pt x="156" y="647" on="0"/>
        <pt x="115" y="647" on="1"/>
        <pt x="101" y="647" on="0"/>
        <pt x="78" y="631" on="0"/>
      </contour>
      <contour>
        <pt x="547" y="547" on="1"/>
        <pt x="549" y="575" on="0"/>
        <pt x="549" y="604" on="1"/>
        <pt x="549" y="669" on="0"/>
        <pt x="519" y="669" on="1"/>
        <pt x="498" y="670" on="0"/>
        <pt x="498" y="636" on="1"/>
        <pt x="498" y="574" on="0"/>
      </contour>
    </TTGlyph>
    <TTGlyph name="W" xMin="0" yMin="-3" xMax="1078" yMax="757">
      <contour>
        <pt x="55" y="613" on="0"/>
        <pt x="31" y="597" on="0"/>
        <pt x="0" y="597" on="0"/>
        <pt x="0" y="624" on="1"/>
        <pt x="0" y="679" on="0"/>
        <pt x="51" y="714" on="1"/>
        <pt x="100" y="750" on="0"/>
        <pt x="238" y="750" on="0"/>
        <pt x="270" y="701" on="1"/>
        <pt x="296" y="662" on="0"/>
        <pt x="296" y="595" on="1"/>
        <pt x="296" y="566" on="0"/>
        <pt x="285" y="520" on="1"/>
        <pt x="228" y="282" on="0"/>
        <pt x="227" y="190" on="1"/>
        <pt x="228" y="146" on="0"/>
        <pt x="264" y="130" on="1"/>
        <pt x="278" y="124" on="0"/>
        <pt x="297" y="124" on="1"/>
        <pt x="386" y="124" on="0"/>
        <pt x="465" y="229" on="1"/>
        <pt x="425" y="369" on="0"/>
        <pt x="425" y="547" on="1"/>
        <pt x="425" y="613" on="0"/>
        <pt x="488" y="696" on="0"/>
        <pt x="559" y="696" on="1"/>
        <pt x="612" y="696" on="0"/>
        <pt x="667" y="636" on="0"/>
        <pt x="667" y="587" on="1"/>
        <pt x="667" y="486" on="0"/>
        <pt x="614" y="338" on="1"/>
        <pt x="596" y="288" on="0"/>
        <pt x="572" y="239" on="1"/>
        <pt x="615" y="123" on="0"/>
        <pt x="686" y="123" on="1"/>
        <pt x="766" y="123" on="0"/>
        <pt x="826" y="231" on="1"/>
        <pt x="870" y="310" on="0"/>
        <pt x="898" y="446" on="1"/>
        <pt x="825" y="456" on="0"/>
        <pt x="740" y="560" on="0"/>
        <pt x="740" y="678" on="0"/>
        <pt x="814" y="756" on="0"/>
        <pt x="942" y="757" on="0"/>
        <pt x="1006" y="666" on="0"/>
        <pt x="1006" y="588" on="1"/>
        <pt x="1006" y="568" on="1"/>
        <pt x="1006" y="557" on="0"/>
        <pt x="1005" y="544" on="1"/>
        <pt x="1022" y="552" on="0"/>
        <pt x="1046" y="569" on="0"/>
        <pt x="1058" y="569" on="1"/>
        <pt x="1078" y="569" on="0"/>
        <pt x="1078" y="552" on="1"/>
        <pt x="1078" y="519" on="0"/>
        <pt x="1035" y="469" on="0"/>
        <pt x="999" y="456" on="1"/>
        <pt x="986" y="339" on="0"/>
        <pt x="964" y="272" on="1"/>
        <pt x="923" y="143" on="0"/>
        <pt x="856" y="76" on="1"/>
        <pt x="776" y="-2" on="0"/>
        <pt x="659" y="-3" on="1"/>
        <pt x="562" y="-3" on="0"/>
        <pt x="501" y="126" on="1"/>
        <pt x="399" y="-3" on="0"/>
        <pt x="269" y="-3" on="1"/>
        <pt x="180" y="-3" on="0"/>
        <pt x="75" y="86" on="0"/>
        <pt x="75" y="182" on="1"/>
        <pt x="75" y="205" on="0"/>
        <pt x="126" y="402" on="0"/>
        <pt x="156" y="529" on="0"/>
        <pt x="156" y="566" on="1"/>
        <pt x="156" y="647" on="0"/>
        <pt x="115" y="647" on="1"/>
        <pt x="101" y="647" on="0"/>
        <pt x="78" y="631" on="0"/>
      </contour>
      <contour>
        <pt x="551" y="612" on="1"/>
        <pt x="525" y="612" on="0"/>
        <pt x="525" y="450" on="0"/>
        <pt x="539" y="368" on="1"/>
        <pt x="577" y="467" on="0"/>
        <pt x="577" y="560" on="1"/>
        <pt x="577" y="580" on="0"/>
        <pt x="564" y="612" on="0"/>
      </contour>
      <contour>
        <pt x="889" y="669" on="1"/>
        <pt x="868" y="669" on="0"/>
        <pt x="868" y="636" on="1"/>
        <pt x="868" y="576" on="0"/>
        <pt x="915" y="549" on="1"/>
        <pt x="919" y="587" on="0"/>
        <pt x="919" y="600" on="1"/>
        <pt x="919" y="628" on="0"/>
        <pt x="912" y="645" on="1"/>
        <pt x="904" y="669" on="0"/>
      </contour>
    </TTGlyph>
    <TTGlyph name="X" xMin="-30" yMin="-10" xMax="686" yMax="757">
      <contour>
        <pt x="652" y="713" on="1"/>
        <pt x="652" y="655" on="0"/>
        <pt x="425" y="379" on="1"/>
        <pt x="435" y="326" on="0"/>
        <pt x="453" y="229" on="0"/>
        <pt x="475" y="156" on="0"/>
        <pt x="504" y="112" on="0"/>
        <pt x="540" y="112" on="0"/>
        <pt x="584" y="150" on="0"/>
        <pt x="628" y="195" on="0"/>
        <pt x="665" y="233" on="0"/>
        <pt x="672" y="233" on="1"/>
        <pt x="686" y="233" on="0"/>
        <pt x="686" y="199" on="1"/>
        <pt x="686" y="130" on="0"/>
        <pt x="544" y="-3" on="0"/>
        <pt x="465" y="-3" on="1"/>
        <pt x="382" y="-3" on="0"/>
        <pt x="334" y="141" on="1"/>
        <pt x="320" y="184" on="0"/>
        <pt x="307" y="232" on="1"/>
        <pt x="278" y="194" on="0"/>
        <pt x="212" y="109" on="0"/>
        <pt x="174" y="73" on="1"/>
        <pt x="88" y="-10" on="0"/>
        <pt x="16" y="-10" on="1"/>
        <pt x="-6" y="-10" on="0"/>
        <pt x="-30" y="4" on="0"/>
        <pt x="-30" y="17" on="0"/>
        <pt x="-14" y="29" on="0"/>
        <pt x="20" y="60" on="1"/>
        <pt x="168" y="196" on="0"/>
        <pt x="279" y="358" on="1"/>
        <pt x="260" y="454" on="0"/>
        <pt x="243" y="523" on="1"/>
        <pt x="214" y="515" on="0"/>
        <pt x="182" y="515" on="1"/>
        <pt x="109" y="515" on="0"/>
        <pt x="66" y="540" on="1"/>
        <pt x="11" y="571" on="0"/>
        <pt x="11" y="687" on="0"/>
        <pt x="85" y="757" on="0"/>
        <pt x="196" y="757" on="0"/>
        <pt x="272" y="720" on="0"/>
        <pt x="302" y="688" on="1"/>
        <pt x="353" y="634" on="0"/>
        <pt x="388" y="526" on="1"/>
        <pt x="407" y="557" on="0"/>
        <pt x="450" y="624" on="0"/>
        <pt x="487" y="684" on="0"/>
        <pt x="517" y="730" on="0"/>
        <pt x="532" y="753" on="0"/>
        <pt x="546" y="754" on="1"/>
        <pt x="578" y="755" on="0"/>
        <pt x="652" y="732" on="0"/>
      </contour>
      <contour>
        <pt x="157" y="669" on="1"/>
        <pt x="139" y="669" on="0"/>
        <pt x="139" y="620" on="0"/>
        <pt x="188" y="580" on="0"/>
        <pt x="229" y="572" on="1"/>
        <pt x="198" y="669" on="0"/>
      </contour>
    </TTGlyph>
    <TTGlyph name="Y" xMin="0" yMin="-274" xMax="727" yMax="750">
      <contour>
        <pt x="227" y="245" on="1"/>
        <pt x="227" y="185" on="0"/>
        <pt x="280" y="185" on="1"/>
        <pt x="338" y="185" on="0"/>
        <pt x="383" y="255" on="1"/>
        <pt x="395" y="308" on="0"/>
        <pt x="462" y="570" on="0"/>
        <pt x="468" y="600" on="1"/>
        <pt x="481" y="659" on="0"/>
        <pt x="514" y="729" on="0"/>
        <pt x="539" y="729" on="1"/>
        <pt x="585" y="729" on="0"/>
        <pt x="634" y="688" on="0"/>
        <pt x="634" y="581" on="0"/>
        <pt x="598" y="514" on="1"/>
        <pt x="592" y="478" on="0"/>
        <pt x="578" y="400" on="0"/>
        <pt x="556" y="274" on="0"/>
        <pt x="526" y="123" on="1"/>
        <pt x="644" y="171" on="0"/>
        <pt x="697" y="233" on="0"/>
        <pt x="727" y="233" on="0"/>
        <pt x="727" y="171" on="0"/>
        <pt x="690" y="125" on="0"/>
        <pt x="611" y="67" on="0"/>
        <pt x="506" y="22" on="1"/>
        <pt x="454" y="-200" on="0"/>
        <pt x="316" y="-258" on="1"/>
        <pt x="278" y="-274" on="0"/>
        <pt x="236" y="-274" on="1"/>
        <pt x="146" y="-274" on="0"/>
        <pt x="93" y="-240" on="1"/>
        <pt x="32" y="-202" on="0"/>
        <pt x="32" y="-127" on="1"/>
        <pt x="32" y="-60" on="0"/>
        <pt x="232" y="15" on="1"/>
        <pt x="332" y="52" on="0"/>
        <pt x="353" y="58" on="1"/>
        <pt x="353" y="82" on="0"/>
        <pt x="358" y="120" on="1"/>
        <pt x="296" y="85" on="0"/>
        <pt x="149" y="85" on="0"/>
        <pt x="75" y="174" on="0"/>
        <pt x="75" y="252" on="1"/>
        <pt x="75" y="289" on="0"/>
        <pt x="100" y="373" on="0"/>
        <pt x="131" y="460" on="0"/>
        <pt x="156" y="544" on="0"/>
        <pt x="156" y="580" on="1"/>
        <pt x="156" y="647" on="0"/>
        <pt x="115" y="647" on="1"/>
        <pt x="101" y="647" on="0"/>
        <pt x="78" y="631" on="0"/>
        <pt x="55" y="613" on="0"/>
        <pt x="31" y="597" on="0"/>
        <pt x="0" y="597" on="0"/>
        <pt x="0" y="624" on="1"/>
        <pt x="0" y="679" on="0"/>
        <pt x="51" y="714" on="1"/>
        <pt x="100" y="750" on="0"/>
        <pt x="236" y="750" on="0"/>
        <pt x="270" y="700" on="1"/>
        <pt x="296" y="663" on="0"/>
        <pt x="296" y="569" on="0"/>
        <pt x="274" y="482" on="0"/>
        <pt x="249" y="390" on="0"/>
        <pt x="227" y="295" on="0"/>
      </contour>
      <contour>
        <pt x="263" y="-184" on="1"/>
        <pt x="303" y="-151" on="0"/>
        <pt x="331" y="-44" on="1"/>
        <pt x="278" y="-63" on="0"/>
        <pt x="204" y="-87" on="0"/>
        <pt x="156" y="-107" on="0"/>
        <pt x="134" y="-126" on="0"/>
        <pt x="134" y="-139" on="1"/>
        <pt x="134" y="-164" on="0"/>
        <pt x="194" y="-196" on="0"/>
        <pt x="248" y="-197" on="0"/>
      </contour>
    </TTGlyph>
    <TTGlyph name="Yacute" xMin="0" yMin="-274" xMax="727" yMax="1012">
      <contour>
        <pt x="227" y="245" on="1"/>
        <pt x="227" y="185" on="0"/>
        <pt x="280" y="185" on="1"/>
        <pt x="338" y="185" on="0"/>
        <pt x="383" y="255" on="1"/>
        <pt x="395" y="308" on="0"/>
        <pt x="462" y="570" on="0"/>
        <pt x="468" y="600" on="1"/>
        <pt x="481" y="659" on="0"/>
        <pt x="514" y="729" on="0"/>
        <pt x="539" y="729" on="1"/>
        <pt x="585" y="729" on="0"/>
        <pt x="634" y="688" on="0"/>
        <pt x="634" y="581" on="0"/>
        <pt x="598" y="514" on="1"/>
        <pt x="592" y="478" on="0"/>
        <pt x="578" y="400" on="0"/>
        <pt x="556" y="274" on="0"/>
        <pt x="526" y="123" on="1"/>
        <pt x="644" y="171" on="0"/>
        <pt x="697" y="233" on="0"/>
        <pt x="727" y="233" on="0"/>
        <pt x="727" y="171" on="0"/>
        <pt x="690" y="125" on="0"/>
        <pt x="611" y="67" on="0"/>
        <pt x="506" y="22" on="1"/>
        <pt x="454" y="-200" on="0"/>
        <pt x="316" y="-258" on="1"/>
        <pt x="278" y="-274" on="0"/>
        <pt x="236" y="-274" on="1"/>
        <pt x="146" y="-274" on="0"/>
        <pt x="93" y="-240" on="1"/>
        <pt x="32" y="-202" on="0"/>
        <pt x="32" y="-127" on="1"/>
        <pt x="32" y="-60" on="0"/>
        <pt x="232" y="15" on="1"/>
        <pt x="332" y="52" on="0"/>
        <pt x="353" y="58" on="1"/>
        <pt x="353" y="82" on="0"/>
        <pt x="358" y="120" on="1"/>
        <pt x="296" y="85" on="0"/>
        <pt x="149" y="85" on="0"/>
        <pt x="75" y="174" on="0"/>
        <pt x="75" y="252" on="1"/>
        <pt x="75" y="289" on="0"/>
        <pt x="100" y="373" on="0"/>
        <pt x="131" y="460" on="0"/>
        <pt x="156" y="544" on="0"/>
        <pt x="156" y="580" on="1"/>
        <pt x="156" y="647" on="0"/>
        <pt x="115" y="647" on="1"/>
        <pt x="101" y="647" on="0"/>
        <pt x="78" y="631" on="0"/>
        <pt x="55" y="613" on="0"/>
        <pt x="31" y="597" on="0"/>
        <pt x="0" y="597" on="0"/>
        <pt x="0" y="624" on="1"/>
        <pt x="0" y="679" on="0"/>
        <pt x="51" y="714" on="1"/>
        <pt x="100" y="750" on="0"/>
        <pt x="236" y="750" on="0"/>
        <pt x="270" y="700" on="1"/>
        <pt x="296" y="663" on="0"/>
        <pt x="296" y="569" on="0"/>
        <pt x="274" y="482" on="0"/>
        <pt x="249" y="390" on="0"/>
        <pt x="227" y="295" on="0"/>
      </contour>
      <contour>
        <pt x="643" y="1012" on="1"/>
        <pt x="691" y="1012" on="0"/>
        <pt x="691" y="996" on="1"/>
        <pt x="691" y="983" on="0"/>
        <pt x="669" y="954" on="1"/>
        <pt x="616" y="886" on="0"/>
        <pt x="504" y="826" on="0"/>
        <pt x="408" y="825" on="1"/>
        <pt x="368" y="825" on="0"/>
        <pt x="368" y="844" on="1"/>
        <pt x="368" y="860" on="0"/>
        <pt x="398" y="869" on="1"/>
        <pt x="468" y="891" on="0"/>
        <pt x="527" y="930" on="0"/>
        <pt x="560" y="965" on="0"/>
        <pt x="576" y="989" on="1"/>
        <pt x="584" y="1000" on="0"/>
        <pt x="623" y="1012" on="0"/>
      </contour>
      <contour>
        <pt x="263" y="-184" on="1"/>
        <pt x="303" y="-151" on="0"/>
        <pt x="331" y="-44" on="1"/>
        <pt x="278" y="-63" on="0"/>
        <pt x="204" y="-87" on="0"/>
        <pt x="156" y="-107" on="0"/>
        <pt x="134" y="-126" on="0"/>
        <pt x="134" y="-139" on="1"/>
        <pt x="134" y="-164" on="0"/>
        <pt x="194" y="-196" on="0"/>
        <pt x="248" y="-197" on="0"/>
      </contour>
    </TTGlyph>
    <TTGlyph name="Ydieresis" xMin="0" yMin="-274" xMax="727" yMax="1001">
      <contour>
        <pt x="227" y="245" on="1"/>
        <pt x="227" y="185" on="0"/>
        <pt x="280" y="185" on="1"/>
        <pt x="338" y="185" on="0"/>
        <pt x="383" y="255" on="1"/>
        <pt x="395" y="308" on="0"/>
        <pt x="462" y="570" on="0"/>
        <pt x="468" y="600" on="1"/>
        <pt x="481" y="659" on="0"/>
        <pt x="514" y="729" on="0"/>
        <pt x="539" y="729" on="1"/>
        <pt x="585" y="729" on="0"/>
        <pt x="634" y="688" on="0"/>
        <pt x="634" y="581" on="0"/>
        <pt x="598" y="514" on="1"/>
        <pt x="592" y="478" on="0"/>
        <pt x="578" y="400" on="0"/>
        <pt x="556" y="274" on="0"/>
        <pt x="526" y="123" on="1"/>
        <pt x="644" y="171" on="0"/>
        <pt x="697" y="233" on="0"/>
        <pt x="727" y="233" on="0"/>
        <pt x="727" y="171" on="0"/>
        <pt x="690" y="125" on="0"/>
        <pt x="611" y="67" on="0"/>
        <pt x="506" y="22" on="1"/>
        <pt x="454" y="-200" on="0"/>
        <pt x="316" y="-258" on="1"/>
        <pt x="278" y="-274" on="0"/>
        <pt x="236" y="-274" on="1"/>
        <pt x="146" y="-274" on="0"/>
        <pt x="93" y="-240" on="1"/>
        <pt x="32" y="-202" on="0"/>
        <pt x="32" y="-127" on="1"/>
        <pt x="32" y="-60" on="0"/>
        <pt x="232" y="15" on="1"/>
        <pt x="332" y="52" on="0"/>
        <pt x="353" y="58" on="1"/>
        <pt x="353" y="82" on="0"/>
        <pt x="358" y="120" on="1"/>
        <pt x="296" y="85" on="0"/>
        <pt x="149" y="85" on="0"/>
        <pt x="75" y="174" on="0"/>
        <pt x="75" y="252" on="1"/>
        <pt x="75" y="289" on="0"/>
        <pt x="100" y="373" on="0"/>
        <pt x="131" y="460" on="0"/>
        <pt x="156" y="544" on="0"/>
        <pt x="156" y="580" on="1"/>
        <pt x="156" y="647" on="0"/>
        <pt x="115" y="647" on="1"/>
        <pt x="101" y="647" on="0"/>
        <pt x="78" y="631" on="0"/>
        <pt x="55" y="613" on="0"/>
        <pt x="31" y="597" on="0"/>
        <pt x="0" y="597" on="0"/>
        <pt x="0" y="624" on="1"/>
        <pt x="0" y="679" on="0"/>
        <pt x="51" y="714" on="1"/>
        <pt x="100" y="750" on="0"/>
        <pt x="236" y="750" on="0"/>
        <pt x="270" y="700" on="1"/>
        <pt x="296" y="663" on="0"/>
        <pt x="296" y="569" on="0"/>
        <pt x="274" y="482" on="0"/>
        <pt x="249" y="390" on="0"/>
        <pt x="227" y="295" on="0"/>
      </contour>
      <contour>
        <pt x="367" y="892" on="0"/>
        <pt x="301" y="847" on="0"/>
        <pt x="223" y="847" on="0"/>
        <pt x="222" y="932" on="0"/>
        <pt x="278" y="1000" on="0"/>
        <pt x="312" y="1001" on="1"/>
        <pt x="351" y="1001" on="0"/>
        <pt x="383" y="930" on="1"/>
      </contour>
      <contour>
        <pt x="263" y="-184" on="1"/>
        <pt x="303" y="-151" on="0"/>
        <pt x="331" y="-44" on="1"/>
        <pt x="278" y="-63" on="0"/>
        <pt x="204" y="-87" on="0"/>
        <pt x="156" y="-107" on="0"/>
        <pt x="134" y="-126" on="0"/>
        <pt x="134" y="-139" on="1"/>
        <pt x="134" y="-164" on="0"/>
        <pt x="194" y="-196" on="0"/>
        <pt x="248" y="-197" on="0"/>
      </contour>
      <contour>
        <pt x="577" y="959" on="1"/>
        <pt x="534" y="847" on="0"/>
        <pt x="473" y="847" on="1"/>
        <pt x="450" y="847" on="0"/>
        <pt x="423" y="876" on="0"/>
        <pt x="423" y="894" on="1"/>
        <pt x="423" y="939" on="0"/>
        <pt x="465" y="992" on="0"/>
        <pt x="494" y="992" on="1"/>
        <pt x="550" y="992" on="0"/>
      </contour>
    </TTGlyph>
    <TTGlyph name="Z" xMin="-5" yMin="-17" xMax="654" yMax="729">
      <contour>
        <pt x="639" y="236" on="1"/>
        <pt x="654" y="236" on="0"/>
        <pt x="654" y="202" on="1"/>
        <pt x="654" y="131" on="0"/>
        <pt x="522" y="-2" on="0"/>
        <pt x="427" y="-3" on="1"/>
        <pt x="385" y="-3" on="0"/>
        <pt x="309" y="29" on="0"/>
        <pt x="275" y="49" on="1"/>
        <pt x="271" y="46" on="1"/>
        <pt x="212" y="-17" on="0"/>
        <pt x="115" y="-17" on="1"/>
        <pt x="53" y="-17" on="0"/>
        <pt x="-5" y="45" on="0"/>
        <pt x="-5" y="147" on="0"/>
        <pt x="70" y="198" on="0"/>
        <pt x="188" y="198" on="0"/>
        <pt x="242" y="184" on="1"/>
        <pt x="276" y="243" on="0"/>
        <pt x="309" y="319" on="1"/>
        <pt x="258" y="314" on="0"/>
        <pt x="164" y="301" on="0"/>
        <pt x="135" y="301" on="1"/>
        <pt x="122" y="301" on="0"/>
        <pt x="122" y="311" on="1"/>
        <pt x="122" y="348" on="0"/>
        <pt x="248" y="409" on="0"/>
        <pt x="346" y="423" on="1"/>
        <pt x="363" y="476" on="0"/>
        <pt x="388" y="572" on="0"/>
        <pt x="402" y="617" on="1"/>
        <pt x="357" y="632" on="0"/>
        <pt x="320" y="632" on="1"/>
        <pt x="257" y="632" on="0"/>
        <pt x="108" y="584" on="0"/>
        <pt x="94" y="583" on="1"/>
        <pt x="64" y="583" on="0"/>
        <pt x="64" y="605" on="1"/>
        <pt x="64" y="638" on="0"/>
        <pt x="144" y="682" on="1"/>
        <pt x="231" y="728" on="0"/>
        <pt x="336" y="729" on="1"/>
        <pt x="504" y="729" on="0"/>
        <pt x="555" y="678" on="1"/>
        <pt x="569" y="664" on="0"/>
        <pt x="569" y="645" on="1"/>
        <pt x="569" y="571" on="0"/>
        <pt x="506" y="425" on="1"/>
        <pt x="564" y="425" on="1"/>
        <pt x="586" y="425" on="0"/>
        <pt x="586" y="405" on="1"/>
        <pt x="586" y="399" on="0"/>
        <pt x="576" y="369" on="0"/>
        <pt x="572" y="353" on="1"/>
        <pt x="564" y="320" on="0"/>
        <pt x="538" y="320" on="1"/>
        <pt x="517" y="320" on="0"/>
        <pt x="459" y="325" on="1"/>
        <pt x="403" y="216" on="0"/>
        <pt x="349" y="139" on="1"/>
        <pt x="378" y="124" on="0"/>
        <pt x="436" y="102" on="0"/>
        <pt x="502" y="102" on="0"/>
        <pt x="551" y="144" on="0"/>
        <pt x="594" y="194" on="0"/>
        <pt x="628" y="236" on="0"/>
      </contour>
      <contour>
        <pt x="186" y="102" on="1"/>
        <pt x="152" y="119" on="0"/>
        <pt x="128" y="119" on="1"/>
        <pt x="114" y="119" on="0"/>
        <pt x="92" y="104" on="0"/>
        <pt x="92" y="89" on="1"/>
        <pt x="92" y="74" on="0"/>
        <pt x="114" y="61" on="0"/>
        <pt x="126" y="61" on="1"/>
        <pt x="148" y="61" on="0"/>
      </contour>
    </TTGlyph>
    <TTGlyph name="a" xMin="25" yMin="-8" xMax="662" yMax="491">
      <contour>
        <pt x="644" y="236" on="1"/>
        <pt x="662" y="236" on="0"/>
        <pt x="662" y="190" on="1"/>
        <pt x="662" y="165" on="0"/>
        <pt x="620" y="94" on="0"/>
        <pt x="553" y="35" on="0"/>
        <pt x="471" y="-3" on="0"/>
        <pt x="432" y="-3" on="1"/>
        <pt x="379" y="-3" on="0"/>
        <pt x="361" y="90" on="1"/>
        <pt x="335" y="47" on="0"/>
        <pt x="251" y="-8" on="0"/>
        <pt x="110" y="-8" on="0"/>
        <pt x="24" y="80" on="0"/>
        <pt x="25" y="143" on="1"/>
        <pt x="25" y="313" on="0"/>
        <pt x="138" y="411" on="1"/>
        <pt x="186" y="452" on="0"/>
        <pt x="269" y="478" on="0"/>
        <pt x="361" y="478" on="0"/>
        <pt x="390" y="462" on="1"/>
        <pt x="404" y="491" on="0"/>
        <pt x="422" y="491" on="1"/>
        <pt x="457" y="491" on="0"/>
        <pt x="520" y="430" on="0"/>
        <pt x="520" y="403" on="1"/>
        <pt x="506" y="370" on="0"/>
        <pt x="479" y="324" on="1"/>
        <pt x="471" y="278" on="0"/>
        <pt x="471" y="112" on="0"/>
        <pt x="492" y="112" on="1"/>
        <pt x="518" y="112" on="0"/>
        <pt x="618" y="216" on="1"/>
        <pt x="636" y="236" on="0"/>
      </contour>
      <contour>
        <pt x="172" y="176" on="1"/>
        <pt x="172" y="99" on="0"/>
        <pt x="229" y="99" on="1"/>
        <pt x="290" y="100" on="0"/>
        <pt x="330" y="164" on="1"/>
        <pt x="344" y="186" on="0"/>
        <pt x="353" y="218" on="1"/>
        <pt x="353" y="330" on="0"/>
        <pt x="373" y="410" on="1"/>
        <pt x="292" y="394" on="0"/>
        <pt x="172" y="270" on="0"/>
      </contour>
    </TTGlyph>
    <TTGlyph name="aacute" xMin="25" yMin="-8" xMax="662" yMax="791">
      <contour>
        <pt x="644" y="236" on="1"/>
        <pt x="662" y="236" on="0"/>
        <pt x="662" y="190" on="1"/>
        <pt x="662" y="165" on="0"/>
        <pt x="620" y="94" on="0"/>
        <pt x="553" y="35" on="0"/>
        <pt x="471" y="-3" on="0"/>
        <pt x="432" y="-3" on="1"/>
        <pt x="379" y="-3" on="0"/>
        <pt x="361" y="90" on="1"/>
        <pt x="335" y="47" on="0"/>
        <pt x="251" y="-8" on="0"/>
        <pt x="110" y="-8" on="0"/>
        <pt x="24" y="80" on="0"/>
        <pt x="25" y="143" on="1"/>
        <pt x="25" y="313" on="0"/>
        <pt x="138" y="411" on="1"/>
        <pt x="186" y="452" on="0"/>
        <pt x="269" y="478" on="0"/>
        <pt x="361" y="478" on="0"/>
        <pt x="390" y="462" on="1"/>
        <pt x="404" y="491" on="0"/>
        <pt x="422" y="491" on="1"/>
        <pt x="457" y="491" on="0"/>
        <pt x="520" y="430" on="0"/>
        <pt x="520" y="403" on="1"/>
        <pt x="506" y="370" on="0"/>
        <pt x="479" y="324" on="1"/>
        <pt x="471" y="278" on="0"/>
        <pt x="471" y="112" on="0"/>
        <pt x="492" y="112" on="1"/>
        <pt x="518" y="112" on="0"/>
        <pt x="618" y="216" on="1"/>
        <pt x="636" y="236" on="0"/>
      </contour>
      <contour>
        <pt x="172" y="176" on="1"/>
        <pt x="172" y="99" on="0"/>
        <pt x="229" y="99" on="1"/>
        <pt x="290" y="100" on="0"/>
        <pt x="330" y="164" on="1"/>
        <pt x="344" y="186" on="0"/>
        <pt x="353" y="218" on="1"/>
        <pt x="353" y="330" on="0"/>
        <pt x="373" y="410" on="1"/>
        <pt x="292" y="394" on="0"/>
        <pt x="172" y="270" on="0"/>
      </contour>
      <contour>
        <pt x="550" y="791" on="1"/>
        <pt x="597" y="791" on="0"/>
        <pt x="597" y="775" on="1"/>
        <pt x="598" y="764" on="0"/>
        <pt x="536" y="668" on="1"/>
        <pt x="460" y="550" on="0"/>
        <pt x="335" y="550" on="1"/>
        <pt x="295" y="550" on="0"/>
        <pt x="295" y="569" on="1"/>
        <pt x="296" y="586" on="0"/>
        <pt x="326" y="595" on="1"/>
        <pt x="332" y="597" on="0"/>
        <pt x="367" y="605" on="0"/>
        <pt x="412" y="642" on="0"/>
        <pt x="445" y="690" on="0"/>
        <pt x="470" y="744" on="0"/>
        <pt x="483" y="768" on="1"/>
        <pt x="489" y="780" on="0"/>
        <pt x="530" y="791" on="0"/>
      </contour>
    </TTGlyph>
    <TTGlyph name="acircumflex" xMin="25" yMin="-8" xMax="662" yMax="783">
      <contour>
        <pt x="644" y="236" on="1"/>
        <pt x="662" y="236" on="0"/>
        <pt x="662" y="190" on="1"/>
        <pt x="662" y="165" on="0"/>
        <pt x="620" y="94" on="0"/>
        <pt x="553" y="35" on="0"/>
        <pt x="471" y="-3" on="0"/>
        <pt x="432" y="-3" on="1"/>
        <pt x="379" y="-3" on="0"/>
        <pt x="361" y="90" on="1"/>
        <pt x="335" y="47" on="0"/>
        <pt x="251" y="-8" on="0"/>
        <pt x="110" y="-8" on="0"/>
        <pt x="24" y="80" on="0"/>
        <pt x="25" y="143" on="1"/>
        <pt x="25" y="313" on="0"/>
        <pt x="138" y="411" on="1"/>
        <pt x="186" y="452" on="0"/>
        <pt x="269" y="478" on="0"/>
        <pt x="361" y="478" on="0"/>
        <pt x="390" y="462" on="1"/>
        <pt x="404" y="491" on="0"/>
        <pt x="422" y="491" on="1"/>
        <pt x="457" y="491" on="0"/>
        <pt x="520" y="430" on="0"/>
        <pt x="520" y="403" on="1"/>
        <pt x="506" y="370" on="0"/>
        <pt x="479" y="324" on="1"/>
        <pt x="471" y="278" on="0"/>
        <pt x="471" y="112" on="0"/>
        <pt x="492" y="112" on="1"/>
        <pt x="518" y="112" on="0"/>
        <pt x="618" y="216" on="1"/>
        <pt x="636" y="236" on="0"/>
      </contour>
      <contour>
        <pt x="135" y="585" on="1"/>
        <pt x="135" y="597" on="0"/>
        <pt x="148" y="608" on="1"/>
        <pt x="185" y="640" on="0"/>
        <pt x="244" y="707" on="0"/>
        <pt x="276" y="745" on="1"/>
        <pt x="289" y="760" on="0"/>
        <pt x="338" y="783" on="0"/>
        <pt x="379" y="783" on="0"/>
        <pt x="390" y="776" on="1"/>
        <pt x="446" y="738" on="0"/>
        <pt x="512" y="648" on="1"/>
        <pt x="530" y="624" on="0"/>
        <pt x="559" y="592" on="0"/>
        <pt x="559" y="584" on="1"/>
        <pt x="559" y="568" on="0"/>
        <pt x="493" y="536" on="0"/>
        <pt x="441" y="536" on="0"/>
        <pt x="430" y="547" on="1"/>
        <pt x="398" y="582" on="0"/>
        <pt x="357" y="640" on="0"/>
        <pt x="332" y="668" on="1"/>
        <pt x="284" y="614" on="0"/>
        <pt x="253" y="589" on="1"/>
        <pt x="225" y="563" on="0"/>
        <pt x="135" y="563" on="0"/>
      </contour>
      <contour>
        <pt x="172" y="176" on="1"/>
        <pt x="172" y="99" on="0"/>
        <pt x="229" y="99" on="1"/>
        <pt x="290" y="100" on="0"/>
        <pt x="330" y="164" on="1"/>
        <pt x="344" y="186" on="0"/>
        <pt x="353" y="218" on="1"/>
        <pt x="353" y="330" on="0"/>
        <pt x="373" y="410" on="1"/>
        <pt x="292" y="394" on="0"/>
        <pt x="172" y="270" on="0"/>
      </contour>
    </TTGlyph>
    <TTGlyph name="acute" xMin="99" yMin="550" xMax="401" yMax="791">
      <contour>
        <pt x="354" y="791" on="1"/>
        <pt x="401" y="791" on="0"/>
        <pt x="401" y="775" on="1"/>
        <pt x="402" y="764" on="0"/>
        <pt x="340" y="668" on="1"/>
        <pt x="264" y="550" on="0"/>
        <pt x="139" y="550" on="1"/>
        <pt x="99" y="550" on="0"/>
        <pt x="99" y="569" on="1"/>
        <pt x="100" y="586" on="0"/>
        <pt x="130" y="595" on="1"/>
        <pt x="136" y="597" on="0"/>
        <pt x="171" y="605" on="0"/>
        <pt x="216" y="642" on="0"/>
        <pt x="249" y="690" on="0"/>
        <pt x="274" y="744" on="0"/>
        <pt x="287" y="768" on="1"/>
        <pt x="293" y="780" on="0"/>
        <pt x="334" y="791" on="0"/>
      </contour>
    </TTGlyph>
    <TTGlyph name="adieresis" xMin="25" yMin="-8" xMax="662" yMax="756">
      <contour>
        <pt x="644" y="236" on="1"/>
        <pt x="662" y="236" on="0"/>
        <pt x="662" y="190" on="1"/>
        <pt x="662" y="165" on="0"/>
        <pt x="620" y="94" on="0"/>
        <pt x="553" y="35" on="0"/>
        <pt x="471" y="-3" on="0"/>
        <pt x="432" y="-3" on="1"/>
        <pt x="379" y="-3" on="0"/>
        <pt x="361" y="90" on="1"/>
        <pt x="335" y="47" on="0"/>
        <pt x="251" y="-8" on="0"/>
        <pt x="110" y="-8" on="0"/>
        <pt x="24" y="80" on="0"/>
        <pt x="25" y="143" on="1"/>
        <pt x="25" y="313" on="0"/>
        <pt x="138" y="411" on="1"/>
        <pt x="186" y="452" on="0"/>
        <pt x="269" y="478" on="0"/>
        <pt x="361" y="478" on="0"/>
        <pt x="390" y="462" on="1"/>
        <pt x="404" y="491" on="0"/>
        <pt x="422" y="491" on="1"/>
        <pt x="457" y="491" on="0"/>
        <pt x="520" y="430" on="0"/>
        <pt x="520" y="403" on="1"/>
        <pt x="506" y="370" on="0"/>
        <pt x="479" y="324" on="1"/>
        <pt x="471" y="278" on="0"/>
        <pt x="471" y="112" on="0"/>
        <pt x="492" y="112" on="1"/>
        <pt x="518" y="112" on="0"/>
        <pt x="618" y="216" on="1"/>
        <pt x="636" y="236" on="0"/>
      </contour>
      <contour>
        <pt x="172" y="176" on="1"/>
        <pt x="172" y="99" on="0"/>
        <pt x="229" y="99" on="1"/>
        <pt x="290" y="100" on="0"/>
        <pt x="330" y="164" on="1"/>
        <pt x="344" y="186" on="0"/>
        <pt x="353" y="218" on="1"/>
        <pt x="353" y="330" on="0"/>
        <pt x="373" y="410" on="1"/>
        <pt x="292" y="394" on="0"/>
        <pt x="172" y="270" on="0"/>
      </contour>
      <contour>
        <pt x="309" y="647" on="0"/>
        <pt x="243" y="602" on="0"/>
        <pt x="165" y="602" on="0"/>
        <pt x="164" y="688" on="0"/>
        <pt x="220" y="756" on="0"/>
        <pt x="254" y="756" on="1"/>
        <pt x="293" y="756" on="0"/>
        <pt x="325" y="685" on="1"/>
      </contour>
      <contour>
        <pt x="519" y="714" on="1"/>
        <pt x="476" y="602" on="0"/>
        <pt x="415" y="602" on="1"/>
        <pt x="392" y="602" on="0"/>
        <pt x="365" y="631" on="0"/>
        <pt x="365" y="649" on="1"/>
        <pt x="365" y="694" on="0"/>
        <pt x="407" y="747" on="0"/>
        <pt x="436" y="747" on="1"/>
        <pt x="492" y="747" on="0"/>
      </contour>
    </TTGlyph>
    <TTGlyph name="ae" xMin="25" yMin="-8" xMax="831" yMax="480">
      <contour>
        <pt x="374" y="68" on="1"/>
        <pt x="287" y="-8" on="0"/>
        <pt x="195" y="-8" on="1"/>
        <pt x="109" y="-8" on="0"/>
        <pt x="24" y="80" on="0"/>
        <pt x="25" y="143" on="1"/>
        <pt x="25" y="313" on="0"/>
        <pt x="138" y="411" on="1"/>
        <pt x="216" y="478" on="0"/>
        <pt x="396" y="478" on="0"/>
        <pt x="441" y="395" on="1"/>
        <pt x="517" y="480" on="0"/>
        <pt x="618" y="480" on="1"/>
        <pt x="675" y="480" on="0"/>
        <pt x="734" y="426" on="0"/>
        <pt x="734" y="338" on="0"/>
        <pt x="692" y="272" on="0"/>
        <pt x="625" y="220" on="0"/>
        <pt x="542" y="179" on="0"/>
        <pt x="502" y="159" on="1"/>
        <pt x="515" y="109" on="0"/>
        <pt x="674" y="109" on="0"/>
        <pt x="747" y="171" on="1"/>
        <pt x="774" y="194" on="0"/>
        <pt x="808" y="233" on="0"/>
        <pt x="817" y="233" on="1"/>
        <pt x="831" y="233" on="0"/>
        <pt x="831" y="177" on="0"/>
        <pt x="801" y="108" on="0"/>
        <pt x="766" y="75" on="1"/>
        <pt x="680" y="-6" on="0"/>
        <pt x="530" y="-6" on="1"/>
        <pt x="482" y="-6" on="0"/>
        <pt x="397" y="30" on="0"/>
      </contour>
      <contour>
        <pt x="229" y="99" on="1"/>
        <pt x="277" y="99" on="0"/>
        <pt x="353" y="149" on="1"/>
        <pt x="353" y="150" on="1"/>
        <pt x="353" y="264" on="0"/>
        <pt x="408" y="351" on="1"/>
        <pt x="366" y="381" on="0"/>
        <pt x="331" y="381" on="1"/>
        <pt x="261" y="381" on="0"/>
        <pt x="172" y="262" on="0"/>
        <pt x="172" y="99" on="0"/>
      </contour>
      <contour>
        <pt x="579" y="391" on="1"/>
        <pt x="519" y="391" on="0"/>
        <pt x="502" y="233" on="1"/>
        <pt x="582" y="294" on="0"/>
        <pt x="602" y="334" on="1"/>
        <pt x="610" y="350" on="0"/>
        <pt x="610" y="366" on="1"/>
        <pt x="610" y="391" on="0"/>
      </contour>
    </TTGlyph>
    <TTGlyph name="agrave" xMin="25" yMin="-8" xMax="662" yMax="787">
      <contour>
        <pt x="644" y="236" on="1"/>
        <pt x="662" y="236" on="0"/>
        <pt x="662" y="190" on="1"/>
        <pt x="662" y="165" on="0"/>
        <pt x="620" y="94" on="0"/>
        <pt x="553" y="35" on="0"/>
        <pt x="471" y="-3" on="0"/>
        <pt x="432" y="-3" on="1"/>
        <pt x="379" y="-3" on="0"/>
        <pt x="361" y="90" on="1"/>
        <pt x="335" y="47" on="0"/>
        <pt x="251" y="-8" on="0"/>
        <pt x="110" y="-8" on="0"/>
        <pt x="24" y="80" on="0"/>
        <pt x="25" y="143" on="1"/>
        <pt x="25" y="313" on="0"/>
        <pt x="138" y="411" on="1"/>
        <pt x="186" y="452" on="0"/>
        <pt x="269" y="478" on="0"/>
        <pt x="361" y="478" on="0"/>
        <pt x="390" y="462" on="1"/>
        <pt x="404" y="491" on="0"/>
        <pt x="422" y="491" on="1"/>
        <pt x="457" y="491" on="0"/>
        <pt x="520" y="430" on="0"/>
        <pt x="520" y="403" on="1"/>
        <pt x="506" y="370" on="0"/>
        <pt x="479" y="324" on="1"/>
        <pt x="471" y="278" on="0"/>
        <pt x="471" y="112" on="0"/>
        <pt x="492" y="112" on="1"/>
        <pt x="518" y="112" on="0"/>
        <pt x="618" y="216" on="1"/>
        <pt x="636" y="236" on="0"/>
      </contour>
      <contour>
        <pt x="172" y="176" on="1"/>
        <pt x="172" y="99" on="0"/>
        <pt x="229" y="99" on="1"/>
        <pt x="290" y="100" on="0"/>
        <pt x="330" y="164" on="1"/>
        <pt x="344" y="186" on="0"/>
        <pt x="353" y="218" on="1"/>
        <pt x="353" y="330" on="0"/>
        <pt x="373" y="410" on="1"/>
        <pt x="292" y="394" on="0"/>
        <pt x="172" y="270" on="0"/>
      </contour>
      <contour>
        <pt x="300" y="582" on="1"/>
        <pt x="312" y="574" on="0"/>
        <pt x="312" y="562" on="1"/>
        <pt x="312" y="554" on="0"/>
        <pt x="257" y="555" on="0"/>
        <pt x="187" y="577" on="0"/>
        <pt x="159" y="600" on="1"/>
        <pt x="96" y="652" on="0"/>
        <pt x="96" y="738" on="1"/>
        <pt x="96" y="762" on="0"/>
        <pt x="111" y="787" on="0"/>
        <pt x="181" y="787" on="0"/>
        <pt x="199" y="769" on="1"/>
        <pt x="206" y="762" on="0"/>
        <pt x="207" y="751" on="1"/>
        <pt x="217" y="637" on="0"/>
      </contour>
    </TTGlyph>
    <TTGlyph name="ampersand" xMin="0" yMin="-12" xMax="706" yMax="704">
      <contour>
        <pt x="0" y="180" on="1"/>
        <pt x="0" y="322" on="0"/>
        <pt x="143" y="378" on="1"/>
        <pt x="70" y="429" on="0"/>
        <pt x="70" y="536" on="1"/>
        <pt x="70" y="617" on="0"/>
        <pt x="184" y="704" on="0"/>
        <pt x="344" y="704" on="0"/>
        <pt x="462" y="620" on="0"/>
        <pt x="462" y="546" on="1"/>
        <pt x="462" y="529" on="0"/>
        <pt x="452" y="508" on="0"/>
        <pt x="445" y="508" on="1"/>
        <pt x="428" y="508" on="0"/>
        <pt x="384" y="563" on="0"/>
        <pt x="323" y="597" on="0"/>
        <pt x="262" y="597" on="0"/>
        <pt x="216" y="551" on="0"/>
        <pt x="216" y="456" on="0"/>
        <pt x="255" y="421" on="1"/>
        <pt x="263" y="422" on="0"/>
        <pt x="271" y="422" on="1"/>
        <pt x="288" y="422" on="1"/>
        <pt x="322" y="422" on="0"/>
        <pt x="375" y="396" on="0"/>
        <pt x="375" y="371" on="1"/>
        <pt x="376" y="336" on="0"/>
        <pt x="308" y="326" on="1"/>
        <pt x="290" y="324" on="0"/>
        <pt x="255" y="324" on="0"/>
        <pt x="227" y="331" on="1"/>
        <pt x="167" y="296" on="0"/>
        <pt x="167" y="215" on="1"/>
        <pt x="166" y="164" on="0"/>
        <pt x="250" y="98" on="0"/>
        <pt x="366" y="98" on="0"/>
        <pt x="452" y="181" on="0"/>
        <pt x="451" y="263" on="1"/>
        <pt x="451" y="288" on="0"/>
        <pt x="434" y="352" on="0"/>
        <pt x="434" y="391" on="0"/>
        <pt x="467" y="403" on="0"/>
        <pt x="558" y="403" on="0"/>
        <pt x="627" y="411" on="0"/>
        <pt x="662" y="422" on="0"/>
        <pt x="675" y="430" on="0"/>
        <pt x="683" y="430" on="1"/>
        <pt x="705" y="430" on="0"/>
        <pt x="706" y="375" on="0"/>
        <pt x="649" y="316" on="0"/>
        <pt x="586" y="316" on="0"/>
        <pt x="541" y="324" on="1"/>
        <pt x="547" y="289" on="0"/>
        <pt x="547" y="257" on="1"/>
        <pt x="546" y="122" on="0"/>
        <pt x="462" y="50" on="1"/>
        <pt x="388" y="-12" on="0"/>
        <pt x="276" y="-12" on="1"/>
        <pt x="90" y="-12" on="0"/>
        <pt x="24" y="96" on="1"/>
        <pt x="0" y="135" on="0"/>
      </contour>
    </TTGlyph>
    <TTGlyph name="apostrophe" xMin="60" yMin="494" xMax="296" yMax="780">
      <contour>
        <pt x="143" y="605" on="1"/>
        <pt x="109" y="627" on="0"/>
        <pt x="110" y="720" on="0"/>
        <pt x="180" y="780" on="0"/>
        <pt x="228" y="780" on="1"/>
        <pt x="255" y="780" on="0"/>
        <pt x="296" y="750" on="0"/>
        <pt x="296" y="677" on="0"/>
        <pt x="265" y="600" on="0"/>
        <pt x="212" y="536" on="0"/>
        <pt x="143" y="494" on="0"/>
        <pt x="106" y="494" on="1"/>
        <pt x="92" y="494" on="0"/>
        <pt x="60" y="505" on="0"/>
        <pt x="60" y="535" on="0"/>
        <pt x="81" y="551" on="0"/>
        <pt x="109" y="566" on="0"/>
        <pt x="136" y="586" on="0"/>
      </contour>
    </TTGlyph>
    <TTGlyph name="aring" xMin="25" yMin="-8" xMax="662" yMax="815">
      <contour>
        <pt x="644" y="236" on="1"/>
        <pt x="662" y="236" on="0"/>
        <pt x="662" y="190" on="1"/>
        <pt x="662" y="165" on="0"/>
        <pt x="620" y="94" on="0"/>
        <pt x="553" y="35" on="0"/>
        <pt x="471" y="-3" on="0"/>
        <pt x="432" y="-3" on="1"/>
        <pt x="379" y="-3" on="0"/>
        <pt x="361" y="90" on="1"/>
        <pt x="335" y="47" on="0"/>
        <pt x="251" y="-8" on="0"/>
        <pt x="110" y="-8" on="0"/>
        <pt x="24" y="80" on="0"/>
        <pt x="25" y="143" on="1"/>
        <pt x="25" y="313" on="0"/>
        <pt x="138" y="411" on="1"/>
        <pt x="186" y="452" on="0"/>
        <pt x="269" y="478" on="0"/>
        <pt x="361" y="478" on="0"/>
        <pt x="390" y="462" on="1"/>
        <pt x="404" y="491" on="0"/>
        <pt x="422" y="491" on="1"/>
        <pt x="457" y="491" on="0"/>
        <pt x="520" y="430" on="0"/>
        <pt x="520" y="403" on="1"/>
        <pt x="506" y="370" on="0"/>
        <pt x="479" y="324" on="1"/>
        <pt x="471" y="278" on="0"/>
        <pt x="471" y="112" on="0"/>
        <pt x="492" y="112" on="1"/>
        <pt x="518" y="112" on="0"/>
        <pt x="618" y="216" on="1"/>
        <pt x="636" y="236" on="0"/>
      </contour>
      <contour>
        <pt x="337" y="812" on="1"/>
        <pt x="346" y="815" on="0"/>
        <pt x="378" y="815" on="0"/>
        <pt x="432" y="792" on="0"/>
        <pt x="454" y="774" on="1"/>
        <pt x="506" y="731" on="0"/>
        <pt x="507" y="636" on="0"/>
        <pt x="396" y="570" on="0"/>
        <pt x="284" y="570" on="0"/>
        <pt x="198" y="644" on="0"/>
        <pt x="199" y="701" on="1"/>
        <pt x="199" y="777" on="0"/>
        <pt x="277" y="804" on="1"/>
        <pt x="300" y="812" on="0"/>
        <pt x="326" y="812" on="1"/>
      </contour>
      <contour>
        <pt x="172" y="176" on="1"/>
        <pt x="172" y="99" on="0"/>
        <pt x="229" y="99" on="1"/>
        <pt x="290" y="100" on="0"/>
        <pt x="330" y="164" on="1"/>
        <pt x="344" y="186" on="0"/>
        <pt x="353" y="218" on="1"/>
        <pt x="353" y="330" on="0"/>
        <pt x="373" y="410" on="1"/>
        <pt x="292" y="394" on="0"/>
        <pt x="172" y="270" on="0"/>
      </contour>
      <contour>
        <pt x="297" y="687" on="0"/>
        <pt x="334" y="639" on="0"/>
        <pt x="409" y="640" on="0"/>
        <pt x="409" y="676" on="1"/>
        <pt x="409" y="696" on="0"/>
        <pt x="369" y="732" on="0"/>
        <pt x="348" y="741" on="1"/>
        <pt x="344" y="740" on="0"/>
        <pt x="317" y="740" on="0"/>
        <pt x="304" y="744" on="1"/>
        <pt x="297" y="733" on="0"/>
      </contour>
    </TTGlyph>
    <TTGlyph name="asciicircum" xMin="75" yMin="328" xMax="445" yMax="615">
      <contour>
        <pt x="270" y="615" on="1"/>
        <pt x="445" y="363" on="1"/>
        <pt x="395" y="328" on="1"/>
        <pt x="258" y="524" on="1"/>
        <pt x="123" y="330" on="1"/>
        <pt x="75" y="363" on="1"/>
        <pt x="250" y="615" on="1"/>
      </contour>
    </TTGlyph>
    <TTGlyph name="asciitilde" xMin="50" yMin="249" xMax="460" yMax="344">
      <contour>
        <pt x="50" y="270" on="1"/>
        <pt x="64" y="311" on="0"/>
        <pt x="125" y="343" on="0"/>
        <pt x="192" y="343" on="0"/>
        <pt x="236" y="332" on="0"/>
        <pt x="314" y="308" on="0"/>
        <pt x="364" y="308" on="0"/>
        <pt x="400" y="322" on="0"/>
        <pt x="411" y="344" on="1"/>
        <pt x="460" y="323" on="1"/>
        <pt x="446" y="282" on="0"/>
        <pt x="385" y="250" on="0"/>
        <pt x="319" y="250" on="0"/>
        <pt x="275" y="262" on="0"/>
        <pt x="194" y="286" on="0"/>
        <pt x="146" y="285" on="0"/>
        <pt x="110" y="271" on="0"/>
        <pt x="99" y="249" on="1"/>
      </contour>
    </TTGlyph>
    <TTGlyph name="asterisk" xMin="130" yMin="465" xMax="514" yMax="790">
      <contour>
        <pt x="401" y="668" on="1"/>
        <pt x="477" y="679" on="1"/>
        <pt x="514" y="679" on="0"/>
        <pt x="514" y="645" on="0"/>
        <pt x="485" y="627" on="0"/>
        <pt x="449" y="618" on="0"/>
        <pt x="415" y="615" on="0"/>
        <pt x="410" y="614" on="1"/>
        <pt x="448" y="531" on="0"/>
        <pt x="457" y="505" on="1"/>
        <pt x="456" y="490" on="0"/>
        <pt x="428" y="478" on="1"/>
        <pt x="390" y="465" on="0"/>
        <pt x="383" y="466" on="1"/>
        <pt x="382" y="466" on="1"/>
        <pt x="351" y="466" on="0"/>
        <pt x="347" y="479" on="1"/>
        <pt x="339" y="503" on="0"/>
        <pt x="314" y="555" on="1"/>
        <pt x="293" y="539" on="0"/>
        <pt x="250" y="509" on="0"/>
        <pt x="208" y="465" on="0"/>
        <pt x="156" y="465" on="0"/>
        <pt x="130" y="486" on="0"/>
        <pt x="130" y="517" on="0"/>
        <pt x="159" y="548" on="0"/>
        <pt x="199" y="580" on="0"/>
        <pt x="242" y="609" on="0"/>
        <pt x="256" y="620" on="1"/>
        <pt x="238" y="633" on="0"/>
        <pt x="182" y="652" on="0"/>
        <pt x="165" y="665" on="0"/>
        <pt x="165" y="676" on="1"/>
        <pt x="165" y="698" on="0"/>
        <pt x="188" y="712" on="1"/>
        <pt x="208" y="726" on="0"/>
        <pt x="256" y="725" on="0"/>
        <pt x="309" y="701" on="1"/>
        <pt x="336" y="763" on="0"/>
        <pt x="363" y="780" on="0"/>
        <pt x="387" y="787" on="0"/>
        <pt x="412" y="790" on="0"/>
        <pt x="447" y="790" on="0"/>
        <pt x="447" y="781" on="1"/>
        <pt x="447" y="774" on="0"/>
        <pt x="401" y="698" on="0"/>
      </contour>
    </TTGlyph>
    <TTGlyph name="at" xMin="120" yMin="-87" xMax="846" yMax="559">
      <contour>
        <pt x="639" y="320" on="1"/>
        <pt x="639" y="199" on="0"/>
        <pt x="659" y="199" on="1"/>
        <pt x="681" y="199" on="0"/>
        <pt x="716" y="261" on="0"/>
        <pt x="716" y="333" on="0"/>
        <pt x="688" y="409" on="0"/>
        <pt x="661" y="438" on="1"/>
        <pt x="601" y="502" on="0"/>
        <pt x="404" y="502" on="0"/>
        <pt x="242" y="355" on="0"/>
        <pt x="242" y="136" on="0"/>
        <pt x="414" y="-14" on="0"/>
        <pt x="632" y="-14" on="0"/>
        <pt x="724" y="72" on="1"/>
        <pt x="748" y="94" on="0"/>
        <pt x="766" y="114" on="1"/>
        <pt x="809" y="158" on="0"/>
        <pt x="846" y="158" on="0"/>
        <pt x="846" y="124" on="1"/>
        <pt x="846" y="73" on="0"/>
        <pt x="786" y="-6" on="0"/>
        <pt x="738" y="-32" on="1"/>
        <pt x="638" y="-86" on="0"/>
        <pt x="502" y="-87" on="1"/>
        <pt x="334" y="-86" on="0"/>
        <pt x="225" y="4" on="1"/>
        <pt x="120" y="92" on="0"/>
        <pt x="120" y="225" on="1"/>
        <pt x="120" y="296" on="0"/>
        <pt x="192" y="424" on="0"/>
        <pt x="310" y="513" on="0"/>
        <pt x="464" y="559" on="0"/>
        <pt x="528" y="559" on="1"/>
        <pt x="647" y="559" on="0"/>
        <pt x="724" y="502" on="1"/>
        <pt x="810" y="437" on="0"/>
        <pt x="809" y="240" on="0"/>
        <pt x="687" y="95" on="0"/>
        <pt x="609" y="95" on="1"/>
        <pt x="571" y="95" on="0"/>
        <pt x="553" y="149" on="1"/>
        <pt x="514" y="82" on="0"/>
        <pt x="433" y="82" on="1"/>
        <pt x="387" y="82" on="0"/>
        <pt x="329" y="138" on="0"/>
        <pt x="329" y="180" on="1"/>
        <pt x="329" y="266" on="0"/>
        <pt x="429" y="401" on="0"/>
        <pt x="511" y="401" on="1"/>
        <pt x="547" y="401" on="0"/>
        <pt x="567" y="392" on="1"/>
        <pt x="585" y="422" on="0"/>
        <pt x="628" y="422" on="0"/>
        <pt x="662" y="386" on="0"/>
        <pt x="662" y="353" on="0"/>
        <pt x="644" y="328" on="0"/>
      </contour>
      <contour>
        <pt x="434" y="168" on="1"/>
        <pt x="441" y="153" on="0"/>
        <pt x="485" y="153" on="0"/>
        <pt x="529" y="184" on="0"/>
        <pt x="542" y="220" on="1"/>
        <pt x="540" y="238" on="0"/>
        <pt x="540" y="254" on="1"/>
        <pt x="540" y="287" on="1"/>
        <pt x="540" y="322" on="0"/>
        <pt x="549" y="354" on="1"/>
        <pt x="468" y="332" on="0"/>
        <pt x="438" y="260" on="1"/>
        <pt x="417" y="206" on="0"/>
      </contour>
    </TTGlyph>
    <TTGlyph name="atilde" xMin="25" yMin="-8" xMax="662" yMax="757">
      <contour>
        <pt x="644" y="236" on="1"/>
        <pt x="662" y="236" on="0"/>
        <pt x="662" y="190" on="1"/>
        <pt x="662" y="165" on="0"/>
        <pt x="620" y="94" on="0"/>
        <pt x="553" y="35" on="0"/>
        <pt x="471" y="-3" on="0"/>
        <pt x="432" y="-3" on="1"/>
        <pt x="379" y="-3" on="0"/>
        <pt x="361" y="90" on="1"/>
        <pt x="335" y="47" on="0"/>
        <pt x="251" y="-8" on="0"/>
        <pt x="110" y="-8" on="0"/>
        <pt x="24" y="80" on="0"/>
        <pt x="25" y="143" on="1"/>
        <pt x="25" y="313" on="0"/>
        <pt x="138" y="411" on="1"/>
        <pt x="186" y="452" on="0"/>
        <pt x="269" y="478" on="0"/>
        <pt x="361" y="478" on="0"/>
        <pt x="390" y="462" on="1"/>
        <pt x="404" y="491" on="0"/>
        <pt x="422" y="491" on="1"/>
        <pt x="457" y="491" on="0"/>
        <pt x="520" y="430" on="0"/>
        <pt x="520" y="403" on="1"/>
        <pt x="506" y="370" on="0"/>
        <pt x="479" y="324" on="1"/>
        <pt x="471" y="278" on="0"/>
        <pt x="471" y="112" on="0"/>
        <pt x="492" y="112" on="1"/>
        <pt x="518" y="112" on="0"/>
        <pt x="618" y="216" on="1"/>
        <pt x="636" y="236" on="0"/>
      </contour>
      <contour>
        <pt x="112" y="602" on="1"/>
        <pt x="91" y="602" on="0"/>
        <pt x="91" y="628" on="1"/>
        <pt x="91" y="642" on="0"/>
        <pt x="110" y="663" on="1"/>
        <pt x="153" y="716" on="0"/>
        <pt x="245" y="757" on="0"/>
        <pt x="309" y="757" on="0"/>
        <pt x="359" y="723" on="0"/>
        <pt x="403" y="682" on="0"/>
        <pt x="445" y="648" on="0"/>
        <pt x="477" y="648" on="0"/>
        <pt x="491" y="660" on="0"/>
        <pt x="511" y="675" on="0"/>
        <pt x="538" y="688" on="0"/>
        <pt x="592" y="688" on="0"/>
        <pt x="592" y="670" on="1"/>
        <pt x="592" y="664" on="0"/>
        <pt x="589" y="662" on="1"/>
        <pt x="542" y="564" on="0"/>
        <pt x="438" y="564" on="1"/>
        <pt x="407" y="564" on="0"/>
        <pt x="359" y="596" on="0"/>
        <pt x="315" y="633" on="0"/>
        <pt x="271" y="665" on="0"/>
        <pt x="244" y="665" on="1"/>
        <pt x="226" y="665" on="0"/>
        <pt x="207" y="632" on="1"/>
        <pt x="192" y="610" on="0"/>
        <pt x="136" y="604" on="1"/>
        <pt x="122" y="602" on="0"/>
      </contour>
      <contour>
        <pt x="172" y="176" on="1"/>
        <pt x="172" y="99" on="0"/>
        <pt x="229" y="99" on="1"/>
        <pt x="290" y="100" on="0"/>
        <pt x="330" y="164" on="1"/>
        <pt x="344" y="186" on="0"/>
        <pt x="353" y="218" on="1"/>
        <pt x="353" y="330" on="0"/>
        <pt x="373" y="410" on="1"/>
        <pt x="292" y="394" on="0"/>
        <pt x="172" y="270" on="0"/>
      </contour>
    </TTGlyph>
    <TTGlyph name="b" xMin="40" yMin="-9" xMax="602" yMax="745">
      <contour>
        <pt x="114" y="470" on="1"/>
        <pt x="40" y="502" on="0"/>
        <pt x="40" y="532" on="1"/>
        <pt x="40" y="548" on="0"/>
        <pt x="53" y="547" on="1"/>
        <pt x="71" y="547" on="0"/>
        <pt x="117" y="530" on="0"/>
        <pt x="141" y="525" on="1"/>
        <pt x="223" y="680" on="0"/>
        <pt x="327" y="728" on="1"/>
        <pt x="362" y="744" on="0"/>
        <pt x="397" y="745" on="1"/>
        <pt x="466" y="745" on="0"/>
        <pt x="539" y="678" on="0"/>
        <pt x="539" y="630" on="1"/>
        <pt x="539" y="544" on="0"/>
        <pt x="446" y="497" on="1"/>
        <pt x="370" y="459" on="0"/>
        <pt x="239" y="450" on="1"/>
        <pt x="192" y="334" on="0"/>
        <pt x="192" y="201" on="1"/>
        <pt x="192" y="102" on="0"/>
        <pt x="238" y="86" on="1"/>
        <pt x="270" y="75" on="0"/>
        <pt x="302" y="96" on="0"/>
        <pt x="320" y="131" on="0"/>
        <pt x="321" y="199" on="0"/>
        <pt x="282" y="246" on="0"/>
        <pt x="264" y="266" on="1"/>
        <pt x="273" y="299" on="0"/>
        <pt x="290" y="321" on="1"/>
        <pt x="322" y="364" on="0"/>
        <pt x="368" y="364" on="0"/>
        <pt x="397" y="332" on="0"/>
        <pt x="415" y="284" on="0"/>
        <pt x="426" y="228" on="0"/>
        <pt x="440" y="180" on="0"/>
        <pt x="461" y="148" on="0"/>
        <pt x="496" y="148" on="0"/>
        <pt x="524" y="175" on="0"/>
        <pt x="546" y="207" on="0"/>
        <pt x="564" y="234" on="0"/>
        <pt x="583" y="234" on="0"/>
        <pt x="602" y="202" on="0"/>
        <pt x="602" y="188" on="1"/>
        <pt x="602" y="156" on="0"/>
        <pt x="539" y="68" on="0"/>
        <pt x="441" y="69" on="0"/>
        <pt x="414" y="89" on="1"/>
        <pt x="397" y="47" on="0"/>
        <pt x="315" y="-9" on="0"/>
        <pt x="164" y="-9" on="0"/>
        <pt x="110" y="30" on="1"/>
        <pt x="45" y="77" on="0"/>
        <pt x="45" y="176" on="1"/>
        <pt x="45" y="317" on="0"/>
      </contour>
      <contour>
        <pt x="429" y="612" on="1"/>
        <pt x="428" y="647" on="0"/>
        <pt x="379" y="647" on="0"/>
        <pt x="301" y="573" on="0"/>
        <pt x="265" y="507" on="1"/>
        <pt x="374" y="526" on="0"/>
        <pt x="414" y="574" on="1"/>
        <pt x="428" y="592" on="0"/>
      </contour>
    </TTGlyph>
    <TTGlyph name="backslash" xMin="120" yMin="-54" xMax="441" yMax="751">
      <contour>
        <pt x="438" y="37" on="1"/>
        <pt x="441" y="28" on="0"/>
        <pt x="441" y="19" on="1"/>
        <pt x="441" y="0" on="0"/>
        <pt x="405" y="-53" on="0"/>
        <pt x="385" y="-54" on="1"/>
        <pt x="380" y="-54" on="0"/>
        <pt x="379" y="-51" on="1"/>
        <pt x="364" y="-7" on="0"/>
        <pt x="354" y="23" on="1"/>
        <pt x="323" y="123" on="0"/>
        <pt x="259" y="290" on="0"/>
        <pt x="222" y="384" on="1"/>
        <pt x="182" y="482" on="0"/>
        <pt x="120" y="657" on="0"/>
        <pt x="120" y="670" on="1"/>
        <pt x="120" y="693" on="0"/>
        <pt x="140" y="723" on="1"/>
        <pt x="160" y="751" on="0"/>
        <pt x="173" y="751" on="1"/>
        <pt x="180" y="751" on="0"/>
        <pt x="183" y="743" on="1"/>
      </contour>
    </TTGlyph>
    <TTGlyph name="bar" xMin="176" yMin="-68" xMax="265" yMax="765">
      <contour>
        <pt x="265" y="-61" on="1"/>
        <pt x="265" y="-68" on="0"/>
        <pt x="250" y="-68" on="1"/>
        <pt x="225" y="-68" on="0"/>
        <pt x="179" y="-21" on="0"/>
        <pt x="179" y="-3" on="1"/>
        <pt x="176" y="752" on="1"/>
        <pt x="178" y="761" on="0"/>
        <pt x="185" y="765" on="0"/>
        <pt x="192" y="765" on="1"/>
        <pt x="208" y="765" on="0"/>
        <pt x="261" y="722" on="0"/>
        <pt x="261" y="704" on="1"/>
        <pt x="265" y="602" on="0"/>
        <pt x="265" y="466" on="1"/>
        <pt x="263" y="78" on="1"/>
      </contour>
    </TTGlyph>
    <TTGlyph name="braceleft" xMin="-3" yMin="-299" xMax="447" yMax="849">
      <contour>
        <pt x="336" y="-257" on="0"/>
        <pt x="363" y="-247" on="0"/>
        <pt x="413" y="-247" on="0"/>
        <pt x="413" y="-261" on="1"/>
        <pt x="413" y="-286" on="0"/>
        <pt x="362" y="-299" on="1"/>
        <pt x="253" y="-327" on="0"/>
        <pt x="186" y="-294" on="1"/>
        <pt x="148" y="-276" on="0"/>
        <pt x="120" y="-244" on="1"/>
        <pt x="62" y="-178" on="0"/>
        <pt x="62" y="-82" on="1"/>
        <pt x="62" y="-59" on="0"/>
        <pt x="85" y="33" on="0"/>
        <pt x="96" y="80" on="0"/>
        <pt x="96" y="131" on="0"/>
        <pt x="65" y="190" on="0"/>
        <pt x="28" y="243" on="0"/>
        <pt x="-3" y="288" on="0"/>
        <pt x="-3" y="316" on="0"/>
        <pt x="12" y="322" on="1"/>
        <pt x="58" y="349" on="0"/>
        <pt x="122" y="451" on="0"/>
        <pt x="122" y="483" on="1"/>
        <pt x="121" y="523" on="0"/>
        <pt x="89" y="682" on="0"/>
        <pt x="89" y="719" on="1"/>
        <pt x="89" y="788" on="0"/>
        <pt x="191" y="849" on="0"/>
        <pt x="358" y="849" on="0"/>
        <pt x="428" y="830" on="1"/>
        <pt x="446" y="825" on="0"/>
        <pt x="447" y="819" on="1"/>
        <pt x="447" y="802" on="0"/>
        <pt x="378" y="772" on="0"/>
        <pt x="355" y="772" on="1"/>
        <pt x="331" y="772" on="0"/>
        <pt x="260" y="787" on="0"/>
        <pt x="227" y="789" on="1"/>
        <pt x="224" y="778" on="0"/>
        <pt x="224" y="759" on="1"/>
        <pt x="224" y="732" on="0"/>
        <pt x="256" y="582" on="0"/>
        <pt x="256" y="549" on="1"/>
        <pt x="256" y="487" on="0"/>
        <pt x="172" y="352" on="0"/>
        <pt x="117" y="307" on="1"/>
        <pt x="234" y="209" on="0"/>
        <pt x="234" y="133" on="1"/>
        <pt x="234" y="110" on="0"/>
        <pt x="209" y="12" on="0"/>
        <pt x="197" y="-38" on="0"/>
        <pt x="197" y="-63" on="1"/>
        <pt x="197" y="-130" on="0"/>
        <pt x="228" y="-188" on="1"/>
        <pt x="264" y="-257" on="0"/>
        <pt x="319" y="-257" on="1"/>
      </contour>
    </TTGlyph>
    <TTGlyph name="braceright" xMin="27" yMin="-313" xMax="477" yMax="835">
      <contour>
        <pt x="116" y="-236" on="1"/>
        <pt x="250" y="-236" on="0"/>
        <pt x="250" y="-184" on="1"/>
        <pt x="250" y="-149" on="0"/>
        <pt x="228" y="-85" on="0"/>
        <pt x="218" y="-46" on="0"/>
        <pt x="218" y="-18" on="1"/>
        <pt x="218" y="38" on="0"/>
        <pt x="304" y="193" on="0"/>
        <pt x="357" y="239" on="1"/>
        <pt x="240" y="343" on="0"/>
        <pt x="240" y="414" on="1"/>
        <pt x="240" y="436" on="0"/>
        <pt x="265" y="528" on="0"/>
        <pt x="277" y="574" on="0"/>
        <pt x="277" y="624" on="0"/>
        <pt x="269" y="659" on="1"/>
        <pt x="262" y="694" on="0"/>
        <pt x="246" y="724" on="1"/>
        <pt x="210" y="793" on="0"/>
        <pt x="155" y="793" on="1"/>
        <pt x="138" y="793" on="0"/>
        <pt x="111" y="783" on="0"/>
        <pt x="61" y="783" on="0"/>
        <pt x="61" y="797" on="1"/>
        <pt x="61" y="822" on="0"/>
        <pt x="112" y="835" on="1"/>
        <pt x="221" y="863" on="0"/>
        <pt x="288" y="830" on="1"/>
        <pt x="326" y="812" on="0"/>
        <pt x="354" y="780" on="1"/>
        <pt x="412" y="714" on="0"/>
        <pt x="412" y="618" on="1"/>
        <pt x="412" y="595" on="0"/>
        <pt x="389" y="511" on="0"/>
        <pt x="378" y="467" on="0"/>
        <pt x="378" y="416" on="0"/>
        <pt x="409" y="364" on="0"/>
        <pt x="446" y="318" on="0"/>
        <pt x="477" y="278" on="0"/>
        <pt x="477" y="254" on="0"/>
        <pt x="462" y="245" on="1"/>
        <pt x="420" y="223" on="0"/>
        <pt x="354" y="83" on="0"/>
        <pt x="354" y="47" on="1"/>
        <pt x="353" y="4" on="0"/>
        <pt x="385" y="-146" on="0"/>
        <pt x="385" y="-183" on="1"/>
        <pt x="385" y="-252" on="0"/>
        <pt x="283" y="-313" on="0"/>
        <pt x="116" y="-313" on="0"/>
        <pt x="46" y="-294" on="1"/>
        <pt x="28" y="-289" on="0"/>
        <pt x="27" y="-283" on="1"/>
        <pt x="27" y="-266" on="0"/>
        <pt x="96" y="-236" on="0"/>
      </contour>
    </TTGlyph>
    <TTGlyph name="bracketleft" xMin="50" yMin="-220" xMax="295" yMax="839">
      <contour>
        <pt x="50" y="839" on="1"/>
        <pt x="295" y="839" on="1"/>
        <pt x="295" y="781" on="1"/>
        <pt x="118" y="781" on="1"/>
        <pt x="118" y="-162" on="1"/>
        <pt x="295" y="-162" on="1"/>
        <pt x="295" y="-220" on="1"/>
        <pt x="50" y="-220" on="1"/>
      </contour>
    </TTGlyph>
    <TTGlyph name="bracketright" xMin="50" yMin="-220" xMax="295" yMax="839">
      <contour>
        <pt x="295" y="839" on="1"/>
        <pt x="295" y="-220" on="1"/>
        <pt x="50" y="-220" on="1"/>
        <pt x="50" y="-162" on="1"/>
        <pt x="227" y="-162" on="1"/>
        <pt x="227" y="781" on="1"/>
        <pt x="50" y="781" on="1"/>
        <pt x="50" y="839" on="1"/>
      </contour>
    </TTGlyph>
    <TTGlyph name="brokenbar" xMin="200" yMin="-46" xMax="262" yMax="804">
      <contour>
        <pt x="200" y="804" on="1"/>
        <pt x="262" y="804" on="1"/>
        <pt x="262" y="414" on="1"/>
        <pt x="200" y="414" on="1"/>
      </contour>
      <contour>
        <pt x="200" y="349" on="1"/>
        <pt x="262" y="349" on="1"/>
        <pt x="262" y="-46" on="1"/>
        <pt x="200" y="-46" on="1"/>
      </contour>
    </TTGlyph>
    <TTGlyph name="bullet" xMin="120" yMin="187" xMax="336" yMax="412">
      <contour>
        <pt x="169" y="187" on="0"/>
        <pt x="120" y="240" on="0"/>
        <pt x="120" y="357" on="0"/>
        <pt x="169" y="412" on="0"/>
        <pt x="290" y="412" on="0"/>
        <pt x="336" y="357" on="0"/>
        <pt x="336" y="240" on="0"/>
        <pt x="286" y="187" on="0"/>
      </contour>
    </TTGlyph>
</ttFont>
